<svg id="Layer_1" data-name="Layer 1" xmlns="http://www.w3.org/2000/svg" viewBox="0 0 248 50"><defs><style>.cls-1{fill:#f60;}.cls-2{fill:#ff8939;}.cls-3{fill:#fff;}</style></defs><title>obejor</title><rect class="cls-1" y="0.37" width="248" height="50"/><rect class="cls-2" y="0.3" width="78" height="50"/><path class="cls-3" d="M25.9,21.86l-.21-.39-.93-1.8a2.22,2.22,0,0,1,1-3.11L36.41,11l5.37-2.79a2.23,2.23,0,0,1,3.18,1c1,2,2.1,4,3.14,6l.07.14-.18.1-5.86,3.05c-.66.34-1.32.69-2,1a.74.74,0,0,1-.36.09H31.23c-.51,0-1,0-1.54,0A4.34,4.34,0,0,0,26,21.72,1.37,1.37,0,0,1,25.9,21.86Z"/><path class="cls-3" d="M27.41,42.69H22.88a.69.69,0,0,1-.67-.65c0-.36,0-.72,0-1.09V36a.74.74,0,0,1,.7-.86c.12,0,.14-.1.14-.2,0-.54,0-1.09,0-1.63a4.21,4.21,0,0,1,2.68-3.78,4,4,0,0,1,1.72-.37,4.41,4.41,0,0,1,2.15.6,4.17,4.17,0,0,1,2.14,3.07,16.31,16.31,0,0,1,.05,2c0,.21,0,.31.27.36a.69.69,0,0,1,.58.74c0,.39,0,.78,0,1.16v4.62a2.38,2.38,0,0,1,0,.46.76.76,0,0,1-.73.58c-1.48,0-3,0-4.46,0Zm0-7.59h2.23c.57,0,.5,0,.5-.51a12.19,12.19,0,0,0,0-1.48,2.7,2.7,0,0,0-2.83-2.31,2.75,2.75,0,0,0-2.57,2.6c0,.45,0,.9,0,1.35s0,.35.34.35Zm-.59,5.09h0c0,.22,0,.44,0,.65a.57.57,0,0,0,.74.51.6.6,0,0,0,.46-.61q0-.52,0-1.05a.57.57,0,0,1,.24-.54,1.37,1.37,0,0,0-.63-2.43,1.38,1.38,0,0,0-1.46.76,1.26,1.26,0,0,0,.3,1.57.92.92,0,0,1,.33.72C26.79,39.91,26.8,40.05,26.8,40.19Z"/><path class="cls-3" d="M28.66,27.47l-1.23-.18a.31.31,0,0,1,0-.07c0-1.13,0-2.26,0-3.38a2.18,2.18,0,0,1,2.27-2.13c1,0,2.06,0,3.09,0H50.25a2.27,2.27,0,0,1,2,.92,2.14,2.14,0,0,1,.43,1.28c0,1,0,2,0,3v8.44c0,.59,0,1.18,0,1.77a3.87,3.87,0,0,1-.18,1.07,2.07,2.07,0,0,1-2,1.41c-.79,0-1.59,0-2.39,0H34.62c-.14,0-.2,0-.19-.19,0-.34,0-.69,0-1.06H50a3.63,3.63,0,0,0,.57,0,.9.9,0,0,0,.84-.82,2.59,2.59,0,0,0,0-.48V24.23c0-.95-.34-1.29-1.29-1.29H29.85a2.19,2.19,0,0,0-.36,0,1,1,0,0,0-.83,1v3.51Z"/><path class="cls-3" d="M45,35.59a2.33,2.33,0,1,1,0-3.17,2.35,2.35,0,0,1,2.23-.67,2.2,2.2,0,0,1,1.33.87,2.31,2.31,0,0,1-.16,3,2.24,2.24,0,0,1-1.7.73A2.3,2.3,0,0,1,45,35.59Z"/><path class="cls-3" d="M38,28.89c-2.39,0-4.77,0-7.16,0-.18,0-.25-.05-.23-.23a3.85,3.85,0,0,0,0-.59c0-.15,0-.2.2-.2H45.17c.16,0,.22,0,.21.21s0,.4,0,.61,0,.2-.2.2H38Z"/><path class="cls-3" d="M41,26.09c-1.38,0-2.76,0-4.14,0-.18,0-.24-.05-.23-.24a2.71,2.71,0,0,0,0-.57c0-.16,0-.22.21-.22h8.3c.19,0,.25.05.24.23a3.87,3.87,0,0,0,0,.59c0,.15,0,.21-.2.2-.38,0-.76,0-1.14,0Z"/><path class="cls-3" d="M49.4,17.75l1,1.89h-4.5l0-.05Z"/><path class="cls-3" d="M32.36,25.14H34c.14,0,.19,0,.18.17s0,.45,0,.67,0,.16-.15.16H30.73c-.12,0-.16,0-.15-.15s0-.46,0-.69.06-.16.17-.16Z"/><path class="cls-3" d="M98.75,23.13a2.72,2.72,0,0,0,.76-.08,1.39,1.39,0,0,0,.49-.21.68.68,0,0,0,.25-.31,1.3,1.3,0,0,0,.07-.41.94.94,0,0,0-.45-.79,6.69,6.69,0,0,0-1.54-.68c-.32-.11-.63-.24-1-.38a3.82,3.82,0,0,1-.86-.55,2.58,2.58,0,0,1-.61-.8,2.46,2.46,0,0,1-.24-1.14,2.79,2.79,0,0,1,.25-1.21,2.55,2.55,0,0,1,.72-.91,3.14,3.14,0,0,1,1.12-.59,5.14,5.14,0,0,1,1.48-.2,6,6,0,0,1,1.69.21,6.61,6.61,0,0,1,1.18.46l-.63,1.72a7.64,7.64,0,0,0-.9-.37,4.15,4.15,0,0,0-1.2-.16,2.26,2.26,0,0,0-1.13.22.73.73,0,0,0-.34.67.72.72,0,0,0,.13.44,1.24,1.24,0,0,0,.35.33,3,3,0,0,0,.54.27l.66.24c.5.19.94.37,1.32.56a3.61,3.61,0,0,1,.93.63,2.44,2.44,0,0,1,.55.86,3.43,3.43,0,0,1,.18,1.19,2.52,2.52,0,0,1-.95,2.1,4.58,4.58,0,0,1-2.87.75,8.12,8.12,0,0,1-1.16-.07c-.35-.06-.65-.12-.92-.19s-.49-.16-.68-.24a3.2,3.2,0,0,1-.49-.24l.62-1.74a5,5,0,0,0,1.07.43A5.36,5.36,0,0,0,98.75,23.13Z"/><path class="cls-3" d="M103.76,21.17a4.5,4.5,0,0,1,.3-1.71,3.83,3.83,0,0,1,.79-1.23,3.35,3.35,0,0,1,1.13-.74,3.5,3.5,0,0,1,1.31-.25,3.25,3.25,0,0,1,2.48,1,3.94,3.94,0,0,1,.91,2.82c0,.12,0,.25,0,.4s0,.27,0,.38H105.9a1.38,1.38,0,0,0,.61,1,2.34,2.34,0,0,0,1.42.38,6,6,0,0,0,1.13-.1,4.29,4.29,0,0,0,.9-.26l.28,1.69a2.91,2.91,0,0,1-.44.17l-.63.15-.73.1a6.85,6.85,0,0,1-.79,0,4.53,4.53,0,0,1-1.72-.29,3.23,3.23,0,0,1-1.94-2A4.88,4.88,0,0,1,103.76,21.17Zm4.9-.8a2.18,2.18,0,0,0-.09-.51,1.22,1.22,0,0,0-.24-.45,1.31,1.31,0,0,0-.4-.33,1.41,1.41,0,0,0-.61-.12,1.34,1.34,0,0,0-.6.12,1.21,1.21,0,0,0-.42.31,1.31,1.31,0,0,0-.26.46,3.34,3.34,0,0,0-.14.52Z"/><path class="cls-3" d="M111.94,21.12a4.17,4.17,0,0,1,.26-1.51,3.51,3.51,0,0,1,.75-1.23,3.56,3.56,0,0,1,1.19-.84,4,4,0,0,1,1.59-.3,5.15,5.15,0,0,1,1.08.1,5,5,0,0,1,1,.3l-.43,1.67a5,5,0,0,0-.65-.2,3.67,3.67,0,0,0-.78-.08,1.65,1.65,0,0,0-1.38.57,2.41,2.41,0,0,0-.45,1.52,2.49,2.49,0,0,0,.42,1.54,1.82,1.82,0,0,0,1.49.54,4.78,4.78,0,0,0,.82-.07,3.65,3.65,0,0,0,.79-.22l.3,1.71a5,5,0,0,1-.91.26,5.73,5.73,0,0,1-1.21.11,4.5,4.5,0,0,1-1.73-.3,3.16,3.16,0,0,1-1.2-.82,3.11,3.11,0,0,1-.68-1.22A5,5,0,0,1,111.94,21.12Z"/><path class="cls-3" d="M125.57,24.54a10.26,10.26,0,0,1-1.37.29,11.12,11.12,0,0,1-1.76.13,4.11,4.11,0,0,1-1.56-.25,2.37,2.37,0,0,1-1-.7,3,3,0,0,1-.52-1.09,6,6,0,0,1-.15-1.38V17.43h2.08v3.85a3,3,0,0,0,.27,1.46,1.06,1.06,0,0,0,1,.45l.48,0,.45-.05V17.43h2.08Z"/><path class="cls-3" d="M132,19.28l-.66-.15a4.14,4.14,0,0,0-.81-.07l-.47,0a3.29,3.29,0,0,0-.41.08V24.8h-2.09v-7a11.57,11.57,0,0,1,1.33-.38,8,8,0,0,1,1.7-.17l.4,0a3.93,3.93,0,0,1,.48.06l.48.08a1.9,1.9,0,0,1,.4.12Z"/><path class="cls-3" d="M133,21.17a4.5,4.5,0,0,1,.3-1.71,3.83,3.83,0,0,1,.79-1.23,3.35,3.35,0,0,1,1.13-.74,3.5,3.5,0,0,1,1.31-.25,3.25,3.25,0,0,1,2.48,1,4,4,0,0,1,.91,2.82c0,.12,0,.25,0,.4s0,.27,0,.38h-4.74a1.38,1.38,0,0,0,.61,1,2.34,2.34,0,0,0,1.42.38,6,6,0,0,0,1.13-.1,4.29,4.29,0,0,0,.9-.26l.28,1.69a2.91,2.91,0,0,1-.44.17l-.63.15-.73.1a6.85,6.85,0,0,1-.79,0,4.53,4.53,0,0,1-1.72-.29,3.23,3.23,0,0,1-1.94-2A4.88,4.88,0,0,1,133,21.17Zm4.9-.8a2.18,2.18,0,0,0-.09-.51,1.22,1.22,0,0,0-.24-.45,1.31,1.31,0,0,0-.4-.33,1.41,1.41,0,0,0-.61-.12,1.34,1.34,0,0,0-.6.12,1.21,1.21,0,0,0-.42.31,1.31,1.31,0,0,0-.26.46,3.34,3.34,0,0,0-.14.52Z"/><path class="cls-3" d="M151.68,21.12a5.43,5.43,0,0,1-.21,1.55,3.4,3.4,0,0,1-.61,1.2,2.8,2.8,0,0,1-1,.79,3.35,3.35,0,0,1-1.39.28,3.47,3.47,0,0,1-.81-.09,3.86,3.86,0,0,1-.73-.23v2.77h-2.08v-9.7c.18-.06.4-.11.64-.17l.76-.13c.27,0,.54-.07.82-.09s.54,0,.79,0a4.54,4.54,0,0,1,1.62.28,3.35,3.35,0,0,1,1.21.77,3.29,3.29,0,0,1,.74,1.21A4.52,4.52,0,0,1,151.68,21.12Zm-2.12.05a2.54,2.54,0,0,0-.44-1.55,1.53,1.53,0,0,0-1.29-.58l-.51,0-.4.05v3.77a2.06,2.06,0,0,0,.51.21,2.34,2.34,0,0,0,.64.08C149.06,23.17,149.56,22.51,149.56,21.17Z"/><path class="cls-3" d="M155.94,17.24a4.81,4.81,0,0,1,1.54.21,2.44,2.44,0,0,1,1,.6A2.26,2.26,0,0,1,159,19a4.85,4.85,0,0,1,.16,1.25v4.34l-1.25.23A11.86,11.86,0,0,1,156,25a6.46,6.46,0,0,1-1.3-.12,3,3,0,0,1-1-.42,1.87,1.87,0,0,1-.64-.75,2.52,2.52,0,0,1-.23-1.13,2.17,2.17,0,0,1,.26-1.09,2.1,2.1,0,0,1,.7-.72,3.24,3.24,0,0,1,1-.38,5.5,5.5,0,0,1,1.16-.12q.41,0,.72,0l.51.09v-.19a1.15,1.15,0,0,0-.32-.86A1.58,1.58,0,0,0,155.7,19a7.42,7.42,0,0,0-1,.08,4,4,0,0,0-.89.22l-.27-1.68.45-.12c.19,0,.38-.08.6-.11s.44-.06.68-.09S155.7,17.24,155.94,17.24Zm.17,6.1h.59l.44,0V21.7l-.37-.05-.47,0a4.8,4.8,0,0,0-.55,0,1.49,1.49,0,0,0-.45.14.72.72,0,0,0-.31.26.71.71,0,0,0-.11.42.72.72,0,0,0,.32.68A1.79,1.79,0,0,0,156.11,23.34Z"/><path class="cls-3" d="M167.41,17.43c-.42,1.42-.87,2.75-1.32,4s-1,2.45-1.51,3.62a8.61,8.61,0,0,1-.58,1.07,3.52,3.52,0,0,1-.65.72,2,2,0,0,1-.79.42,3.56,3.56,0,0,1-1,.14,4.32,4.32,0,0,1-.91-.09,3.68,3.68,0,0,1-.68-.21l.37-1.66a4.05,4.05,0,0,0,.57.15,3.12,3.12,0,0,0,.54,0,1.17,1.17,0,0,0,.86-.3,2.45,2.45,0,0,0,.51-.83c-.48-.93-1-2-1.43-3.14A38.69,38.69,0,0,1,160,17.43h2.22c.09.37.2.76.33,1.19s.26.85.4,1.28.28.86.43,1.27.28.79.41,1.12c.12-.33.25-.71.38-1.12s.26-.83.39-1.27.25-.86.36-1.28.23-.82.32-1.19Z"/><path class="cls-3" d="M172.56,20.89a2.92,2.92,0,0,0-.26-1.43,1,1,0,0,0-.89-.42l-.41,0-.4.05V24.8h-2.09V17.69l.62-.15.76-.14c.27,0,.54-.08.82-.1s.56,0,.83,0a3.34,3.34,0,0,1,1.29.21,2.69,2.69,0,0,1,.82.48,4.05,4.05,0,0,1,2.1-.69,3.74,3.74,0,0,1,1.45.25,2.09,2.09,0,0,1,.9.69,2.53,2.53,0,0,1,.46,1.07,6.38,6.38,0,0,1,.13,1.37V24.8H176.6V20.89a2.94,2.94,0,0,0-.25-1.43,1,1,0,0,0-.89-.42,1.71,1.71,0,0,0-.47.09,1.54,1.54,0,0,0-.5.21,2.93,2.93,0,0,1,.13.68c0,.23,0,.49,0,.76v4h-2.08Z"/><path class="cls-3" d="M180.23,21.17a4.5,4.5,0,0,1,.3-1.71,3.83,3.83,0,0,1,.79-1.23,3.26,3.26,0,0,1,1.13-.74,3.47,3.47,0,0,1,1.31-.25,3.27,3.27,0,0,1,2.48,1,4,4,0,0,1,.91,2.82c0,.12,0,.25,0,.4s0,.27,0,.38h-4.73a1.4,1.4,0,0,0,.6,1,2.38,2.38,0,0,0,1.43.38,6.09,6.09,0,0,0,1.13-.1,4.29,4.29,0,0,0,.9-.26l.28,1.69a2.7,2.7,0,0,1-.45.17l-.62.15-.73.1a7.09,7.09,0,0,1-.79,0,4.58,4.58,0,0,1-1.73-.29,3.39,3.39,0,0,1-1.22-.81,3.13,3.13,0,0,1-.71-1.21A4.88,4.88,0,0,1,180.23,21.17Zm4.9-.8a2.18,2.18,0,0,0-.09-.51,1.22,1.22,0,0,0-.24-.45,1.35,1.35,0,0,0-.41-.33,1.34,1.34,0,0,0-.6-.12,1.41,1.41,0,0,0-.61.12,1.43,1.43,0,0,0-.42.31,1.72,1.72,0,0,0-.26.46,3.3,3.3,0,0,0-.13.52Z"/><path class="cls-3" d="M188.76,17.69a10.26,10.26,0,0,1,1.37-.29,11.11,11.11,0,0,1,1.76-.14,4.32,4.32,0,0,1,1.56.25,2.27,2.27,0,0,1,1,.69,2.89,2.89,0,0,1,.52,1.07,5.75,5.75,0,0,1,.15,1.37V24.8H193V20.89a2.79,2.79,0,0,0-.27-1.43,1.09,1.09,0,0,0-1-.42l-.48,0-.45.05V24.8h-2.08Z"/><path class="cls-3" d="M196.93,15.6l2.09-.34v2.17h2.5v1.74H199v2.59a2,2,0,0,0,.23,1,1,1,0,0,0,.93.39,4.2,4.2,0,0,0,.69-.06,2.93,2.93,0,0,0,.65-.18l.3,1.63a5.55,5.55,0,0,1-.84.26,4.68,4.68,0,0,1-1.14.11,3.59,3.59,0,0,1-1.41-.23,2.21,2.21,0,0,1-.9-.64,2.5,2.5,0,0,1-.47-1,6.5,6.5,0,0,1-.13-1.3Z"/><path class="cls-3" d="M98.76,35.8c0-.12-.11-.26-.18-.43l-.25-.56c-.09-.2-.18-.41-.28-.62l-.29-.6c-.09-.19-.17-.36-.25-.51a3.21,3.21,0,0,0-.18-.34c0,.55-.1,1.14-.13,1.79s-.06,1.28-.08,1.94h-.67c0-.42,0-.85.07-1.27s0-.85.08-1.26.06-.82.09-1.21.08-.76.12-1.11h.6c.12.2.26.44.4.72l.44.88.42.92c.13.31.25.58.37.84.11-.26.23-.53.37-.84s.27-.61.42-.92.29-.59.43-.88.28-.52.41-.72h.59c.16,1.56.28,3.18.36,4.85H101c0-.66,0-1.3-.08-1.94s-.07-1.24-.13-1.79l-.18.34c-.08.15-.16.32-.25.51l-.28.6-.29.62-.24.56c-.08.17-.14.31-.19.43Z"/><path class="cls-3" d="M103.82,32.74a1.83,1.83,0,0,1,.66.1,1,1,0,0,1,.43.29,1.11,1.11,0,0,1,.24.44,2.38,2.38,0,0,1,.07.56V36.4l-.24,0-.34.05-.41,0h-.43a2.49,2.49,0,0,1-.57-.06,1.32,1.32,0,0,1-.45-.2.94.94,0,0,1-.29-.36,1.27,1.27,0,0,1-.11-.54,1,1,0,0,1,.12-.51,1.07,1.07,0,0,1,.34-.36,1.67,1.67,0,0,1,.49-.19,2.74,2.74,0,0,1,.59-.06h.2l.2,0,.16,0a.22.22,0,0,1,.1,0v-.18a1.12,1.12,0,0,0,0-.32.65.65,0,0,0-.12-.28.56.56,0,0,0-.25-.2.94.94,0,0,0-.41-.07,3.13,3.13,0,0,0-.56,0,1.47,1.47,0,0,0-.36.1l-.08-.54a1.52,1.52,0,0,1,.42-.11A3.26,3.26,0,0,1,103.82,32.74Zm.05,3.26h.41l.3,0V34.87a.54.54,0,0,0-.23-.06,2,2,0,0,0-.38,0l-.31,0a1,1,0,0,0-.3.09.58.58,0,0,0-.23.18.5.5,0,0,0-.09.31.51.51,0,0,0,.22.48A1.2,1.2,0,0,0,103.87,36Z"/><path class="cls-3" d="M107.61,34.47a3.82,3.82,0,0,1,.45.4c.15.15.31.33.46.51s.29.37.43.56a5.77,5.77,0,0,1,.34.53h-.76a4.91,4.91,0,0,0-.34-.5c-.13-.17-.26-.34-.4-.49a5.81,5.81,0,0,0-.43-.43,5,5,0,0,0-.41-.33v1.75h-.65V31.15L107,31v3.31l.37-.37.4-.41.37-.4.3-.34h.76l-.35.38-.39.43-.41.42Z"/><path class="cls-3" d="M109.56,34.65a2.38,2.38,0,0,1,.14-.84,1.81,1.81,0,0,1,.38-.6,1.44,1.44,0,0,1,.53-.35,1.62,1.62,0,0,1,.61-.12,1.39,1.39,0,0,1,1.13.46,2.1,2.1,0,0,1,.39,1.39v.11a.41.41,0,0,1,0,.12h-2.49a1.33,1.33,0,0,0,.33.86,1.19,1.19,0,0,0,.9.3,2.4,2.4,0,0,0,.58-.06,2,2,0,0,0,.35-.12l.09.55a1.75,1.75,0,0,1-.42.13,2.7,2.7,0,0,1-.67.07,2.23,2.23,0,0,1-.82-.14A1.54,1.54,0,0,1,110,36a1.66,1.66,0,0,1-.33-.6A2.58,2.58,0,0,1,109.56,34.65Zm2.5-.35a1.08,1.08,0,0,0-.22-.73.75.75,0,0,0-.62-.28.87.87,0,0,0-.4.09,1.06,1.06,0,0,0-.29.22,1.35,1.35,0,0,0-.19.33,1.53,1.53,0,0,0-.08.37Z"/><path class="cls-3" d="M116.14,36a1.31,1.31,0,0,0,.6-.11.36.36,0,0,0,.19-.33.44.44,0,0,0-.19-.38,2.91,2.91,0,0,0-.62-.31l-.41-.18a1.52,1.52,0,0,1-.33-.2.89.89,0,0,1-.22-.29.86.86,0,0,1-.09-.41.92.92,0,0,1,.36-.77,1.51,1.51,0,0,1,1-.28h.31l.29,0,.23.05.16,0-.12.56a1.47,1.47,0,0,0-.33-.12,2.12,2.12,0,0,0-.54-.06,1,1,0,0,0-.47.11.36.36,0,0,0-.21.34.46.46,0,0,0,0,.21.55.55,0,0,0,.14.17,1.57,1.57,0,0,0,.23.13l.34.14a3.36,3.36,0,0,1,.46.19,1.23,1.23,0,0,1,.35.22.84.84,0,0,1,.22.3,1.15,1.15,0,0,1,.08.44.86.86,0,0,1-.38.76,1.8,1.8,0,0,1-1.07.26,2.9,2.9,0,0,1-.75-.08,2.66,2.66,0,0,1-.37-.12l.12-.56.35.13A2.3,2.3,0,0,0,116.14,36Z"/><path class="cls-3" d="M118.22,34.65a2.18,2.18,0,0,1,.14-.84,1.65,1.65,0,0,1,.37-.6,1.44,1.44,0,0,1,.53-.35,1.67,1.67,0,0,1,.62-.12,1.39,1.39,0,0,1,1.12.46,2.1,2.1,0,0,1,.39,1.39v.23H118.9a1.28,1.28,0,0,0,.32.86,1.21,1.21,0,0,0,.9.3,2.4,2.4,0,0,0,.58-.06,2,2,0,0,0,.35-.12l.09.55a1.8,1.8,0,0,1-.41.13,2.84,2.84,0,0,1-.68.07,2.23,2.23,0,0,1-.82-.14,1.58,1.58,0,0,1-.57-.4,1.68,1.68,0,0,1-.34-.6A2.59,2.59,0,0,1,118.22,34.65Zm2.49-.35a1,1,0,0,0-.22-.73.75.75,0,0,0-.62-.28.87.87,0,0,0-.4.09.88.88,0,0,0-.47.55,1.18,1.18,0,0,0-.09.37Z"/><path class="cls-3" d="M123.91,36.55a2,2,0,0,1-.77-.14,1.49,1.49,0,0,1-.56-.39,1.77,1.77,0,0,1-.34-.6,2.65,2.65,0,0,1-.11-.77,2.43,2.43,0,0,1,.12-.77,1.79,1.79,0,0,1,.35-.6,1.59,1.59,0,0,1,.55-.4,1.85,1.85,0,0,1,.72-.14,2.63,2.63,0,0,1,.49,0,2.32,2.32,0,0,1,.47.13l-.15.55a1.94,1.94,0,0,0-.34-.11,2.46,2.46,0,0,0-.4,0,1,1,0,0,0-.84.34,1.49,1.49,0,0,0-.29,1,2.23,2.23,0,0,0,.06.54,1.18,1.18,0,0,0,.21.42.91.91,0,0,0,.37.27,1.29,1.29,0,0,0,.55.1,2.26,2.26,0,0,0,.47,0,1.4,1.4,0,0,0,.33-.11l.09.55a.84.84,0,0,1-.16.07l-.24.05-.28,0A1.56,1.56,0,0,1,123.91,36.55Z"/><path class="cls-3" d="M128.49,36.36l-.6.12a5.21,5.21,0,0,1-.85.06,1.79,1.79,0,0,1-.7-.12,1.1,1.1,0,0,1-.47-.34,1.53,1.53,0,0,1-.25-.53,2.88,2.88,0,0,1-.08-.68v-2h.66v1.9a1.65,1.65,0,0,0,.21,1,.79.79,0,0,0,.7.29h.43l.18,0,.11,0V32.83h.66Z"/><path class="cls-3" d="M131,32.75h.19l.21,0,.2,0,.13,0-.12.56-.25-.06a2,2,0,0,0-.46,0,1.47,1.47,0,0,0-.36,0l-.23,0v3.06h-.66V33c.16,0,.35-.11.58-.16A4.4,4.4,0,0,1,131,32.75Z"/><path class="cls-3" d="M132.1,34.65a2.38,2.38,0,0,1,.14-.84,1.81,1.81,0,0,1,.38-.6,1.44,1.44,0,0,1,.53-.35,1.62,1.62,0,0,1,.61-.12,1.39,1.39,0,0,1,1.13.46,2.1,2.1,0,0,1,.39,1.39v.23h-2.5a1.33,1.33,0,0,0,.33.86,1.19,1.19,0,0,0,.9.3,2.4,2.4,0,0,0,.58-.06,2,2,0,0,0,.35-.12l.09.55a1.75,1.75,0,0,1-.42.13,2.7,2.7,0,0,1-.67.07,2.23,2.23,0,0,1-.82-.14,1.54,1.54,0,0,1-.58-.4,1.82,1.82,0,0,1-.33-.6A2.58,2.58,0,0,1,132.1,34.65Zm2.5-.35a1.08,1.08,0,0,0-.22-.73.75.75,0,0,0-.62-.28.84.84,0,0,0-.4.09,1.06,1.06,0,0,0-.29.22,1.35,1.35,0,0,0-.19.33,1.53,1.53,0,0,0-.08.37Z"/><path class="cls-3" d="M141,34.65a2.39,2.39,0,0,1-.11.77,1.89,1.89,0,0,1-.31.6,1.43,1.43,0,0,1-.52.39,1.68,1.68,0,0,1-.7.14,1.82,1.82,0,0,1-.55-.08,2.17,2.17,0,0,1-.36-.16v1.45h-.65V32.94l.57-.12a3.88,3.88,0,0,1,.81-.07,2,2,0,0,1,.75.13,1.54,1.54,0,0,1,.57.38,1.6,1.6,0,0,1,.37.6A2.22,2.22,0,0,1,141,34.65Zm-.68,0a1.41,1.41,0,0,0-.31-1,1.11,1.11,0,0,0-.84-.34l-.46,0-.26,0v2.3a1.47,1.47,0,0,0,.34.19,1.3,1.3,0,0,0,.49.09,1.14,1.14,0,0,0,.48-.1,1.12,1.12,0,0,0,.33-.28,1.33,1.33,0,0,0,.18-.42A2.89,2.89,0,0,0,140.36,34.65Z"/><path class="cls-3" d="M143.14,32.74a1.83,1.83,0,0,1,.66.1,1,1,0,0,1,.43.29,1.11,1.11,0,0,1,.24.44,2.38,2.38,0,0,1,.07.56V36.4l-.24,0-.34.05-.41,0h-.44a2.47,2.47,0,0,1-.56-.06,1.32,1.32,0,0,1-.45-.2.86.86,0,0,1-.29-.36,1.27,1.27,0,0,1-.11-.54,1,1,0,0,1,.12-.51,1,1,0,0,1,.34-.36,1.67,1.67,0,0,1,.49-.19,2.72,2.72,0,0,1,.58-.06h.21l.2,0,.16,0,.1,0v-.18a1.12,1.12,0,0,0,0-.32.65.65,0,0,0-.12-.28.62.62,0,0,0-.25-.2,1,1,0,0,0-.41-.07,3.06,3.06,0,0,0-.56,0,1.24,1.24,0,0,0-.36.1l-.08-.54a1.52,1.52,0,0,1,.42-.11A3.2,3.2,0,0,1,143.14,32.74Zm.05,3.26h.41l.3,0V34.87a.54.54,0,0,0-.23-.06,2,2,0,0,0-.38,0l-.31,0a1,1,0,0,0-.3.09.58.58,0,0,0-.23.18.5.5,0,0,0-.09.31.51.51,0,0,0,.22.48A1.17,1.17,0,0,0,143.19,36Z"/><path class="cls-3" d="M145.08,37.15l.2.06a1,1,0,0,0,.24,0,.9.9,0,0,0,.6-.18,1.45,1.45,0,0,0,.4-.55c-.3-.56-.57-1.16-.83-1.78a17.06,17.06,0,0,1-.63-1.91h.7c.05.21.11.43.19.68s.15.49.24.75.18.51.28.77.21.5.33.74c.17-.49.33-1,.46-1.46s.25-1,.37-1.48h.67c-.17.68-.35,1.34-.56,2s-.43,1.22-.66,1.77a4.4,4.4,0,0,1-.29.54,1.8,1.8,0,0,1-.34.38,1.14,1.14,0,0,1-.41.21,1.61,1.61,0,0,1-.51.07h-.16l-.17,0-.14,0-.1,0Z"/><path class="cls-3" d="M149,32.93l.59-.12a5.3,5.3,0,0,1,.85-.06,1.49,1.49,0,0,1,.59.1,1,1,0,0,1,.4.27l.15-.1.26-.12a2.75,2.75,0,0,1,.34-.1,1.77,1.77,0,0,1,.41,0,1.63,1.63,0,0,1,.68.12,1,1,0,0,1,.42.35,1.3,1.3,0,0,1,.2.53,3.55,3.55,0,0,1,.06.67v2h-.65V34.56a3,3,0,0,0,0-.55,1,1,0,0,0-.12-.38.47.47,0,0,0-.23-.23.88.88,0,0,0-.39-.07,1.4,1.4,0,0,0-.54.08.89.89,0,0,0-.29.16,3.53,3.53,0,0,1,.08.4,3.29,3.29,0,0,1,0,.45v2h-.65V34.56a3,3,0,0,0,0-.55,1,1,0,0,0-.12-.38.53.53,0,0,0-.24-.23.86.86,0,0,0-.38-.07h-.21l-.21,0-.19,0-.11,0v3.08H149Z"/><path class="cls-3" d="M154.81,34.65a2.38,2.38,0,0,1,.14-.84,1.79,1.79,0,0,1,.37-.6,1.53,1.53,0,0,1,.53-.35,1.67,1.67,0,0,1,.62-.12,1.39,1.39,0,0,1,1.13.46,2.1,2.1,0,0,1,.39,1.39v.11a.41.41,0,0,1,0,.12h-2.49a1.33,1.33,0,0,0,.33.86,1.18,1.18,0,0,0,.89.3,2.35,2.35,0,0,0,.58-.06,1.86,1.86,0,0,0,.36-.12l.09.55a1.75,1.75,0,0,1-.42.13,2.76,2.76,0,0,1-.67.07,2.29,2.29,0,0,1-.83-.14,1.58,1.58,0,0,1-.57-.4,1.52,1.52,0,0,1-.33-.6A2.58,2.58,0,0,1,154.81,34.65Zm2.5-.35a1.13,1.13,0,0,0-.22-.73.75.75,0,0,0-.63-.28.8.8,0,0,0-.39.09.93.93,0,0,0-.29.22,1.35,1.35,0,0,0-.19.33,2.22,2.22,0,0,0-.09.37Z"/><path class="cls-3" d="M158.93,32.93l.59-.12a5.43,5.43,0,0,1,.86-.06,1.87,1.87,0,0,1,.72.12,1.25,1.25,0,0,1,.46.35,1.36,1.36,0,0,1,.24.53,3.45,3.45,0,0,1,.07.67v2h-.65V34.56a3.1,3.1,0,0,0-.05-.57,1,1,0,0,0-.15-.39.67.67,0,0,0-.28-.21,1.35,1.35,0,0,0-.43-.06h-.22l-.21,0-.19,0-.11,0v3.08h-.65Z"/><path class="cls-3" d="M163.55,32.83h1.38v.54h-1.38v1.68a1.75,1.75,0,0,0,0,.45.71.71,0,0,0,.12.29.6.6,0,0,0,.21.14.91.91,0,0,0,.3,0,1.26,1.26,0,0,0,.47-.07l.25-.09.12.54-.34.12a1.91,1.91,0,0,1-.56.07,1.75,1.75,0,0,1-.61-.09.93.93,0,0,1-.39-.28,1.13,1.13,0,0,1-.21-.47,3,3,0,0,1-.06-.64V31.81l.65-.11Z"/><path class="cls-3" d="M170.35,36.47c-.13-.34-.27-.72-.42-1.15s-.28-.88-.4-1.35c-.12.47-.25.91-.4,1.35s-.28.81-.41,1.15h-.57q-.32-.72-.63-1.65c-.2-.61-.4-1.28-.58-2h.7c.05.22.11.46.17.71s.13.52.21.77.15.51.22.74.16.45.23.63c.08-.22.16-.45.23-.7s.15-.49.22-.74.14-.5.2-.74.12-.46.17-.67h.54c0,.21.09.43.15.67s.13.49.2.74.14.5.22.74.15.48.23.7c.07-.18.15-.39.22-.63s.15-.48.23-.74l.21-.77c.06-.25.12-.49.17-.71h.67c-.18.71-.38,1.38-.58,2s-.42,1.17-.63,1.65Z"/><path class="cls-3" d="M173.14,32.17a.41.41,0,0,1-.3-.12.4.4,0,0,1-.12-.31.41.41,0,0,1,.12-.31.4.4,0,0,1,.3-.11.39.39,0,0,1,.29.11.39.39,0,0,1,.13.31.37.37,0,0,1-.13.31A.4.4,0,0,1,173.14,32.17Zm.33,4.3h-.66V32.83h.66Z"/><path class="cls-3" d="M175.2,32.83h1.37v.54H175.2v1.68a1.82,1.82,0,0,0,0,.45.87.87,0,0,0,.12.29.6.6,0,0,0,.21.14.91.91,0,0,0,.3,0,1.26,1.26,0,0,0,.47-.07l.25-.09.12.54-.34.12a1.91,1.91,0,0,1-.56.07,1.75,1.75,0,0,1-.61-.09.93.93,0,0,1-.39-.28,1.13,1.13,0,0,1-.21-.47,3,3,0,0,1-.06-.64V31.81l.66-.11Z"/><path class="cls-3" d="M177.4,36.47V31.15l.65-.11V32.9a2.22,2.22,0,0,1,.39-.11,1.9,1.9,0,0,1,.41,0,1.87,1.87,0,0,1,.72.12,1.25,1.25,0,0,1,.46.35,1.36,1.36,0,0,1,.24.53,2.81,2.81,0,0,1,.07.67v2h-.65V34.56a3.1,3.1,0,0,0-.05-.57,1,1,0,0,0-.15-.39.67.67,0,0,0-.28-.21,1.31,1.31,0,0,0-.43-.06h-.22l-.21,0-.18,0-.12,0v3Z"/><path class="cls-3" d="M182.81,34.65a2.38,2.38,0,0,1,.14-.84,1.79,1.79,0,0,1,.37-.6,1.53,1.53,0,0,1,.53-.35,1.67,1.67,0,0,1,.62-.12,1.39,1.39,0,0,1,1.13.46,2.1,2.1,0,0,1,.39,1.39v.11a.41.41,0,0,1,0,.12h-2.49a1.33,1.33,0,0,0,.33.86,1.18,1.18,0,0,0,.89.3,2.35,2.35,0,0,0,.58-.06,1.86,1.86,0,0,0,.36-.12l.09.55a1.75,1.75,0,0,1-.42.13,2.76,2.76,0,0,1-.67.07,2.29,2.29,0,0,1-.83-.14,1.58,1.58,0,0,1-.57-.4,1.52,1.52,0,0,1-.33-.6A2.58,2.58,0,0,1,182.81,34.65Zm2.5-.35a1.13,1.13,0,0,0-.22-.73.75.75,0,0,0-.63-.28.8.8,0,0,0-.39.09.93.93,0,0,0-.29.22,1.35,1.35,0,0,0-.19.33,2.22,2.22,0,0,0-.09.37Z"/><path class="cls-3" d="M188.1,32.74a1.83,1.83,0,0,1,.66.1,1.06,1.06,0,0,1,.44.29,1,1,0,0,1,.23.44,2,2,0,0,1,.07.56V36.4l-.23,0-.34.05-.41,0h-.44a2.47,2.47,0,0,1-.56-.06,1.16,1.16,0,0,1-.45-.2.88.88,0,0,1-.3-.36,1.27,1.27,0,0,1-.1-.54,1,1,0,0,1,.12-.51,1,1,0,0,1,.33-.36,1.79,1.79,0,0,1,.49-.19,2.88,2.88,0,0,1,.59-.06h.2l.2,0,.17,0,.1,0v-.18a1.65,1.65,0,0,0,0-.32.65.65,0,0,0-.12-.28.69.69,0,0,0-.25-.2,1,1,0,0,0-.41-.07,3.18,3.18,0,0,0-.57,0,1.47,1.47,0,0,0-.36.1l-.07-.54a1.52,1.52,0,0,1,.42-.11A3.1,3.1,0,0,1,188.1,32.74Zm.06,3.26h.41l.3,0V34.87a.58.58,0,0,0-.23-.06,2.09,2.09,0,0,0-.38,0l-.31,0a1.11,1.11,0,0,0-.31.09.55.55,0,0,0-.22.18.5.5,0,0,0-.09.31.51.51,0,0,0,.22.48A1.17,1.17,0,0,0,188.16,36Z"/><path class="cls-3" d="M191.43,36a1.29,1.29,0,0,0,.59-.11.35.35,0,0,0,.19-.33.44.44,0,0,0-.19-.38,2.68,2.68,0,0,0-.62-.31l-.4-.18a1.6,1.6,0,0,1-.34-.2,1.06,1.06,0,0,1-.22-.29.86.86,0,0,1-.08-.41.94.94,0,0,1,.35-.77,1.54,1.54,0,0,1,1-.28h.3l.29,0,.24.05.15,0-.12.56a1.35,1.35,0,0,0-.32-.12,2.12,2.12,0,0,0-.54-.06,1,1,0,0,0-.48.11.37.37,0,0,0-.2.34.46.46,0,0,0,0,.21.55.55,0,0,0,.14.17,1.73,1.73,0,0,0,.24.13l.33.14a3.53,3.53,0,0,1,.47.19,1.17,1.17,0,0,1,.34.22.73.73,0,0,1,.22.3,1.15,1.15,0,0,1,.08.44.87.87,0,0,1-.37.76,1.82,1.82,0,0,1-1.07.26,3,3,0,0,1-.76-.08l-.37-.12.12-.56.36.13A2.25,2.25,0,0,0,191.43,36Z"/><path class="cls-3" d="M193.5,34.65a2.38,2.38,0,0,1,.14-.84,1.79,1.79,0,0,1,.37-.6,1.53,1.53,0,0,1,.53-.35,1.67,1.67,0,0,1,.62-.12,1.41,1.41,0,0,1,1.13.46,2.1,2.1,0,0,1,.39,1.39v.11s0,.09,0,.12h-2.49a1.33,1.33,0,0,0,.33.86,1.18,1.18,0,0,0,.89.3,2.4,2.4,0,0,0,.58-.06,1.72,1.72,0,0,0,.35-.12l.1.55a1.75,1.75,0,0,1-.42.13,2.79,2.79,0,0,1-.68.07,2.27,2.27,0,0,1-.82-.14,1.58,1.58,0,0,1-.57-.4,1.52,1.52,0,0,1-.33-.6A2.58,2.58,0,0,1,193.5,34.65Zm2.5-.35a1.13,1.13,0,0,0-.22-.73.75.75,0,0,0-.63-.28.8.8,0,0,0-.39.09.82.82,0,0,0-.29.22,1.09,1.09,0,0,0-.19.33,2.22,2.22,0,0,0-.09.37Z"/></svg>