<svg id="Layer_1" data-name="Layer 1" xmlns="http://www.w3.org/2000/svg" viewBox="0 0 248 50"><defs><style>.cls-1{fill:#f60;}.cls-2{fill:#ff8939;}.cls-3{fill:#fff;}</style></defs><title>obejor</title><rect class="cls-1" y="-2" width="252" height="53.98"/><rect class="cls-2" y="0.3" width="78" height="50"/><path class="cls-3" d="M25.9,21.86l-.21-.39-.93-1.8a2.22,2.22,0,0,1,1-3.11L36.41,11l5.37-2.79a2.23,2.23,0,0,1,3.18,1c1,2,2.1,4,3.14,6l.07.14-.18.1-5.86,3.05c-.66.34-1.32.69-2,1a.74.74,0,0,1-.36.09H31.23c-.51,0-1,0-1.54,0A4.34,4.34,0,0,0,26,21.72,1.37,1.37,0,0,1,25.9,21.86Z"/><path class="cls-3" d="M27.41,42.69H22.88a.69.69,0,0,1-.67-.65c0-.36,0-.72,0-1.09V36a.74.74,0,0,1,.7-.86c.12,0,.14-.1.14-.2,0-.54,0-1.09,0-1.63a4.21,4.21,0,0,1,2.68-3.78,4,4,0,0,1,1.72-.37,4.41,4.41,0,0,1,2.15.6,4.17,4.17,0,0,1,2.14,3.07,16.31,16.31,0,0,1,.05,2c0,.21,0,.31.27.36a.69.69,0,0,1,.58.74c0,.39,0,.78,0,1.16v4.62a2.38,2.38,0,0,1,0,.46.76.76,0,0,1-.73.58c-1.48,0-3,0-4.46,0Zm0-7.59h2.23c.57,0,.5,0,.5-.51a12.19,12.19,0,0,0,0-1.48,2.7,2.7,0,0,0-2.83-2.31,2.75,2.75,0,0,0-2.57,2.6c0,.45,0,.9,0,1.35s0,.35.34.35Zm-.59,5.09h0c0,.22,0,.44,0,.65a.57.57,0,0,0,.74.51.6.6,0,0,0,.46-.61q0-.52,0-1.05a.57.57,0,0,1,.24-.54,1.37,1.37,0,0,0-.63-2.43,1.38,1.38,0,0,0-1.46.76,1.26,1.26,0,0,0,.3,1.57.92.92,0,0,1,.33.72C26.79,39.91,26.8,40.05,26.8,40.19Z"/><path class="cls-3" d="M28.66,27.47l-1.23-.18a.31.31,0,0,1,0-.07c0-1.13,0-2.26,0-3.38a2.18,2.18,0,0,1,2.27-2.13c1,0,2.06,0,3.09,0H50.25a2.27,2.27,0,0,1,2,.92,2.14,2.14,0,0,1,.43,1.28c0,1,0,2,0,3v8.44c0,.59,0,1.18,0,1.77a3.87,3.87,0,0,1-.18,1.07,2.07,2.07,0,0,1-2,1.41c-.79,0-1.59,0-2.39,0H34.62c-.14,0-.2,0-.19-.19,0-.34,0-.69,0-1.06H50a3.63,3.63,0,0,0,.57,0,.9.9,0,0,0,.84-.82,2.59,2.59,0,0,0,0-.48V24.23c0-.95-.34-1.29-1.29-1.29H29.85a2.19,2.19,0,0,0-.36,0,1,1,0,0,0-.83,1v3.51Z"/><path class="cls-3" d="M45,35.59a2.33,2.33,0,1,1,0-3.17,2.35,2.35,0,0,1,2.23-.67,2.2,2.2,0,0,1,1.33.87,2.31,2.31,0,0,1-.16,3,2.24,2.24,0,0,1-1.7.73A2.3,2.3,0,0,1,45,35.59Z"/><path class="cls-3" d="M38,28.89c-2.39,0-4.77,0-7.16,0-.18,0-.25-.05-.23-.23a3.85,3.85,0,0,0,0-.59c0-.15,0-.2.2-.2H45.17c.16,0,.22,0,.21.21s0,.4,0,.61,0,.2-.2.2H38Z"/><path class="cls-3" d="M41,26.09c-1.38,0-2.76,0-4.14,0-.18,0-.24-.05-.23-.24a2.71,2.71,0,0,0,0-.57c0-.16,0-.22.21-.22h8.3c.19,0,.25.05.24.23a3.87,3.87,0,0,0,0,.59c0,.15,0,.21-.2.2-.38,0-.76,0-1.14,0Z"/><path class="cls-3" d="M49.4,17.75l1,1.89h-4.5l0-.05Z"/><path class="cls-3" d="M32.36,25.14H34c.14,0,.19,0,.18.17s0,.45,0,.67,0,.16-.15.16H30.73c-.12,0-.16,0-.15-.15s0-.46,0-.69.06-.16.17-.16Z"/><path class="cls-3" d="M98.75,21.51a2.72,2.72,0,0,0,.76-.08,1.39,1.39,0,0,0,.49-.21.68.68,0,0,0,.25-.31,1.3,1.3,0,0,0,.07-.41.94.94,0,0,0-.45-.79A6.69,6.69,0,0,0,98.33,19c-.32-.11-.63-.24-1-.38a3.82,3.82,0,0,1-.86-.55,2.58,2.58,0,0,1-.61-.8,2.46,2.46,0,0,1-.24-1.14A2.79,2.79,0,0,1,95.92,15a2.68,2.68,0,0,1,.72-.92,3.3,3.3,0,0,1,1.12-.58,5.14,5.14,0,0,1,1.48-.2,6,6,0,0,1,1.69.21,5.93,5.93,0,0,1,1.18.46l-.63,1.72a6.24,6.24,0,0,0-.9-.37,4.15,4.15,0,0,0-1.2-.16,2.26,2.26,0,0,0-1.13.22A.82.82,0,0,0,98,16.44a1.24,1.24,0,0,0,.35.33,3,3,0,0,0,.54.27l.66.24c.5.19.94.37,1.32.56a3.61,3.61,0,0,1,.93.63,2.44,2.44,0,0,1,.55.86,3.43,3.43,0,0,1,.18,1.19,2.53,2.53,0,0,1-.95,2.1,4.58,4.58,0,0,1-2.87.75,8.12,8.12,0,0,1-1.16-.07c-.35-.06-.65-.12-.92-.19s-.49-.16-.68-.24a4.52,4.52,0,0,1-.49-.24l.62-1.74a5,5,0,0,0,1.07.43A5.36,5.36,0,0,0,98.75,21.51Z"/><path class="cls-3" d="M103.76,19.55a4.5,4.5,0,0,1,.3-1.71,3.83,3.83,0,0,1,.79-1.23,3.35,3.35,0,0,1,1.13-.74,3.5,3.5,0,0,1,1.31-.25,3.25,3.25,0,0,1,2.48,1,3.94,3.94,0,0,1,.91,2.82c0,.12,0,.25,0,.4s0,.27,0,.38H105.9a1.38,1.38,0,0,0,.61,1,2.41,2.41,0,0,0,1.42.38,6,6,0,0,0,1.13-.1,4.29,4.29,0,0,0,.9-.26l.28,1.69a2.91,2.91,0,0,1-.44.17l-.63.15-.73.1a6.85,6.85,0,0,1-.79,0,4.53,4.53,0,0,1-1.72-.29,3.43,3.43,0,0,1-1.22-.81,3.28,3.28,0,0,1-.72-1.21A4.88,4.88,0,0,1,103.76,19.55Zm4.9-.8a2.18,2.18,0,0,0-.09-.51,1.22,1.22,0,0,0-.24-.45,1.31,1.31,0,0,0-.4-.33,1.41,1.41,0,0,0-.61-.12,1.34,1.34,0,0,0-.6.12,1.21,1.21,0,0,0-.42.31,1.31,1.31,0,0,0-.26.46,3.34,3.34,0,0,0-.14.52Z"/><path class="cls-3" d="M111.94,19.49a4.15,4.15,0,0,1,.26-1.5,3.51,3.51,0,0,1,.75-1.23,3.56,3.56,0,0,1,1.19-.84,4,4,0,0,1,1.59-.3,5.15,5.15,0,0,1,1.08.1,5,5,0,0,1,1,.3l-.43,1.67a5,5,0,0,0-.65-.2,3.67,3.67,0,0,0-.78-.08,1.65,1.65,0,0,0-1.38.57,2.4,2.4,0,0,0-.45,1.51,2.46,2.46,0,0,0,.42,1.54,1.79,1.79,0,0,0,1.49.55,4.78,4.78,0,0,0,.82-.07,3.65,3.65,0,0,0,.79-.22l.3,1.7a4.3,4.3,0,0,1-.91.27,5.73,5.73,0,0,1-1.21.11,4.5,4.5,0,0,1-1.73-.3,3.16,3.16,0,0,1-1.2-.82,3.11,3.11,0,0,1-.68-1.22A5,5,0,0,1,111.94,19.49Z"/><path class="cls-3" d="M125.57,22.92a10.26,10.26,0,0,1-1.37.29,11.12,11.12,0,0,1-1.76.13,4.11,4.11,0,0,1-1.56-.25,2.37,2.37,0,0,1-1-.7,3,3,0,0,1-.52-1.09,6,6,0,0,1-.15-1.39v-4.1h2.08v3.85a3,3,0,0,0,.27,1.46,1.06,1.06,0,0,0,1,.45l.48,0,.45-.05V15.81h2.08Z"/><path class="cls-3" d="M132,17.66l-.66-.15a4.14,4.14,0,0,0-.81-.07l-.47,0a2.1,2.1,0,0,0-.41.08v5.63h-2.09v-7c.38-.13.82-.25,1.33-.37a8,8,0,0,1,1.7-.17l.4,0,.48.06.48.08a1.9,1.9,0,0,1,.4.12Z"/><path class="cls-3" d="M133,19.55a4.5,4.5,0,0,1,.3-1.71,3.83,3.83,0,0,1,.79-1.23,3.35,3.35,0,0,1,1.13-.74,3.5,3.5,0,0,1,1.31-.25,3.25,3.25,0,0,1,2.48,1,4,4,0,0,1,.91,2.82c0,.12,0,.25,0,.4s0,.27,0,.38h-4.74a1.38,1.38,0,0,0,.61,1,2.41,2.41,0,0,0,1.42.38,6,6,0,0,0,1.13-.1,4.29,4.29,0,0,0,.9-.26l.28,1.69a2.91,2.91,0,0,1-.44.17l-.63.15-.73.1a6.85,6.85,0,0,1-.79,0,4.53,4.53,0,0,1-1.72-.29,3.43,3.43,0,0,1-1.22-.81,3.28,3.28,0,0,1-.72-1.21A4.88,4.88,0,0,1,133,19.55Zm4.9-.8a2.18,2.18,0,0,0-.09-.51,1.22,1.22,0,0,0-.24-.45,1.31,1.31,0,0,0-.4-.33,1.41,1.41,0,0,0-.61-.12,1.34,1.34,0,0,0-.6.12,1.21,1.21,0,0,0-.42.31,1.31,1.31,0,0,0-.26.46,3.34,3.34,0,0,0-.14.52Z"/><path class="cls-3" d="M151.68,19.49a5.45,5.45,0,0,1-.21,1.56,3.4,3.4,0,0,1-.61,1.2,2.8,2.8,0,0,1-1,.79,3.35,3.35,0,0,1-1.39.28,3.47,3.47,0,0,1-.81-.09,3.28,3.28,0,0,1-.73-.24v2.78h-2.08v-9.7a5.81,5.81,0,0,1,.64-.17l.76-.13c.27,0,.54-.07.82-.09s.54,0,.79,0a4.54,4.54,0,0,1,1.62.28,3.35,3.35,0,0,1,1.21.77,3.29,3.29,0,0,1,.74,1.21A4.46,4.46,0,0,1,151.68,19.49Zm-2.12.06a2.54,2.54,0,0,0-.44-1.55,1.53,1.53,0,0,0-1.29-.58l-.51,0-.4,0v3.77a2.06,2.06,0,0,0,.51.21,2.34,2.34,0,0,0,.64.08C149.06,21.55,149.56,20.89,149.56,19.55Z"/><path class="cls-3" d="M155.94,15.62a4.81,4.81,0,0,1,1.54.21,2.44,2.44,0,0,1,1,.6,2.26,2.26,0,0,1,.52.95,4.8,4.8,0,0,1,.16,1.25V23l-1.25.23a11.86,11.86,0,0,1-1.93.13,5.78,5.78,0,0,1-1.3-.13,2.81,2.81,0,0,1-1-.41A1.87,1.87,0,0,1,153,22a2.52,2.52,0,0,1-.23-1.13,2.17,2.17,0,0,1,.26-1.09,2.1,2.1,0,0,1,.7-.72,3.24,3.24,0,0,1,1-.38,5.5,5.5,0,0,1,1.16-.12q.41,0,.72,0l.51.09v-.19a1.15,1.15,0,0,0-.32-.86,1.58,1.58,0,0,0-1.12-.32,7.42,7.42,0,0,0-1,.08,4,4,0,0,0-.89.22L153.49,16l.45-.12c.19,0,.38-.08.6-.11s.44-.06.68-.09S155.7,15.62,155.94,15.62Zm.17,6.1h.59a3.62,3.62,0,0,0,.44-.05V20.08l-.37,0-.47,0a4.8,4.8,0,0,0-.55,0,1.49,1.49,0,0,0-.45.14.72.72,0,0,0-.31.26.69.69,0,0,0-.11.42.72.72,0,0,0,.32.68A1.79,1.79,0,0,0,156.11,21.72Z"/><path class="cls-3" d="M167.41,15.81c-.42,1.42-.87,2.75-1.32,4s-1,2.45-1.51,3.61a8.8,8.8,0,0,1-.58,1.08,3.52,3.52,0,0,1-.65.72,2.31,2.31,0,0,1-.79.42,3.56,3.56,0,0,1-1,.14,4.32,4.32,0,0,1-.91-.09,4.65,4.65,0,0,1-.68-.21l.37-1.66a4.05,4.05,0,0,0,.57.15,3.12,3.12,0,0,0,.54,0,1.17,1.17,0,0,0,.86-.3,2.45,2.45,0,0,0,.51-.83c-.48-.93-1-2-1.43-3.14A38.69,38.69,0,0,1,160,15.81h2.22c.09.37.2.76.33,1.19s.26.85.4,1.28.28.86.43,1.27.28.78.41,1.12c.12-.34.25-.71.38-1.12s.26-.83.39-1.27.25-.86.36-1.28.23-.82.32-1.19Z"/><path class="cls-3" d="M172.56,19.27a2.92,2.92,0,0,0-.26-1.43,1,1,0,0,0-.89-.42l-.41,0-.4,0v5.69h-2.09V16.07l.62-.15.76-.14c.27,0,.54-.08.82-.1s.56,0,.83,0a3.34,3.34,0,0,1,1.29.21,2.69,2.69,0,0,1,.82.48,4.05,4.05,0,0,1,2.1-.69,3.74,3.74,0,0,1,1.45.25,2.09,2.09,0,0,1,.9.69,2.53,2.53,0,0,1,.46,1.07,6.38,6.38,0,0,1,.13,1.37v4.16H176.6V19.27a2.94,2.94,0,0,0-.25-1.43,1,1,0,0,0-.89-.42,1.71,1.71,0,0,0-.47.09,1.54,1.54,0,0,0-.5.21,2.93,2.93,0,0,1,.13.68c0,.23,0,.49,0,.76v4h-2.08Z"/><path class="cls-3" d="M180.23,19.55a4.5,4.5,0,0,1,.3-1.71,3.83,3.83,0,0,1,.79-1.23,3.26,3.26,0,0,1,1.13-.74,3.47,3.47,0,0,1,1.31-.25,3.27,3.27,0,0,1,2.48,1,4,4,0,0,1,.91,2.82c0,.12,0,.25,0,.4s0,.27,0,.38h-4.73a1.4,1.4,0,0,0,.6,1,2.45,2.45,0,0,0,1.43.38,6.09,6.09,0,0,0,1.13-.1,4.29,4.29,0,0,0,.9-.26l.28,1.69a2.7,2.7,0,0,1-.45.17l-.62.15-.73.1a7.09,7.09,0,0,1-.79,0,4.58,4.58,0,0,1-1.73-.29,3.52,3.52,0,0,1-1.22-.81,3.13,3.13,0,0,1-.71-1.21A4.88,4.88,0,0,1,180.23,19.55Zm4.9-.8a2.18,2.18,0,0,0-.09-.51,1.22,1.22,0,0,0-.24-.45,1.35,1.35,0,0,0-.41-.33,1.34,1.34,0,0,0-.6-.12,1.41,1.41,0,0,0-.61.12,1.43,1.43,0,0,0-.42.31,1.72,1.72,0,0,0-.26.46,3.3,3.3,0,0,0-.13.52Z"/><path class="cls-3" d="M188.76,16.07a10.26,10.26,0,0,1,1.37-.29,11.11,11.11,0,0,1,1.76-.14,4.32,4.32,0,0,1,1.56.25,2.27,2.27,0,0,1,1,.69,2.89,2.89,0,0,1,.52,1.07,5.75,5.75,0,0,1,.15,1.37v4.16H193V19.27a2.79,2.79,0,0,0-.27-1.43,1.09,1.09,0,0,0-1-.42l-.48,0-.45,0v5.69h-2.08Z"/><path class="cls-3" d="M196.93,14l2.09-.34v2.17h2.5v1.74H199v2.59a2,2,0,0,0,.23,1.05,1,1,0,0,0,.93.39,4.2,4.2,0,0,0,.69-.06,2.93,2.93,0,0,0,.65-.18l.3,1.63a5.55,5.55,0,0,1-.84.26,4.68,4.68,0,0,1-1.14.11,3.59,3.59,0,0,1-1.41-.23,2.3,2.3,0,0,1-.9-.64,2.5,2.5,0,0,1-.47-1,6.5,6.5,0,0,1-.13-1.3Z"/><path class="cls-3" d="M100,33.89c-.06-.16-.15-.37-.26-.61l-.36-.8c-.12-.29-.26-.58-.4-.89l-.41-.86c-.12-.27-.24-.51-.35-.72s-.2-.38-.27-.49c-.07.78-.13,1.64-.18,2.55s-.08,1.84-.12,2.78h-.95L96.74,33q.06-.91.12-1.8c0-.59.09-1.16.14-1.72s.1-1.09.16-1.59H98c.18.29.38.64.58,1s.42.82.62,1.25.41.88.6,1.31.37.84.53,1.2l.53-1.2.6-1.31.62-1.25c.21-.4.4-.75.58-1h.85q.35,3.34.51,6.93h-1c0-.94-.07-1.86-.12-2.78s-.1-1.77-.18-2.55c-.06.11-.15.27-.26.49s-.23.45-.36.72-.26.56-.4.86l-.41.89-.35.8-.27.61Z"/><path class="cls-3" d="M107.17,29.52a2.89,2.89,0,0,1,1,.14,1.64,1.64,0,0,1,.62.41,1.47,1.47,0,0,1,.33.63,3,3,0,0,1,.1.81v3.25l-.33.05-.49.07-.58,0q-.31,0-.63,0a3.47,3.47,0,0,1-.81-.09,1.87,1.87,0,0,1-.64-.29,1.31,1.31,0,0,1-.42-.51,1.82,1.82,0,0,1-.15-.77,1.42,1.42,0,0,1,.18-.74,1.33,1.33,0,0,1,.47-.5,2.19,2.19,0,0,1,.7-.28,3.86,3.86,0,0,1,.84-.09h.29l.29,0,.23.05.14,0v-.26a1.75,1.75,0,0,0-.05-.46,1,1,0,0,0-.18-.4.91.91,0,0,0-.35-.28,1.42,1.42,0,0,0-.59-.1,4.74,4.74,0,0,0-.8.06,3.31,3.31,0,0,0-.52.14l-.11-.77a2.45,2.45,0,0,1,.6-.16A5.25,5.25,0,0,1,107.17,29.52Zm.08,4.66.59,0a3.47,3.47,0,0,0,.42,0V32.56a1.05,1.05,0,0,0-.32-.09,4.22,4.22,0,0,0-.55,0l-.44,0a1.43,1.43,0,0,0-.43.12,1.06,1.06,0,0,0-.33.26.87.87,0,0,0,.19,1.13A1.7,1.7,0,0,0,107.25,34.18Z"/><path class="cls-3" d="M112.59,32a5.26,5.26,0,0,1,.64.57c.22.22.44.47.66.73s.42.53.61.8a6.39,6.39,0,0,1,.49.76H113.9c-.14-.24-.3-.47-.48-.72s-.38-.47-.58-.7a7,7,0,0,0-.61-.61,3.91,3.91,0,0,0-.59-.47v2.5h-.93v-7.6l.93-.16v4.74l.53-.53c.2-.2.39-.39.57-.59s.37-.39.53-.58l.43-.48h1.09l-.5.55c-.18.2-.36.4-.56.6s-.38.41-.58.61Z"/><path class="cls-3" d="M115.38,32.26a3.45,3.45,0,0,1,.2-1.21,2.57,2.57,0,0,1,.53-.85,2.12,2.12,0,0,1,.76-.51,2.26,2.26,0,0,1,.88-.17,2,2,0,0,1,1.61.65,3,3,0,0,1,.56,2v.15a1,1,0,0,1,0,.18h-3.56a1.92,1.92,0,0,0,.47,1.23,1.73,1.73,0,0,0,1.28.42,3.23,3.23,0,0,0,.83-.09,2.69,2.69,0,0,0,.5-.16l.13.78a2.9,2.9,0,0,1-.59.19,4.67,4.67,0,0,1-1,.1,3,3,0,0,1-1.17-.21,2.18,2.18,0,0,1-.82-.56,2.32,2.32,0,0,1-.47-.86A3.71,3.71,0,0,1,115.38,32.26Zm3.57-.51a1.54,1.54,0,0,0-.31-1,1.1,1.1,0,0,0-.9-.4,1.25,1.25,0,0,0-.56.12,1.5,1.5,0,0,0-.42.33,1.38,1.38,0,0,0-.26.46,2.42,2.42,0,0,0-.13.53Z"/><path class="cls-3" d="M128.15,32.26a3.83,3.83,0,0,1-.15,1.09,2.62,2.62,0,0,1-.46.86,2.13,2.13,0,0,1-.73.56,2.41,2.41,0,0,1-1,.2,2.39,2.39,0,0,1-.79-.12,3,3,0,0,1-.52-.23V36.7h-.93V29.81c.22-.06.5-.11.83-.18a6.43,6.43,0,0,1,1.14-.09,2.85,2.85,0,0,1,1.08.19,2.1,2.1,0,0,1,.82.54,2.31,2.31,0,0,1,.53.85A3.41,3.41,0,0,1,128.15,32.26Zm-1,0a2,2,0,0,0-.45-1.4,1.54,1.54,0,0,0-1.2-.49,5.43,5.43,0,0,0-.65,0,2.38,2.38,0,0,0-.38.07v3.28A2.38,2.38,0,0,0,125,34a2,2,0,0,0,.7.13,1.47,1.47,0,0,0,.69-.15,1.19,1.19,0,0,0,.46-.4,1.63,1.63,0,0,0,.26-.6A3,3,0,0,0,127.18,32.26Z"/><path class="cls-3" d="M131.14,29.52a2.89,2.89,0,0,1,1,.14,1.64,1.64,0,0,1,.62.41,1.47,1.47,0,0,1,.33.63,3,3,0,0,1,.1.81v3.25l-.33.05-.49.07-.58,0q-.31,0-.63,0a3.47,3.47,0,0,1-.81-.09,1.87,1.87,0,0,1-.64-.29,1.31,1.31,0,0,1-.42-.51,1.82,1.82,0,0,1-.15-.77,1.42,1.42,0,0,1,.18-.74,1.33,1.33,0,0,1,.47-.5,2.19,2.19,0,0,1,.7-.28,3.86,3.86,0,0,1,.84-.09h.29l.29,0,.23.05.14,0v-.26a1.75,1.75,0,0,0,0-.46,1,1,0,0,0-.18-.4.91.91,0,0,0-.35-.28,1.42,1.42,0,0,0-.59-.1,4.74,4.74,0,0,0-.8.06,3.31,3.31,0,0,0-.52.14l-.11-.77a2.45,2.45,0,0,1,.6-.16A5.25,5.25,0,0,1,131.14,29.52Zm.08,4.66.59,0a3.47,3.47,0,0,0,.42,0V32.56a1.05,1.05,0,0,0-.32-.09,4.22,4.22,0,0,0-.55,0l-.44,0a1.43,1.43,0,0,0-.43.12,1.06,1.06,0,0,0-.33.26.87.87,0,0,0,.19,1.13A1.7,1.7,0,0,0,131.22,34.18Z"/><path class="cls-3" d="M133.92,35.82l.29.09a1.4,1.4,0,0,0,.34.05,1.3,1.3,0,0,0,.86-.25,2,2,0,0,0,.56-.79,27.27,27.27,0,0,1-1.17-2.55,20.67,20.67,0,0,1-.91-2.72h1c.08.3.16.62.27,1s.22.7.34,1.07.27.73.41,1.1.3.72.46,1.06c.26-.7.48-1.4.66-2.08s.37-1.4.53-2.12h1c-.24,1-.5,1.92-.8,2.82s-.61,1.75-.95,2.54a5,5,0,0,1-.41.77,2.31,2.31,0,0,1-.48.54,1.8,1.8,0,0,1-.58.31,2.76,2.76,0,0,1-.74.1l-.23,0-.23,0-.21-.05-.14,0Z"/><path class="cls-3" d="M139.5,29.8c.22-.06.5-.11.85-.17a7.2,7.2,0,0,1,1.21-.09,2.25,2.25,0,0,1,.84.13,1.37,1.37,0,0,1,.57.4l.22-.14a3.21,3.21,0,0,1,.37-.18l.49-.15a2.72,2.72,0,0,1,.58-.06,2.46,2.46,0,0,1,1,.17,1.35,1.35,0,0,1,.6.5,1.92,1.92,0,0,1,.29.76,5.69,5.69,0,0,1,.07,1v2.92h-.93V32.13a6,6,0,0,0,0-.79,1.55,1.55,0,0,0-.17-.55.77.77,0,0,0-.34-.33,1.28,1.28,0,0,0-.56-.1,2.11,2.11,0,0,0-.77.12,1.85,1.85,0,0,0-.42.23,2.39,2.39,0,0,1,.12.57,4.45,4.45,0,0,1,0,.65v2.92h-.93V32.13a4.56,4.56,0,0,0,0-.79,1.55,1.55,0,0,0-.17-.55.77.77,0,0,0-.34-.33,1.26,1.26,0,0,0-.55-.1h-.3l-.3,0-.27,0-.16,0v4.39h-.93Z"/><path class="cls-3" d="M147.82,32.26a3.45,3.45,0,0,1,.2-1.21,2.57,2.57,0,0,1,.53-.85,2.12,2.12,0,0,1,.76-.51,2.26,2.26,0,0,1,.88-.17,2,2,0,0,1,1.61.65,3,3,0,0,1,.56,2v.15a1,1,0,0,1,0,.18h-3.56a1.92,1.92,0,0,0,.47,1.23,1.73,1.73,0,0,0,1.28.42,3.23,3.23,0,0,0,.83-.09,2.69,2.69,0,0,0,.5-.16l.13.78a2.9,2.9,0,0,1-.59.19,4.67,4.67,0,0,1-1,.1,3,3,0,0,1-1.17-.21,2.18,2.18,0,0,1-.82-.56,2.32,2.32,0,0,1-.47-.86A3.71,3.71,0,0,1,147.82,32.26Zm3.57-.51a1.59,1.59,0,0,0-.31-1,1.1,1.1,0,0,0-.9-.4,1.25,1.25,0,0,0-.56.12,1.5,1.5,0,0,0-.42.33,1.38,1.38,0,0,0-.26.46,2.42,2.42,0,0,0-.13.53Z"/><path class="cls-3" d="M153.7,29.8c.22-.06.5-.11.85-.17a7.41,7.41,0,0,1,1.22-.09,2.73,2.73,0,0,1,1,.17,1.66,1.66,0,0,1,.66.49,1.83,1.83,0,0,1,.34.76,4.13,4.13,0,0,1,.1,1v2.92H157V32.13a4.75,4.75,0,0,0-.06-.82,1.32,1.32,0,0,0-.22-.55.89.89,0,0,0-.4-.31,1.81,1.81,0,0,0-.62-.09h-.31l-.3,0-.26,0-.17,0v4.39h-.93Z"/><path class="cls-3" d="M160.31,29.65h2v.78h-2v2.4a2.84,2.84,0,0,0,.06.64.93.93,0,0,0,.18.4.63.63,0,0,0,.3.21,1.33,1.33,0,0,0,.42.06A1.84,1.84,0,0,0,162,34l.35-.13.18.77a4.1,4.1,0,0,1-.49.17,2.76,2.76,0,0,1-.8.11,2.4,2.4,0,0,1-.87-.14,1.28,1.28,0,0,1-.56-.4,1.64,1.64,0,0,1-.29-.67,4.12,4.12,0,0,1-.09-.91V28.2l.93-.16Z"/><path class="cls-3" d="M170,34.85c-.18-.48-.38-1-.59-1.65s-.4-1.26-.58-1.92c-.17.66-.36,1.31-.57,1.92s-.4,1.17-.59,1.65h-.81c-.3-.69-.6-1.47-.9-2.35s-.57-1.83-.83-2.85h1q.1.47.24,1c.1.36.19.73.3,1.1s.21.72.32,1.06.22.63.32.89c.12-.32.23-.65.34-1s.21-.7.31-1.06.2-.7.29-1.05.17-.66.23-1h.77c.06.3.14.62.22,1s.18.7.28,1.05.21.71.32,1.06.22.68.33,1c.1-.26.21-.55.32-.89s.22-.7.32-1.06.21-.74.3-1.1.18-.71.24-1h1c-.26,1-.53,2-.83,2.85a24.32,24.32,0,0,1-.9,2.35Z"/><path class="cls-3" d="M174,28.71a.59.59,0,0,1-.42-.17.57.57,0,0,1-.18-.44.58.58,0,0,1,.6-.61.6.6,0,0,1,.43.16.61.61,0,0,1,.17.45.6.6,0,0,1-.17.44A.61.61,0,0,1,174,28.71Zm.47,6.14h-.93v-5.2h.93Z"/><path class="cls-3" d="M176.94,29.65h2v.78h-2v2.4a2.84,2.84,0,0,0,.06.64.93.93,0,0,0,.18.4.63.63,0,0,0,.3.21,1.33,1.33,0,0,0,.42.06,1.84,1.84,0,0,0,.68-.1l.35-.13.18.77a4.1,4.1,0,0,1-.49.17,2.76,2.76,0,0,1-.8.11,2.4,2.4,0,0,1-.87-.14,1.28,1.28,0,0,1-.56-.4,1.64,1.64,0,0,1-.29-.67,4.12,4.12,0,0,1-.09-.91V28.2l.93-.16Z"/><path class="cls-3" d="M180.09,34.85v-7.6l.93-.16v2.66a3.3,3.3,0,0,1,.56-.16,3.79,3.79,0,0,1,.58-.05,2.73,2.73,0,0,1,1,.17,1.66,1.66,0,0,1,.66.49,1.83,1.83,0,0,1,.34.76,4.13,4.13,0,0,1,.1,1v2.92h-.93V32.13a4.75,4.75,0,0,0-.06-.82,1.47,1.47,0,0,0-.22-.55.89.89,0,0,0-.4-.31,1.81,1.81,0,0,0-.62-.09,1.67,1.67,0,0,0-.31,0l-.3,0-.26.06-.17.05v4.32Z"/><path class="cls-3" d="M187.82,32.26a3.45,3.45,0,0,1,.2-1.21,2.57,2.57,0,0,1,.53-.85,2.12,2.12,0,0,1,.76-.51,2.26,2.26,0,0,1,.88-.17,2,2,0,0,1,1.61.65,3,3,0,0,1,.56,2v.15a1,1,0,0,1,0,.18h-3.56a1.92,1.92,0,0,0,.47,1.23,1.73,1.73,0,0,0,1.28.42,3.29,3.29,0,0,0,.83-.09,2.69,2.69,0,0,0,.5-.16l.13.78a2.9,2.9,0,0,1-.59.19,4.74,4.74,0,0,1-1,.1,3,3,0,0,1-1.17-.21,2.18,2.18,0,0,1-.82-.56,2.32,2.32,0,0,1-.47-.86A3.4,3.4,0,0,1,187.82,32.26Zm3.57-.51a1.59,1.59,0,0,0-.31-1,1.1,1.1,0,0,0-.9-.4,1.25,1.25,0,0,0-.56.12,1.37,1.37,0,0,0-.68.79,2,2,0,0,0-.13.53Z"/><path class="cls-3" d="M195.38,29.52a2.89,2.89,0,0,1,1,.14,1.72,1.72,0,0,1,.62.41,1.59,1.59,0,0,1,.33.63,3,3,0,0,1,.1.81v3.25l-.33.05-.49.07-.58,0q-.31,0-.63,0a3.47,3.47,0,0,1-.81-.09,1.87,1.87,0,0,1-.64-.29,1.31,1.31,0,0,1-.42-.51,1.82,1.82,0,0,1-.15-.77,1.42,1.42,0,0,1,.18-.74,1.26,1.26,0,0,1,.47-.5,2.19,2.19,0,0,1,.7-.28,3.86,3.86,0,0,1,.84-.09h.29l.29,0,.23.05.14,0v-.26a1.75,1.75,0,0,0-.05-.46,1,1,0,0,0-.18-.4.91.91,0,0,0-.35-.28,1.42,1.42,0,0,0-.59-.1,4.74,4.74,0,0,0-.8.06,3.31,3.31,0,0,0-.52.14l-.11-.77a2.45,2.45,0,0,1,.6-.16A5.25,5.25,0,0,1,195.38,29.52Zm.08,4.66.59,0a3.47,3.47,0,0,0,.42,0V32.56a1.05,1.05,0,0,0-.32-.09,4.22,4.22,0,0,0-.55,0l-.44,0a1.43,1.43,0,0,0-.43.12,1.06,1.06,0,0,0-.33.26.87.87,0,0,0,.19,1.13A1.7,1.7,0,0,0,195.46,34.18Z"/><path class="cls-3" d="M200.13,34.18A1.87,1.87,0,0,0,201,34a.51.51,0,0,0,.27-.48A.63.63,0,0,0,201,33a3.58,3.58,0,0,0-.89-.45c-.2-.08-.39-.16-.57-.25A2,2,0,0,1,199,32a1.42,1.42,0,0,1-.32-.41,1.32,1.32,0,0,1-.12-.59,1.33,1.33,0,0,1,.51-1.1,2.19,2.19,0,0,1,1.39-.4l.44,0,.41.06.34.08.22.07-.17.8a2,2,0,0,0-.47-.17,3.37,3.37,0,0,0-.77-.08,1.48,1.48,0,0,0-.68.15.53.53,0,0,0-.29.49.6.6,0,0,0,.07.3.7.7,0,0,0,.2.23,1.7,1.7,0,0,0,.33.2l.48.19q.38.13.66.27a2,2,0,0,1,.5.32,1.22,1.22,0,0,1,.31.43,1.48,1.48,0,0,1,.11.63,1.26,1.26,0,0,1-.53,1.09,2.74,2.74,0,0,1-1.53.37,3.83,3.83,0,0,1-1.08-.12,4.85,4.85,0,0,1-.53-.17l.17-.8.51.18A3,3,0,0,0,200.13,34.18Z"/><path class="cls-3" d="M203.09,32.26a3.45,3.45,0,0,1,.2-1.21,2.57,2.57,0,0,1,.53-.85,2.12,2.12,0,0,1,.76-.51,2.26,2.26,0,0,1,.88-.17,2,2,0,0,1,1.61.65,3,3,0,0,1,.56,2v.15a1,1,0,0,1,0,.18h-3.56a1.92,1.92,0,0,0,.47,1.23,1.73,1.73,0,0,0,1.28.42,3.23,3.23,0,0,0,.83-.09,2.69,2.69,0,0,0,.5-.16l.13.78a2.9,2.9,0,0,1-.59.19,4.74,4.74,0,0,1-1,.1,3,3,0,0,1-1.17-.21,2.18,2.18,0,0,1-.82-.56,2.32,2.32,0,0,1-.47-.86A3.4,3.4,0,0,1,203.09,32.26Zm3.57-.51a1.59,1.59,0,0,0-.31-1,1.1,1.1,0,0,0-.9-.4,1.25,1.25,0,0,0-.56.12,1.37,1.37,0,0,0-.68.79,2,2,0,0,0-.13.53Z"/></svg>