<svg id="Layer_1" data-name="Layer 1" xmlns="http://www.w3.org/2000/svg" viewBox="0 0 248 50"><defs><style>.cls-1{fill:#f60;}.cls-2{fill:#ff8939;}.cls-3{fill:#fff;}</style></defs><title>obejor</title><rect class="cls-1" y="-3" width="252" height="57.51"/><rect class="cls-2" y="0.07" width="78" height="50"/><path class="cls-3" d="M26.7,16.26c.11-.64.22-1.22.32-1.8,0-.17.13-.15.24-.15H48.74c-.06.34-.11.66-.16,1q-1.09,6.12-2.2,12.26c-.08.45-.17.91-.23,1.37,0,.22-.11.29-.34.29H24.65l-.23,0,.2-1.28H21.21a.67.67,0,0,1-.67-.47.61.61,0,0,1,.25-.7,1,1,0,0,1,.46-.12h9.68a.65.65,0,0,0,.22-1.27,1.94,1.94,0,0,0-.34,0H25.15l.33-1.95H19.22a.65.65,0,1,1,0-1.3c.66,0,1.31,0,2,0H33.62a.67.67,0,0,0,.65-.67.65.65,0,0,0-.66-.62c-1.22,0-2.44,0-3.66,0h-4l.33-1.94H16.73a1.19,1.19,0,0,1-.33,0,.64.64,0,0,1-.47-.69.66.66,0,0,1,.66-.58H30.88a.68.68,0,0,0,.75-.65.66.66,0,0,0-.74-.64H26.7Z"/><path class="cls-3" d="M35.67,33.2a3.34,3.34,0,0,0-.52-2.62l.3,0H46.83c.38,0,.39,0,.45-.36.58-3.29,1.15-6.59,1.72-9.88l.48-2.71a.86.86,0,0,1,1-.79h5.93c.43,0,.56.09.69.5.61,1.89,1.22,3.78,1.81,5.67a1.7,1.7,0,0,1,0,.71c-.38,2.17-.77,4.33-1.16,6.5,0,.11,0,.22,0,.32.52.24.57.35.48.91-.06.35-.12.71-.19,1.06a.81.81,0,0,1-.84.71H55.94a8.52,8.52,0,0,0,0-1.13,3.22,3.22,0,0,0-3.63-2.79A4.91,4.91,0,0,0,48.08,33c0,.21-.16.2-.31.2H35.67Zm21.9-9.88c0-.08,0-.14,0-.21Q56.74,20.7,56,18.28c0-.15-.14-.17-.27-.17q-2.4,0-4.8,0c-.16,0-.23.05-.26.22-.16.94-.33,1.88-.49,2.82-.13.72-.25,1.44-.37,2.17Z"/><path class="cls-3" d="M31.32,35.84a2.16,2.16,0,0,1-2.21-2.53,3.29,3.29,0,0,1,2.68-2.71,2.19,2.19,0,0,1,2.52,2.85A3.25,3.25,0,0,1,31.32,35.84Zm-.95-2.49a1,1,0,0,0,.91,1.09A1.6,1.6,0,0,0,33,33a1,1,0,0,0-.78-1.05A1.58,1.58,0,0,0,30.37,33.35Z"/><path class="cls-3" d="M54.64,32.81a3.18,3.18,0,0,1-3.41,3,2.18,2.18,0,0,1-1.78-2.92,3.17,3.17,0,0,1,2.75-2.32A2.13,2.13,0,0,1,54.64,32.81Zm-1.35.13a1,1,0,0,0-.88-1,1.59,1.59,0,0,0-1.77,1.23,1.08,1.08,0,0,0,1,1.34A1.62,1.62,0,0,0,53.29,32.94Z"/><path class="cls-3" d="M29.16,30.66a4.79,4.79,0,0,0-1.38,2.54H24.5a.57.57,0,0,1-.64-.74c.06-.4.13-.8.2-1.2a.76.76,0,0,1,.73-.65c1.44,0,2.89,0,4.33,0Z"/><path class="cls-3" d="M107.6,19.55a5.69,5.69,0,0,1-.39,2.2,4.11,4.11,0,0,1-1.11,1.56,4.83,4.83,0,0,1-1.76.92,8.3,8.3,0,0,1-2.32.31c-.4,0-.85,0-1.38-.05a11.4,11.4,0,0,1-1.54-.21V14.83a13.15,13.15,0,0,1,1.58-.18c.55,0,1-.05,1.41-.05a8.38,8.38,0,0,1,2.26.28,4.62,4.62,0,0,1,1.74.88,3.82,3.82,0,0,1,1.12,1.54A5.85,5.85,0,0,1,107.6,19.55Zm-6.31,3.08.36,0h.48a3.2,3.2,0,0,0,2.43-.83,3.19,3.19,0,0,0,.79-2.28,3.2,3.2,0,0,0-.76-2.31,3.2,3.2,0,0,0-2.39-.78h-.46a3.19,3.19,0,0,0-.45,0Z"/><path class="cls-3" d="M108.93,20.78a4.5,4.5,0,0,1,.3-1.71,3.68,3.68,0,0,1,.79-1.22,3.38,3.38,0,0,1,1.13-.75,3.71,3.71,0,0,1,1.31-.25,3.25,3.25,0,0,1,2.48,1,4,4,0,0,1,.91,2.82c0,.12,0,.26,0,.4s0,.27,0,.38h-4.74a1.4,1.4,0,0,0,.61,1,2.41,2.41,0,0,0,1.42.38,6,6,0,0,0,1.13-.11,4.29,4.29,0,0,0,.9-.26l.28,1.7a3,3,0,0,1-.44.16,4.87,4.87,0,0,1-.63.15l-.73.11c-.26,0-.52,0-.79,0a4.52,4.52,0,0,1-1.72-.3,3.28,3.28,0,0,1-1.22-.8,3.36,3.36,0,0,1-.72-1.21A4.94,4.94,0,0,1,108.93,20.78Zm4.9-.79a2.27,2.27,0,0,0-.09-.52,1.22,1.22,0,0,0-.24-.45,1.16,1.16,0,0,0-.4-.32,1.28,1.28,0,0,0-.61-.13,1.34,1.34,0,0,0-.6.12,1.23,1.23,0,0,0-.42.32,1.26,1.26,0,0,0-.26.45,3.18,3.18,0,0,0-.14.53Z"/><path class="cls-3" d="M120.4,24.55a5.33,5.33,0,0,1-1.48-.19,2.26,2.26,0,0,1-.89-.52,1.69,1.69,0,0,1-.45-.79,4.35,4.35,0,0,1-.12-1.06V13.88l2.08-.33v8a2.49,2.49,0,0,0,0,.5.77.77,0,0,0,.16.38.82.82,0,0,0,.34.25,1.79,1.79,0,0,0,.6.13Z"/><path class="cls-3" d="M124.16,14.92a1.13,1.13,0,0,1-.37.9,1.26,1.26,0,0,1-.87.33,1.28,1.28,0,0,1-.88-.33,1.17,1.17,0,0,1-.37-.9A1.15,1.15,0,0,1,122,14a1.28,1.28,0,0,1,.88-.33,1.26,1.26,0,0,1,.87.33A1.12,1.12,0,0,1,124.16,14.92ZM124,24.41h-2.09V17.05H124Z"/><path class="cls-3" d="M127.72,24.41a35.12,35.12,0,0,1-1.46-3.27c-.49-1.26-1-2.62-1.4-4.09h2.22c.09.36.2.76.33,1.18s.26.85.39,1.29.27.85.41,1.26.27.79.4,1.12c.12-.33.25-.7.39-1.12s.28-.83.42-1.26l.39-1.29c.13-.42.24-.82.33-1.18h2.16c-.44,1.47-.91,2.83-1.4,4.09a35.26,35.26,0,0,1-1.45,3.27Z"/><path class="cls-3" d="M132.86,20.78a4.5,4.5,0,0,1,.3-1.71,3.53,3.53,0,0,1,.79-1.22,3.29,3.29,0,0,1,1.13-.75,3.67,3.67,0,0,1,1.31-.25,3.23,3.23,0,0,1,2.47,1,3.94,3.94,0,0,1,.91,2.82c0,.12,0,.26,0,.4s0,.27,0,.38H135a1.42,1.42,0,0,0,.6,1,2.45,2.45,0,0,0,1.43.38,6.1,6.1,0,0,0,1.13-.11,4.29,4.29,0,0,0,.9-.26l.28,1.7a2.8,2.8,0,0,1-.45.16,4.34,4.34,0,0,1-.62.15c-.23,0-.47.08-.74.11s-.52,0-.78,0a4.57,4.57,0,0,1-1.73-.3,3.37,3.37,0,0,1-1.22-.8,3.2,3.2,0,0,1-.71-1.21A4.94,4.94,0,0,1,132.86,20.78Zm4.9-.79a2.27,2.27,0,0,0-.09-.52,1.22,1.22,0,0,0-.24-.45,1.19,1.19,0,0,0-.41-.32,1.23,1.23,0,0,0-.61-.13,1.4,1.4,0,0,0-.6.12,1.23,1.23,0,0,0-.42.32,1.43,1.43,0,0,0-.26.45A3.16,3.16,0,0,0,135,20Z"/><path class="cls-3" d="M145.82,18.9l-.66-.15a4.12,4.12,0,0,0-.81-.08,3,3,0,0,0-.47,0,3.71,3.71,0,0,0-.41.07v5.63h-2.09v-7c.38-.13.82-.25,1.33-.37a7.39,7.39,0,0,1,1.7-.18l.4,0,.48.06.48.08.4.12Z"/><path class="cls-3" d="M154.28,17.05q-.63,2.13-1.32,4c-.46,1.24-1,2.44-1.5,3.61a9.17,9.17,0,0,1-.59,1.07,3.32,3.32,0,0,1-.65.73,2.22,2.22,0,0,1-.79.42,3.53,3.53,0,0,1-1,.13,4.16,4.16,0,0,1-.9-.09,4.08,4.08,0,0,1-.68-.2l.36-1.67a2.55,2.55,0,0,0,.57.15,3.1,3.1,0,0,0,.54,0,1.17,1.17,0,0,0,.86-.3,2.5,2.5,0,0,0,.51-.84c-.48-.93-.95-2-1.43-3.14a38.55,38.55,0,0,1-1.34-3.91h2.21c.09.36.2.76.33,1.18s.26.85.4,1.29.28.85.43,1.26.28.79.41,1.12c.12-.33.25-.7.38-1.12s.26-.83.39-1.26.25-.87.36-1.29.23-.82.32-1.18Z"/><path class="cls-3" d="M103.23,33.18c.11.14.25.31.41.53s.33.45.5.72.35.54.52.82.31.57.43.83H104c-.13-.25-.27-.51-.43-.77s-.32-.51-.48-.74-.31-.46-.47-.67l-.43-.54h-1.41v2.71h-1V29.25a6,6,0,0,1,.92-.13c.34,0,.64,0,.92,0a3.84,3.84,0,0,1,2.23.55,1.9,1.9,0,0,1,.76,1.64,1.94,1.94,0,0,1-.36,1.18A2.1,2.1,0,0,1,103.23,33.18Zm-1.47-3.25c-.41,0-.73,0-1,0v2.61h.69a6.09,6.09,0,0,0,.9,0,1.82,1.82,0,0,0,.68-.19,1,1,0,0,0,.42-.39,1.34,1.34,0,0,0,.15-.68,1.28,1.28,0,0,0-.15-.65,1.12,1.12,0,0,0-.4-.41,1.77,1.77,0,0,0-.6-.21A4.35,4.35,0,0,0,101.76,29.93Z"/><path class="cls-3" d="M105.78,33.49a3.35,3.35,0,0,1,.2-1.2,2.61,2.61,0,0,1,.53-.86,2.12,2.12,0,0,1,.76-.51,2.46,2.46,0,0,1,.88-.17,2,2,0,0,1,1.61.66,3,3,0,0,1,.56,2v.16a.91.91,0,0,1,0,.17h-3.56a1.92,1.92,0,0,0,.47,1.23,1.73,1.73,0,0,0,1.28.42,3.82,3.82,0,0,0,.83-.08,2.57,2.57,0,0,0,.5-.17l.13.78a2.9,2.9,0,0,1-.59.19,4.07,4.07,0,0,1-1,.1,3.18,3.18,0,0,1-1.17-.2,2.32,2.32,0,0,1-.82-.57,2.27,2.27,0,0,1-.47-.85A3.72,3.72,0,0,1,105.78,33.49Zm3.57-.51a1.51,1.51,0,0,0-.31-1,1.1,1.1,0,0,0-.9-.41,1.13,1.13,0,0,0-.56.13,1.46,1.46,0,0,0-.42.32,1.48,1.48,0,0,0-.26.46,2.42,2.42,0,0,0-.13.53Z"/><path class="cls-3" d="M113.22,36.18a1.74,1.74,0,0,1-1.22-.37,1.45,1.45,0,0,1-.36-1.09V28.48l.93-.16v6.25a1.84,1.84,0,0,0,0,.38.55.55,0,0,0,.13.24.57.57,0,0,0,.24.14,2.73,2.73,0,0,0,.37.07Z"/><path class="cls-3" d="M114.85,29.94a.6.6,0,0,1-.42-.16.58.58,0,0,1-.18-.45.57.57,0,0,1,.18-.44.61.61,0,0,1,.42-.17.61.61,0,0,1,.43.17.57.57,0,0,1,.17.44.57.57,0,0,1-.17.45A.6.6,0,0,1,114.85,29.94Zm.47,6.14h-.93v-5.2h.93Z"/><path class="cls-3" d="M118.6,30.75a2.63,2.63,0,0,1,1,.15,1.44,1.44,0,0,1,.62.41,1.36,1.36,0,0,1,.33.63,2.87,2.87,0,0,1,.1.8V36l-.33.06-.49.06-.58.06-.63,0a3.47,3.47,0,0,1-.81-.09,1.86,1.86,0,0,1-.64-.28,1.28,1.28,0,0,1-.42-.52,1.79,1.79,0,0,1-.15-.77,1.45,1.45,0,0,1,.18-.74,1.5,1.5,0,0,1,.47-.5,2.19,2.19,0,0,1,.7-.28,3.86,3.86,0,0,1,.84-.09l.29,0,.29,0,.23,0,.14,0v-.26a1.73,1.73,0,0,0,0-.45.91.91,0,0,0-.18-.4.82.82,0,0,0-.35-.28,1.41,1.41,0,0,0-.59-.11,3.84,3.84,0,0,0-.8.07,2.58,2.58,0,0,0-.52.13l-.11-.77a3.18,3.18,0,0,1,.6-.15A5.22,5.22,0,0,1,118.6,30.75Zm.08,4.66h.59a2.11,2.11,0,0,0,.42-.06V33.79a1.11,1.11,0,0,0-.32-.08,2.88,2.88,0,0,0-.55,0l-.44,0a1.2,1.2,0,0,0-.43.13.93.93,0,0,0-.33.26.71.71,0,0,0-.13.43.76.76,0,0,0,.32.7A1.7,1.7,0,0,0,118.68,35.41Z"/><path class="cls-3" d="M123.07,31.11a3,3,0,0,1,.52-.23,2.39,2.39,0,0,1,.79-.12,2.41,2.41,0,0,1,1,.2,2.13,2.13,0,0,1,.73.56,2.62,2.62,0,0,1,.46.86,3.85,3.85,0,0,1,.15,1.1,3.41,3.41,0,0,1-.18,1.14,2.31,2.31,0,0,1-.53.85,2.21,2.21,0,0,1-.82.54,2.85,2.85,0,0,1-1.08.19,6.63,6.63,0,0,1-1.15-.09c-.33-.06-.6-.12-.82-.18V28.48l.93-.16Zm0,4.16.4.08a5.53,5.53,0,0,0,.63,0,1.54,1.54,0,0,0,1.2-.49,2,2,0,0,0,.45-1.41,3.08,3.08,0,0,0-.08-.75,1.63,1.63,0,0,0-.26-.6,1.19,1.19,0,0,0-.46-.4,1.47,1.47,0,0,0-.69-.15,1.82,1.82,0,0,0-.7.13,2.38,2.38,0,0,0-.49.27Z"/><path class="cls-3" d="M129.59,36.18a1.74,1.74,0,0,1-1.22-.37,1.45,1.45,0,0,1-.36-1.09V28.48l.93-.16v6.25a1.84,1.84,0,0,0,0,.38.55.55,0,0,0,.13.24.57.57,0,0,0,.24.14,2.73,2.73,0,0,0,.37.07Z"/><path class="cls-3" d="M130.47,33.49a3.35,3.35,0,0,1,.2-1.2,2.61,2.61,0,0,1,.53-.86,2.12,2.12,0,0,1,.76-.51,2.46,2.46,0,0,1,.88-.17,2,2,0,0,1,1.61.66,3,3,0,0,1,.56,2v.16a.91.91,0,0,1,0,.17h-3.56a1.92,1.92,0,0,0,.47,1.23,1.73,1.73,0,0,0,1.28.42,3.82,3.82,0,0,0,.83-.08,2.57,2.57,0,0,0,.5-.17l.13.78a2.9,2.9,0,0,1-.59.19,4.07,4.07,0,0,1-1,.1,3.18,3.18,0,0,1-1.17-.2,2.32,2.32,0,0,1-.82-.57,2.27,2.27,0,0,1-.47-.85A3.72,3.72,0,0,1,130.47,33.49ZM134,33a1.51,1.51,0,0,0-.31-1,1.1,1.1,0,0,0-.9-.41,1.13,1.13,0,0,0-.56.13,1.46,1.46,0,0,0-.42.32,1.48,1.48,0,0,0-.26.46,2.42,2.42,0,0,0-.13.53Z"/><path class="cls-3" d="M138.66,31l.85-.17a7.41,7.41,0,0,1,1.22-.09,2.54,2.54,0,0,1,1,.18,1.57,1.57,0,0,1,.66.49,1.84,1.84,0,0,1,.34.75,4.19,4.19,0,0,1,.1,1v2.92h-.93V33.36a4.83,4.83,0,0,0-.06-.82,1.38,1.38,0,0,0-.22-.55.81.81,0,0,0-.4-.3,1.58,1.58,0,0,0-.62-.1h-.31l-.3,0-.26,0-.17,0v4.39h-.93Z"/><path class="cls-3" d="M146.08,30.75a2.63,2.63,0,0,1,.95.15,1.44,1.44,0,0,1,.62.41,1.46,1.46,0,0,1,.33.63,2.87,2.87,0,0,1,.1.8V36l-.33.06-.49.06-.58.06-.63,0a3.47,3.47,0,0,1-.81-.09,1.86,1.86,0,0,1-.64-.28,1.28,1.28,0,0,1-.42-.52,1.79,1.79,0,0,1-.15-.77,1.45,1.45,0,0,1,.18-.74,1.5,1.5,0,0,1,.47-.5,2.19,2.19,0,0,1,.7-.28,3.86,3.86,0,0,1,.84-.09l.29,0,.29,0,.23,0,.14,0v-.26a1.73,1.73,0,0,0,0-.45.91.91,0,0,0-.18-.4.82.82,0,0,0-.35-.28,1.41,1.41,0,0,0-.59-.11,3.84,3.84,0,0,0-.8.07,2.58,2.58,0,0,0-.52.13l-.11-.77a3.18,3.18,0,0,1,.6-.15A5.22,5.22,0,0,1,146.08,30.75Zm.08,4.66h.59a2.11,2.11,0,0,0,.42-.06V33.79a1.11,1.11,0,0,0-.32-.08,2.88,2.88,0,0,0-.55,0l-.44,0a1.2,1.2,0,0,0-.43.13.93.93,0,0,0-.33.26.71.71,0,0,0-.13.43.76.76,0,0,0,.32.7A1.7,1.7,0,0,0,146.16,35.41Z"/><path class="cls-3" d="M150.49,30.88h2v.78h-2v2.4a2.93,2.93,0,0,0,.06.65,1,1,0,0,0,.18.4.69.69,0,0,0,.3.2,1.33,1.33,0,0,0,.42.06,2.11,2.11,0,0,0,.68-.09l.35-.14.18.77a2.64,2.64,0,0,1-.49.18,2.78,2.78,0,0,1-.8.1,2.42,2.42,0,0,1-.87-.13,1.3,1.3,0,0,1-.56-.41,1.66,1.66,0,0,1-.29-.66,4.22,4.22,0,0,1-.09-.92V29.43l.93-.16Z"/><path class="cls-3" d="M154.1,29.94a.58.58,0,0,1-.6-.61.57.57,0,0,1,.18-.44.59.59,0,0,1,.42-.17.61.61,0,0,1,.43.17.57.57,0,0,1,.17.44.57.57,0,0,1-.17.45A.6.6,0,0,1,154.1,29.94Zm.47,6.14h-.93v-5.2h.93Z"/><path class="cls-3" d="M160.76,33.48a3.25,3.25,0,0,1-.18,1.12,2.6,2.6,0,0,1-.5.86,2.29,2.29,0,0,1-.78.56,2.41,2.41,0,0,1-1,.19,2.45,2.45,0,0,1-1-.19,2.16,2.16,0,0,1-.77-.56,2.46,2.46,0,0,1-.51-.86,3.54,3.54,0,0,1,0-2.23,2.5,2.5,0,0,1,.51-.87,2.13,2.13,0,0,1,.77-.55,2.45,2.45,0,0,1,1-.2,2.42,2.42,0,0,1,1,.2,2.26,2.26,0,0,1,.78.55,2.65,2.65,0,0,1,.5.87A3.23,3.23,0,0,1,160.76,33.48Zm-1,0a2.25,2.25,0,0,0-.39-1.39,1.28,1.28,0,0,0-1.08-.52,1.26,1.26,0,0,0-1.07.52,2.19,2.19,0,0,0-.4,1.39,2.22,2.22,0,0,0,.4,1.4,1.28,1.28,0,0,0,1.07.51,1.3,1.3,0,0,0,1.08-.51A2.28,2.28,0,0,0,159.79,33.48Z"/><path class="cls-3" d="M162.07,31l.85-.17a7.41,7.41,0,0,1,1.22-.09,2.54,2.54,0,0,1,1,.18,1.51,1.51,0,0,1,.66.49,1.84,1.84,0,0,1,.34.75,4.19,4.19,0,0,1,.1,1v2.92h-.93V33.36a4.83,4.83,0,0,0-.06-.82,1.38,1.38,0,0,0-.22-.55.81.81,0,0,0-.4-.3,1.58,1.58,0,0,0-.62-.1h-.31l-.3,0-.26,0-.17,0v4.39h-.93Z"/><path class="cls-3" d="M171.92,36.08c-.18-.48-.38-1-.59-1.64s-.4-1.26-.58-1.93c-.17.67-.36,1.31-.57,1.93s-.4,1.16-.59,1.64h-.81c-.3-.68-.6-1.47-.9-2.35s-.57-1.83-.83-2.85h1q.1.47.24,1c.1.37.19.74.3,1.1s.21.72.32,1.06.22.64.32.89c.12-.31.23-.64.34-1s.21-.71.31-1.06.2-.71.29-1,.17-.67.23-1h.77c.06.3.14.62.22,1s.18.69.28,1,.21.71.32,1.06.22.68.33,1c.1-.25.21-.55.32-.89s.22-.69.32-1.06.21-.73.3-1.1.18-.71.24-1h1c-.26,1-.53,2-.83,2.85a23.35,23.35,0,0,1-.9,2.35Z"/><path class="cls-3" d="M175.9,29.94a.58.58,0,0,1-.6-.61.57.57,0,0,1,.18-.44.59.59,0,0,1,.42-.17.61.61,0,0,1,.43.17.57.57,0,0,1,.17.44.57.57,0,0,1-.17.45A.6.6,0,0,1,175.9,29.94Zm.47,6.14h-.93v-5.2h.93Z"/><path class="cls-3" d="M181.33,28.48l.93-.16v7.61a8.33,8.33,0,0,1-.82.18,6.47,6.47,0,0,1-1.15.09,2.85,2.85,0,0,1-1.08-.19,2.3,2.3,0,0,1-.82-.54,2.43,2.43,0,0,1-.52-.85,3.17,3.17,0,0,1-.19-1.14,3.52,3.52,0,0,1,.16-1.1,2.43,2.43,0,0,1,.45-.86A2.17,2.17,0,0,1,179,31a2.4,2.4,0,0,1,1-.2,2.45,2.45,0,0,1,.8.12,2.54,2.54,0,0,1,.51.23Zm0,3.5a1.94,1.94,0,0,0-.49-.27,1.75,1.75,0,0,0-.7-.13,1.45,1.45,0,0,0-.68.15,1.21,1.21,0,0,0-.47.4,1.82,1.82,0,0,0-.26.6,3.67,3.67,0,0,0-.08.75,2,2,0,0,0,.45,1.41,1.54,1.54,0,0,0,1.2.49,5.6,5.6,0,0,0,.64,0,3.22,3.22,0,0,0,.39-.08Z"/><path class="cls-3" d="M183.57,33.49a3.35,3.35,0,0,1,.2-1.2,2.61,2.61,0,0,1,.53-.86,2.12,2.12,0,0,1,.76-.51,2.46,2.46,0,0,1,.88-.17,2,2,0,0,1,1.61.66,3,3,0,0,1,.56,2v.16a.91.91,0,0,1,0,.17h-3.56A1.92,1.92,0,0,0,185,35a1.73,1.73,0,0,0,1.28.42,3.89,3.89,0,0,0,.83-.08,2.57,2.57,0,0,0,.5-.17l.13.78a2.9,2.9,0,0,1-.59.19,4.13,4.13,0,0,1-1,.1A3.18,3.18,0,0,1,185,36a2.32,2.32,0,0,1-.82-.57,2.27,2.27,0,0,1-.47-.85A3.42,3.42,0,0,1,183.57,33.49Zm3.57-.51a1.56,1.56,0,0,0-.31-1,1.1,1.1,0,0,0-.9-.41,1.13,1.13,0,0,0-.56.13A1.34,1.34,0,0,0,185,32a1.48,1.48,0,0,0-.26.46,2,2,0,0,0-.13.53Z"/><path class="cls-3" d="M195.12,28.48l.93-.16v7.61a8.33,8.33,0,0,1-.82.18,6.47,6.47,0,0,1-1.15.09A2.85,2.85,0,0,1,193,36a2.3,2.3,0,0,1-.82-.54,2.43,2.43,0,0,1-.52-.85,3.17,3.17,0,0,1-.19-1.14,3.52,3.52,0,0,1,.16-1.1,2.43,2.43,0,0,1,.45-.86,2.17,2.17,0,0,1,.74-.56,2.4,2.4,0,0,1,1-.2,2.45,2.45,0,0,1,.8.12,2.54,2.54,0,0,1,.51.23Zm0,3.5a1.94,1.94,0,0,0-.49-.27,1.75,1.75,0,0,0-.7-.13,1.45,1.45,0,0,0-.68.15,1.21,1.21,0,0,0-.47.4,1.82,1.82,0,0,0-.26.6,3.67,3.67,0,0,0-.08.75,2,2,0,0,0,.45,1.41,1.54,1.54,0,0,0,1.2.49,5.6,5.6,0,0,0,.64,0,3.22,3.22,0,0,0,.39-.08Z"/><path class="cls-3" d="M197.36,33.49a3.35,3.35,0,0,1,.2-1.2,2.61,2.61,0,0,1,.53-.86,2.12,2.12,0,0,1,.76-.51,2.46,2.46,0,0,1,.88-.17,2,2,0,0,1,1.61.66,3,3,0,0,1,.56,2v.16a.91.91,0,0,1,0,.17h-3.56A1.92,1.92,0,0,0,198.8,35a1.73,1.73,0,0,0,1.28.42,3.89,3.89,0,0,0,.83-.08,2.57,2.57,0,0,0,.5-.17l.13.78a2.9,2.9,0,0,1-.59.19,4.13,4.13,0,0,1-1,.1,3.18,3.18,0,0,1-1.17-.2,2.32,2.32,0,0,1-.82-.57,2.27,2.27,0,0,1-.47-.85A3.42,3.42,0,0,1,197.36,33.49Zm3.57-.51a1.56,1.56,0,0,0-.31-1,1.1,1.1,0,0,0-.9-.41,1.13,1.13,0,0,0-.56.13,1.34,1.34,0,0,0-.42.32,1.48,1.48,0,0,0-.26.46,2,2,0,0,0-.13.53Z"/><path class="cls-3" d="M204.8,36.18a1.74,1.74,0,0,1-1.22-.37,1.45,1.45,0,0,1-.36-1.09V28.48l.93-.16v6.25a1.84,1.84,0,0,0,0,.38.55.55,0,0,0,.13.24.57.57,0,0,0,.24.14,2.73,2.73,0,0,0,.37.07Z"/><path class="cls-3" d="M206.43,29.94a.58.58,0,0,1-.6-.61.57.57,0,0,1,.18-.44.59.59,0,0,1,.42-.17.61.61,0,0,1,.43.17.6.6,0,0,1,.17.44.61.61,0,0,1-.17.45A.6.6,0,0,1,206.43,29.94Zm.47,6.14H206v-5.2h.93Z"/><path class="cls-3" d="M212.56,30.88a25.49,25.49,0,0,1-.91,2.8q-.53,1.34-1,2.4h-.84c-.32-.71-.66-1.51-1-2.4a25.5,25.5,0,0,1-.92-2.8h1c.08.33.18.68.29,1.05s.22.73.35,1.1.25.71.37,1,.25.65.36.91c.12-.26.24-.57.36-.91s.25-.69.38-1,.24-.73.35-1.1.2-.72.28-1.05Z"/><path class="cls-3" d="M213.09,33.49a3.35,3.35,0,0,1,.2-1.2,2.61,2.61,0,0,1,.53-.86,2,2,0,0,1,.76-.51,2.46,2.46,0,0,1,.88-.17,2,2,0,0,1,1.61.66,3,3,0,0,1,.56,2v.16a.91.91,0,0,1,0,.17h-3.56a1.92,1.92,0,0,0,.47,1.23,1.73,1.73,0,0,0,1.28.42,3.89,3.89,0,0,0,.83-.08,2.57,2.57,0,0,0,.5-.17l.13.78a2.9,2.9,0,0,1-.59.19,4.13,4.13,0,0,1-1,.1,3.18,3.18,0,0,1-1.17-.2,2.32,2.32,0,0,1-.82-.57,2.27,2.27,0,0,1-.47-.85A3.42,3.42,0,0,1,213.09,33.49Zm3.57-.51a1.56,1.56,0,0,0-.31-1,1.1,1.1,0,0,0-.9-.41,1.13,1.13,0,0,0-.56.13,1.23,1.23,0,0,0-.42.32,1.48,1.48,0,0,0-.26.46,2,2,0,0,0-.13.53Z"/><path class="cls-3" d="M220.89,30.77l.28,0,.3,0,.28.05.18,0-.16.81a1.82,1.82,0,0,0-.36-.09,3,3,0,0,0-.66-.06,2.22,2.22,0,0,0-.51.06l-.34.07v4.37H219v-5a6.25,6.25,0,0,1,.82-.22A5.32,5.32,0,0,1,220.89,30.77Z"/><path class="cls-3" d="M222.43,37.05a2.39,2.39,0,0,0,.29.1,1.32,1.32,0,0,0,.34,0,1.35,1.35,0,0,0,.86-.24,2,2,0,0,0,.56-.8c-.42-.8-.81-1.65-1.17-2.54a21.31,21.31,0,0,1-.91-2.73h1c.08.3.16.63.27,1s.22.71.34,1.07.27.73.41,1.1.3.72.46,1.06a21.69,21.69,0,0,0,.66-2.08c.19-.68.37-1.39.53-2.12h1c-.24,1-.5,1.92-.8,2.83s-.61,1.74-.95,2.53a5.61,5.61,0,0,1-.41.78,2.47,2.47,0,0,1-.48.53,1.8,1.8,0,0,1-.58.31,2.41,2.41,0,0,1-.74.1h-.23l-.23,0-.21-.06-.14-.05Z"/></svg>