<svg id="Layer_1" data-name="Layer 1" xmlns="http://www.w3.org/2000/svg" viewBox="0 0 248 50"><defs><style>.cls-1{fill:#f60;}.cls-2{fill:#ff8939;}.cls-3{fill:#fff;}</style></defs><title>obejor</title><rect class="cls-1" y="-4" width="252" height="58.51"/><rect class="cls-2" y="0.27" width="78" height="50"/><path class="cls-3" d="M37.25,31,30.1,25l0-.05.53.16c1,.33,2.05.65,3.07,1a2.39,2.39,0,0,0,3.13-2.53,2.29,2.29,0,0,0-1.22-1.83l-3.15-1.77-.21-.13,10-12,8.41,7.06Zm2.3-15.09a3.28,3.28,0,0,0-3.34,3.23,3.82,3.82,0,0,0,4.26,3.79,3.26,3.26,0,0,0,2.88-3.1A3.84,3.84,0,0,0,39.55,15.86Z"/><path class="cls-3" d="M53.85,39.62l-1.65.15-3.75.35-2.38.22a.22.22,0,0,1-.2-.09A2.86,2.86,0,0,0,43.21,39c-1.83,0-3.65,0-5.48,0a6.07,6.07,0,0,1-3.36-1,15.32,15.32,0,0,1-2.17-1.76c-1-.85-1.91-1.7-2.88-2.53a1.5,1.5,0,0,1,1.81-2.38c1.38,1,2.76,1.92,4.15,2.86a4.37,4.37,0,0,0,2.55.76h5.25a.83.83,0,0,0,.27,0,.41.41,0,0,0,.31-.42.42.42,0,0,0-.34-.42,1.53,1.53,0,0,0-.3,0H39.78a1.37,1.37,0,0,1-1.39-1.26,1.32,1.32,0,0,1,1.12-1.49,1.06,1.06,0,0,1,.25,0c2.3,0,4.6,0,6.91,0a5.64,5.64,0,0,1,3,.73,5.73,5.73,0,0,1,1.87,2.13,27.07,27.07,0,0,1,1.66,3.78Z"/><path class="cls-3" d="M35.55,14.35l-1,1.23c-.75.89-1.5,1.78-2.24,2.68a.43.43,0,0,1-.35.16c-.3,0-.6,0-.91,0a.87.87,0,0,0-.86.61.85.85,0,0,0,.44,1c1.51.85,3,1.69,4.53,2.55a1.4,1.4,0,0,1,0,2.44,1.26,1.26,0,0,1-1.08.14c-1.75-.55-3.51-1.12-5.27-1.69a3.75,3.75,0,0,1-1.61-1.14c-.17-.17-.33-.35-.51-.51a1,1,0,0,0-.95-.22l-2.22.57-.24.06V22q0-3.24,0-6.5c0-.22.05-.32.29-.29A2.87,2.87,0,0,0,24.75,15c1.38-.41,2.77-.8,4.16-1.2a5.6,5.6,0,0,1,2.54-.16Z"/><path class="cls-3" d="M22.23,23.7H20.94l-.87-9.35h2.16Z"/><path class="cls-3" d="M45.42,42.73V41.45l9.36-.87v2.15Z"/><path class="cls-3" d="M37.93,17.32l.41.34c.24-.17.47-.32.71-.46a.21.21,0,0,1,.19,0l.49.68c-.26.2-.51.37-.75.57a.81.81,0,0,0-.21.31A.18.18,0,0,0,39,19c.22-.08.41-.19.62-.28a3.53,3.53,0,0,1,.56-.25,1.14,1.14,0,0,1,1.23.3,1.17,1.17,0,0,1,.3,1.27.47.47,0,0,0,.21.65.75.75,0,0,1,.18.15l-.56.66-.45-.35-1,.63L39.51,21l.21-.11a1.84,1.84,0,0,0,.89-.74c0-.09.06-.27,0-.32a.4.4,0,0,0-.34-.06,5.4,5.4,0,0,0-.49.23,3.32,3.32,0,0,1-.77.3,1.12,1.12,0,0,1-1.31-1.39c.1-.39.06-.64-.29-.83,0,0,0,0-.05-.06Z"/><path class="cls-3" d="M101,14.1a6.07,6.07,0,0,1,3.34.77,2.7,2.7,0,0,1,1.16,2.42A2.76,2.76,0,0,1,105,19a3.16,3.16,0,0,1-1.36,1c.2.24.41.52.62.83s.43.64.64,1,.41.7.61,1.07.37.73.54,1.08H103.6l-.54-1c-.18-.32-.37-.64-.56-1s-.38-.6-.57-.87-.38-.53-.56-.75h-1.08v3.54H98.1V14.35a13.89,13.89,0,0,1,1.48-.2C100.09,14.12,100.54,14.1,101,14.1Zm.12,1.86h-.42l-.36,0v2.63h.61a3.68,3.68,0,0,0,1.77-.31,1.1,1.1,0,0,0,.53-1,1.07,1.07,0,0,0-.54-1A3.35,3.35,0,0,0,101.07,16Z"/><path class="cls-3" d="M106.6,20.28a4.5,4.5,0,0,1,.3-1.71,3.68,3.68,0,0,1,.79-1.22,3.38,3.38,0,0,1,1.13-.75,3.71,3.71,0,0,1,1.31-.25,3.25,3.25,0,0,1,2.48,1,4,4,0,0,1,.91,2.82c0,.12,0,.26,0,.4s0,.27,0,.38h-4.74a1.4,1.4,0,0,0,.61,1,2.41,2.41,0,0,0,1.42.38,6,6,0,0,0,1.13-.11,4.29,4.29,0,0,0,.9-.26l.28,1.7a3,3,0,0,1-.44.16A4.87,4.87,0,0,1,112,24l-.73.11c-.26,0-.52,0-.79,0a4.52,4.52,0,0,1-1.72-.3,3.28,3.28,0,0,1-1.22-.8,3.36,3.36,0,0,1-.72-1.21A4.94,4.94,0,0,1,106.6,20.28Zm4.9-.79a2.27,2.27,0,0,0-.09-.52,1.22,1.22,0,0,0-.24-.45,1.16,1.16,0,0,0-.4-.32,1.28,1.28,0,0,0-.61-.13,1.34,1.34,0,0,0-.6.12,1.23,1.23,0,0,0-.42.32,1.26,1.26,0,0,0-.26.45,3.18,3.18,0,0,0-.14.53Z"/><path class="cls-3" d="M115.06,14.71l2.08-.33v2.17h2.51v1.73h-2.51v2.59a2,2,0,0,0,.24,1.05,1,1,0,0,0,.93.4,4.25,4.25,0,0,0,.69-.07,3.85,3.85,0,0,0,.65-.17l.29,1.62a6.93,6.93,0,0,1-.84.27,5.07,5.07,0,0,1-1.13.11,3.78,3.78,0,0,1-1.41-.23,2.18,2.18,0,0,1-.9-.65,2.38,2.38,0,0,1-.47-1,5.78,5.78,0,0,1-.13-1.3Z"/><path class="cls-3" d="M127.63,23.66a12.13,12.13,0,0,1-1.37.29,12.48,12.48,0,0,1-1.77.13,4.39,4.39,0,0,1-1.56-.25,2.42,2.42,0,0,1-1-.71,2.63,2.63,0,0,1-.52-1.09,5.94,5.94,0,0,1-.16-1.38v-4.1h2.09V20.4a2.93,2.93,0,0,0,.27,1.45,1,1,0,0,0,1,.45l.48,0,.44-.05V16.55h2.09Z"/><path class="cls-3" d="M134,18.4l-.66-.15a4.12,4.12,0,0,0-.81-.08,2.88,2.88,0,0,0-.47,0,3.71,3.71,0,0,0-.41.07v5.63h-2.09v-7a13.15,13.15,0,0,1,1.32-.37,7.45,7.45,0,0,1,1.7-.18l.41,0,.48.06.47.08.41.12Z"/><path class="cls-3" d="M135.5,16.8a12.13,12.13,0,0,1,1.37-.29,11.12,11.12,0,0,1,1.76-.13,4.33,4.33,0,0,1,1.56.24,2.37,2.37,0,0,1,1,.7,2.7,2.7,0,0,1,.52,1.06,5.81,5.81,0,0,1,.15,1.37v4.16h-2.08V20a2.77,2.77,0,0,0-.27-1.43,1.09,1.09,0,0,0-1-.42,4,4,0,0,0-.48,0l-.45.05v5.68H135.5Z"/><path class="cls-3" d="M154,20.23a5.33,5.33,0,0,1-.21,1.55,3.55,3.55,0,0,1-.62,1.21,2.85,2.85,0,0,1-1,.78,3.26,3.26,0,0,1-1.39.28,4.12,4.12,0,0,1-.81-.08,4.46,4.46,0,0,1-.73-.24V26.5H147.1V16.8a6.19,6.19,0,0,1,.65-.16c.24-.05.5-.1.76-.13l.81-.1.79,0a4.6,4.6,0,0,1,1.63.27,3.31,3.31,0,0,1,1.2.77,3.26,3.26,0,0,1,.75,1.21A4.75,4.75,0,0,1,154,20.23Zm-2.13.05a2.51,2.51,0,0,0-.43-1.54,1.5,1.5,0,0,0-1.29-.58,4.27,4.27,0,0,0-.52,0,2.9,2.9,0,0,0-.39.05V22a1.51,1.51,0,0,0,.51.21,2.3,2.3,0,0,0,.64.09C151.33,22.29,151.82,21.62,151.82,20.28Z"/><path class="cls-3" d="M162.45,20.22a5,5,0,0,1-.25,1.58,3.73,3.73,0,0,1-.73,1.24,3.38,3.38,0,0,1-1.14.79,4,4,0,0,1-1.5.28,3.85,3.85,0,0,1-1.47-.28,3.29,3.29,0,0,1-1.14-.79,3.59,3.59,0,0,1-.74-1.24,4.79,4.79,0,0,1,0-3.17,3.71,3.71,0,0,1,.76-1.22,3.44,3.44,0,0,1,1.15-.78,3.59,3.59,0,0,1,1.44-.28,3.7,3.7,0,0,1,1.47.28,3.5,3.5,0,0,1,1.14.78,3.66,3.66,0,0,1,.74,1.22A4.5,4.5,0,0,1,162.45,20.22Zm-2.13,0a2.59,2.59,0,0,0-.39-1.52,1.25,1.25,0,0,0-1.1-.56,1.27,1.27,0,0,0-1.1.56,2.59,2.59,0,0,0-.39,1.52,2.67,2.67,0,0,0,.39,1.53,1.26,1.26,0,0,0,1.1.57,1.24,1.24,0,0,0,1.1-.57A2.67,2.67,0,0,0,160.32,20.22Z"/><path class="cls-3" d="M167,24.05a5.33,5.33,0,0,1-1.48-.19,2.3,2.3,0,0,1-.9-.52,1.59,1.59,0,0,1-.44-.79,4.35,4.35,0,0,1-.12-1.06V13.38l2.08-.33v8a2.49,2.49,0,0,0,.05.5.77.77,0,0,0,.16.38.82.82,0,0,0,.34.25,1.79,1.79,0,0,0,.6.13Z"/><path class="cls-3" d="M170.76,14.42a1.13,1.13,0,0,1-.37.9,1.33,1.33,0,0,1-1.75,0,1.13,1.13,0,0,1-.37-.9,1.12,1.12,0,0,1,.37-.9,1.33,1.33,0,0,1,1.75,0A1.12,1.12,0,0,1,170.76,14.42Zm-.19,9.49h-2.09V16.55h2.09Z"/><path class="cls-3" d="M172.18,20.23a4.21,4.21,0,0,1,.26-1.51,3.64,3.64,0,0,1,.74-1.23,3.53,3.53,0,0,1,1.2-.83,3.79,3.79,0,0,1,1.59-.31,5.1,5.1,0,0,1,2,.41l-.43,1.66a5,5,0,0,0-.65-.19,3.1,3.1,0,0,0-.78-.09,1.63,1.63,0,0,0-1.38.58,2.36,2.36,0,0,0-.46,1.51,2.49,2.49,0,0,0,.43,1.54,1.81,1.81,0,0,0,1.49.55,4.93,4.93,0,0,0,.82-.08,3.28,3.28,0,0,0,.79-.22l.3,1.71a5,5,0,0,1-.91.26,5.7,5.7,0,0,1-1.21.12,4.5,4.5,0,0,1-1.73-.3,3.28,3.28,0,0,1-1.2-.82,3.38,3.38,0,0,1-.69-1.23A5.34,5.34,0,0,1,172.18,20.23Z"/><path class="cls-3" d="M186.19,16.55q-.63,2.13-1.32,4c-.46,1.24-1,2.44-1.5,3.61a7.9,7.9,0,0,1-.59,1.07,3.56,3.56,0,0,1-.64.73,2.36,2.36,0,0,1-.8.42,3.49,3.49,0,0,1-1,.13,4.22,4.22,0,0,1-.9-.09,4.39,4.39,0,0,1-.68-.2l.36-1.67a2.62,2.62,0,0,0,.58.15,2.89,2.89,0,0,0,.53,0,1.17,1.17,0,0,0,.86-.3,2.5,2.5,0,0,0,.51-.84c-.47-.93-.95-2-1.43-3.14a41.18,41.18,0,0,1-1.34-3.91H181c.09.36.2.76.33,1.18s.26.85.4,1.29.29.85.43,1.26.29.79.42,1.12c.12-.33.24-.7.38-1.12s.26-.83.38-1.26.25-.87.37-1.29.22-.82.31-1.18Z"/><path class="cls-3" d="M99.61,35.58a9.87,9.87,0,0,1,.29-1.68,13.8,13.8,0,0,1,.55-1.72,13.13,13.13,0,0,1,.73-1.55,7.18,7.18,0,0,1,.77-1.17H98.58v-.81H103v.77a8,8,0,0,0-.73,1,13.77,13.77,0,0,0-.75,1.49,12.54,12.54,0,0,0-.61,1.76,9.29,9.29,0,0,0-.32,1.86Z"/><path class="cls-3" d="M110.09,28l.93-.16v7.61a8.33,8.33,0,0,1-.82.18,6.47,6.47,0,0,1-1.15.09,2.85,2.85,0,0,1-1.08-.19,2.3,2.3,0,0,1-.82-.54,2.43,2.43,0,0,1-.52-.85,3.41,3.41,0,0,1-.19-1.14,3.84,3.84,0,0,1,.16-1.1,2.43,2.43,0,0,1,.45-.86,2.17,2.17,0,0,1,.74-.56,2.4,2.4,0,0,1,1-.2,2.45,2.45,0,0,1,.8.12,2.54,2.54,0,0,1,.51.23Zm0,3.5a1.94,1.94,0,0,0-.49-.27,1.75,1.75,0,0,0-.7-.13,1.45,1.45,0,0,0-.68.15,1.21,1.21,0,0,0-.47.4,1.82,1.82,0,0,0-.26.6,3.67,3.67,0,0,0-.08.75,2,2,0,0,0,.45,1.41,1.54,1.54,0,0,0,1.2.49,5.6,5.6,0,0,0,.64,0,3.22,3.22,0,0,0,.39-.08Z"/><path class="cls-3" d="M114.3,30.25a2.63,2.63,0,0,1,1,.15,1.44,1.44,0,0,1,.62.41,1.36,1.36,0,0,1,.33.63,2.87,2.87,0,0,1,.1.8v3.25l-.33.06-.49.06-.58.06-.63,0a3.47,3.47,0,0,1-.81-.09,1.86,1.86,0,0,1-.64-.28,1.28,1.28,0,0,1-.42-.52,1.79,1.79,0,0,1-.15-.77,1.45,1.45,0,0,1,.18-.74,1.5,1.5,0,0,1,.47-.5,2.19,2.19,0,0,1,.7-.28,3.86,3.86,0,0,1,.84-.09l.29,0,.29,0,.23,0,.14,0v-.26a1.73,1.73,0,0,0,0-.45.91.91,0,0,0-.18-.4.82.82,0,0,0-.35-.28,1.41,1.41,0,0,0-.59-.11,3.84,3.84,0,0,0-.8.07,2.58,2.58,0,0,0-.52.13l-.11-.77a3.18,3.18,0,0,1,.6-.15A5.22,5.22,0,0,1,114.3,30.25Zm.08,4.66H115a2.11,2.11,0,0,0,.42-.06V33.29a1.11,1.11,0,0,0-.32-.08,2.88,2.88,0,0,0-.55,0l-.44,0a1.2,1.2,0,0,0-.43.13.93.93,0,0,0-.33.26.71.71,0,0,0-.13.43.76.76,0,0,0,.32.7A1.7,1.7,0,0,0,114.38,34.91Z"/><path class="cls-3" d="M117.08,36.55a2.39,2.39,0,0,0,.29.1,1.37,1.37,0,0,0,.34,0,1.35,1.35,0,0,0,.86-.24,2,2,0,0,0,.56-.8c-.42-.8-.81-1.65-1.17-2.54a23,23,0,0,1-.91-2.73h1c.08.3.17.63.27,1s.22.71.34,1.07.27.73.41,1.1.3.72.46,1.06a21.69,21.69,0,0,0,.66-2.08c.19-.68.37-1.39.53-2.12h1c-.24,1-.5,1.92-.8,2.83s-.61,1.74-.95,2.53a5.61,5.61,0,0,1-.41.78,2.24,2.24,0,0,1-.48.53,1.71,1.71,0,0,1-.58.31,2.41,2.41,0,0,1-.74.1h-.23l-.23,0-.21-.06-.14-.05Z"/><path class="cls-3" d="M123.87,34.91a1.84,1.84,0,0,0,.85-.15.51.51,0,0,0,.27-.48.64.64,0,0,0-.27-.54,4.44,4.44,0,0,0-.89-.45l-.57-.24a2.8,2.8,0,0,1-.48-.3,1.3,1.3,0,0,1-.32-.41,1.45,1.45,0,0,1,.39-1.68,2.19,2.19,0,0,1,1.39-.41,3.15,3.15,0,0,1,.44,0,2.37,2.37,0,0,1,.41.06l.34.07.22.07-.17.8a2.07,2.07,0,0,0-.47-.16,2.86,2.86,0,0,0-.77-.09,1.37,1.37,0,0,0-.68.16.51.51,0,0,0-.29.48.7.7,0,0,0,.07.3.64.64,0,0,0,.2.24,1.69,1.69,0,0,0,.33.19c.14.06.3.13.48.19l.66.28a2,2,0,0,1,.5.31,1.14,1.14,0,0,1,.31.44,1.43,1.43,0,0,1,.11.62,1.22,1.22,0,0,1-.53,1.09,2.66,2.66,0,0,1-1.53.37,4.31,4.31,0,0,1-1.08-.11l-.53-.18.17-.8.51.18A3,3,0,0,0,123.87,34.91Z"/><path class="cls-3" d="M131.35,30.27l.28,0,.3,0,.28.05.18,0-.16.81a1.82,1.82,0,0,0-.36-.09,3,3,0,0,0-.66-.06,2.22,2.22,0,0,0-.51.06l-.34.07v4.37h-.93v-5a6.71,6.71,0,0,1,.82-.22A5.32,5.32,0,0,1,131.35,30.27Z"/><path class="cls-3" d="M133,33a3.35,3.35,0,0,1,.2-1.2,2.61,2.61,0,0,1,.53-.86,2.12,2.12,0,0,1,.76-.51,2.46,2.46,0,0,1,.88-.17,2,2,0,0,1,1.61.66,3,3,0,0,1,.56,2v.16a.91.91,0,0,1,0,.17H134a1.92,1.92,0,0,0,.47,1.23,1.73,1.73,0,0,0,1.28.42,3.82,3.82,0,0,0,.83-.08,2.57,2.57,0,0,0,.5-.17l.13.78a2.9,2.9,0,0,1-.59.19,4.07,4.07,0,0,1-1,.1,3.18,3.18,0,0,1-1.17-.2,2.32,2.32,0,0,1-.82-.57,2.27,2.27,0,0,1-.47-.85A3.72,3.72,0,0,1,133,33Zm3.57-.51a1.51,1.51,0,0,0-.31-1,1.1,1.1,0,0,0-.9-.41,1.13,1.13,0,0,0-.56.13,1.46,1.46,0,0,0-.42.32,1.48,1.48,0,0,0-.26.46,2.42,2.42,0,0,0-.13.53Z"/><path class="cls-3" d="M139.75,30.38h2v.78h-2v2.4a2.93,2.93,0,0,0,.06.65,1,1,0,0,0,.18.4.69.69,0,0,0,.3.2,1.33,1.33,0,0,0,.42.06,2.11,2.11,0,0,0,.68-.09l.35-.14.18.77a2.64,2.64,0,0,1-.49.18,2.78,2.78,0,0,1-.8.1,2.42,2.42,0,0,1-.87-.13,1.3,1.3,0,0,1-.56-.41,1.66,1.66,0,0,1-.29-.66,4.22,4.22,0,0,1-.09-.92V28.93l.93-.16Z"/><path class="cls-3" d="M147,35.43c-.21,0-.49.11-.84.17a7.33,7.33,0,0,1-1.22.09,2.73,2.73,0,0,1-1-.17,1.75,1.75,0,0,1-.66-.5,2.18,2.18,0,0,1-.36-.75,4.17,4.17,0,0,1-.11-1V30.38h.93V33.1a2.36,2.36,0,0,0,.3,1.36,1.18,1.18,0,0,0,1,.41h.31l.3,0,.26,0,.16,0V30.38H147Z"/><path class="cls-3" d="M150.56,30.27l.28,0,.3,0,.28.05.18,0-.16.81a1.82,1.82,0,0,0-.36-.09,3,3,0,0,0-.66-.06,2.22,2.22,0,0,0-.51.06l-.34.07v4.37h-.93v-5a6.71,6.71,0,0,1,.82-.22A5.32,5.32,0,0,1,150.56,30.27Z"/><path class="cls-3" d="M152.5,30.53l.85-.17a7.41,7.41,0,0,1,1.22-.09,2.54,2.54,0,0,1,1,.18,1.57,1.57,0,0,1,.66.49,1.84,1.84,0,0,1,.34.75,4.19,4.19,0,0,1,.1,1v2.92h-.93V32.86a4.83,4.83,0,0,0-.06-.82,1.38,1.38,0,0,0-.22-.55.81.81,0,0,0-.4-.3,1.58,1.58,0,0,0-.62-.1h-.31l-.3,0-.26,0-.17,0v4.39h-.93Z"/><path class="cls-3" d="M165.13,33a3.73,3.73,0,0,1-.15,1.09,2.62,2.62,0,0,1-.46.86,2,2,0,0,1-.73.56,2.26,2.26,0,0,1-1,.2,2.58,2.58,0,0,1-1.31-.35v2.08h-.93V30.54l.83-.17a5.56,5.56,0,0,1,1.14-.1,3.06,3.06,0,0,1,1.08.19,2.34,2.34,0,0,1,.82.54,2.41,2.41,0,0,1,.53.86A3.31,3.31,0,0,1,165.13,33Zm-1,0a2,2,0,0,0-.45-1.4,1.57,1.57,0,0,0-1.2-.49,5.32,5.32,0,0,0-.65,0l-.38.07v3.28a2.38,2.38,0,0,0,.49.27,1.82,1.82,0,0,0,.7.13,1.6,1.6,0,0,0,.69-.14,1.27,1.27,0,0,0,.46-.4,1.63,1.63,0,0,0,.26-.6A3,3,0,0,0,164.16,33Z"/><path class="cls-3" d="M171,33a3.25,3.25,0,0,1-.18,1.12,2.6,2.6,0,0,1-.5.86,2.29,2.29,0,0,1-.78.56,2.41,2.41,0,0,1-1,.19,2.45,2.45,0,0,1-1-.19,2.16,2.16,0,0,1-.77-.56,2.46,2.46,0,0,1-.51-.86,3.54,3.54,0,0,1,0-2.23,2.5,2.5,0,0,1,.51-.87,2.13,2.13,0,0,1,.77-.55,2.45,2.45,0,0,1,1-.2,2.42,2.42,0,0,1,1,.2,2.26,2.26,0,0,1,.78.55,2.65,2.65,0,0,1,.5.87A3.23,3.23,0,0,1,171,33Zm-1,0a2.25,2.25,0,0,0-.39-1.39,1.28,1.28,0,0,0-1.08-.52,1.26,1.26,0,0,0-1.07.52,2.19,2.19,0,0,0-.4,1.39,2.22,2.22,0,0,0,.4,1.4,1.28,1.28,0,0,0,1.07.51,1.3,1.3,0,0,0,1.08-.51A2.28,2.28,0,0,0,170.06,33Z"/><path class="cls-3" d="M173.9,35.68a1.74,1.74,0,0,1-1.22-.37,1.45,1.45,0,0,1-.36-1.09V28l.93-.16v6.25a1.84,1.84,0,0,0,0,.38.55.55,0,0,0,.13.24.57.57,0,0,0,.24.14,2.73,2.73,0,0,0,.37.07Z"/><path class="cls-3" d="M175.53,29.44a.58.58,0,0,1-.6-.61.57.57,0,0,1,.18-.44.59.59,0,0,1,.42-.17.61.61,0,0,1,.43.17.6.6,0,0,1,.17.44.61.61,0,0,1-.17.45A.6.6,0,0,1,175.53,29.44Zm.47,6.14h-.93v-5.2H176Z"/><path class="cls-3" d="M179.86,35.7a2.67,2.67,0,0,1-1.1-.2,2.1,2.1,0,0,1-.8-.56,2.31,2.31,0,0,1-.49-.85,3.79,3.79,0,0,1-.16-1.1,3.25,3.25,0,0,1,.18-1.1A2.51,2.51,0,0,1,178,31a2.14,2.14,0,0,1,.79-.57,2.46,2.46,0,0,1,1-.21,4,4,0,0,1,.7.06,2.88,2.88,0,0,1,.67.19l-.21.79a2.7,2.7,0,0,0-.48-.16,2.81,2.81,0,0,0-.59-.06,1.45,1.45,0,0,0-1.19.49,2.14,2.14,0,0,0-.42,1.43,2.66,2.66,0,0,0,.1.77,1.54,1.54,0,0,0,.3.6,1.28,1.28,0,0,0,.52.39,2.06,2.06,0,0,0,.78.13,2.76,2.76,0,0,0,.67-.07,1.73,1.73,0,0,0,.47-.15l.13.78a.71.71,0,0,1-.23.1l-.34.08-.4.06Z"/><path class="cls-3" d="M181.75,36.55a2.39,2.39,0,0,0,.29.1,1.32,1.32,0,0,0,.34,0,1.35,1.35,0,0,0,.86-.24,2,2,0,0,0,.56-.8c-.42-.8-.81-1.65-1.17-2.54a21.31,21.31,0,0,1-.91-2.73h1c.08.3.16.63.27,1s.22.71.34,1.07.27.73.41,1.1.3.72.46,1.06a21.69,21.69,0,0,0,.66-2.08c.19-.68.37-1.39.53-2.12h1c-.24,1-.5,1.92-.8,2.83s-.61,1.74-1,2.53a5.61,5.61,0,0,1-.41.78,2.47,2.47,0,0,1-.48.53,1.8,1.8,0,0,1-.58.31,2.41,2.41,0,0,1-.74.1h-.23l-.23,0-.21-.06-.14-.05Z"/></svg>