<svg id="Layer_1" data-name="Layer 1" xmlns="http://www.w3.org/2000/svg" viewBox="0 0 248 50"><defs><style>.cls-1{fill:#f60;}.cls-2{fill:#ff8939;}.cls-3{fill:#fff;}</style></defs><title>obejor</title><rect class="cls-1" y="-3" width="254" height="56.36"/><rect class="cls-2" y="0.37" width="78" height="50"/><path class="cls-3" d="M35.67,33.49a3.29,3.29,0,0,0-.51-2.62l.3,0H46.81c.39,0,.39,0,.45-.37q.87-4.92,1.72-9.86l.48-2.71a.85.85,0,0,1,.94-.78c2,0,4,0,5.93,0,.43,0,.55.09.69.5.6,1.89,1.21,3.77,1.8,5.66a1.55,1.55,0,0,1,0,.71c-.38,2.16-.77,4.32-1.15,6.48l-.06.32c.52.25.58.35.49.91-.06.35-.12.71-.19,1.06a.83.83,0,0,1-.85.71h-1.2a8.46,8.46,0,0,0,0-1.13,3.2,3.2,0,0,0-3.61-2.78,4.87,4.87,0,0,0-4.22,3.71c0,.21-.16.2-.32.2H35.67Zm21.87-9.86a1.05,1.05,0,0,0-.06-.21c-.51-1.61-1-3.21-1.54-4.82,0-.16-.14-.17-.27-.17H50.88c-.17,0-.24,0-.27.22-.15.94-.32,1.87-.48,2.81-.13.72-.25,1.43-.37,2.17Z"/><path class="cls-3" d="M31.33,36.12a2.16,2.16,0,0,1-2.21-2.52,3.31,3.31,0,0,1,2.68-2.71,2.18,2.18,0,0,1,2.51,2.84A3.22,3.22,0,0,1,31.33,36.12Zm-.95-2.48a1,1,0,0,0,.91,1.08,1.59,1.59,0,0,0,1.76-1.47,1,1,0,0,0-.78-1A1.58,1.58,0,0,0,30.38,33.64Z"/><path class="cls-3" d="M54.61,33.1a3.19,3.19,0,0,1-3.4,3,2.18,2.18,0,0,1-1.78-2.92,3.19,3.19,0,0,1,2.75-2.32A2.13,2.13,0,0,1,54.61,33.1Zm-1.35.13a1,1,0,0,0-.88-1,1.58,1.58,0,0,0-1.76,1.23,1.06,1.06,0,0,0,1,1.33A1.59,1.59,0,0,0,53.26,33.23Z"/><path class="cls-3" d="M29.17,31a4.84,4.84,0,0,0-1.37,2.54H24.52c-.48,0-.7-.26-.63-.74s.12-.8.2-1.19a.74.74,0,0,1,.72-.65c1.44,0,2.88,0,4.32,0C29.14,30.91,29.15,30.92,29.17,31Z"/><path class="cls-3" d="M48.5,14.63H27.28c-.11,0-.22,0-.24.15-.1.58-.21,1.16-.32,1.8H30.9a.66.66,0,0,1,.74.64.67.67,0,0,1-.74.65H16.63a.65.65,0,0,0-.66.57.64.64,0,0,0,.46.69,1.23,1.23,0,0,0,.33,0H26l.32,0c-.11.65-.22,1.27-.33,1.93h6.4l.54-2.53h2.4l-.21,1H33.7l-.33,1.55h.25a.7.7,0,0,1,.25.05h.68l-.21,1h-.21a.74.74,0,0,1-.5.26H33.1l-.49,2.32h-1l.5-2.32H19.25a.67.67,0,0,0-.65.66.66.66,0,0,0,.65.63H25.5c-.11.67-.22,1.29-.33,1.95h5.65a1.27,1.27,0,0,1,.34,0,.63.63,0,0,1,.47.7.65.65,0,0,1-.69.56H21.28a1,1,0,0,0-.46.12.61.61,0,0,0-.25.7.67.67,0,0,0,.67.47h3.4c-.07.44-.13.85-.2,1.27l.23,0H45.79c.23,0,.31-.08.34-.3.07-.45.16-.91.24-1.37l2.19-12.23c0-.33.1-.65.16-1Zm-11,10.09H36.35l-.14-2.64h-.06l-.56,2.64h-1l1.3-6.14h1.34c.67,0,1,.29,1,.88a2,2,0,0,1-.06.45l-.19.9a1.31,1.31,0,0,1-.89,1.08Zm3.25-2.58H39.52l-.34,1.6h1.38l-.21,1H38l1.3-6.14h2.41l-.21,1H40.07l-.34,1.6h1.19Zm3.79-2.58H43.11l-.33,1.6H44l-.21,1H42.57l-.34,1.6h1.38l-.21,1H41l1.3-6.14h2.4Z"/><path class="cls-3" d="M36.92,19.56h-.23l-.34,1.6h.12a1,1,0,0,0,.22,0,.4.4,0,0,0,.26-.33l.19-.9a.69.69,0,0,0,0-.13C37.16,19.63,37.08,19.56,36.92,19.56Z"/><path class="cls-3" d="M99.1,24v-9.7h6.5v1.84h-4.31v2h3.83V20h-3.83v4Z"/><path class="cls-3" d="M111.16,18.47l-.66-.15a4.12,4.12,0,0,0-.81-.08,4.7,4.7,0,0,0-.47,0,2.1,2.1,0,0,0-.41.08V24h-2.09V17a13.15,13.15,0,0,1,1.32-.37,7.48,7.48,0,0,1,1.7-.17,3.1,3.1,0,0,1,.41,0l.48.05.47.09a1.83,1.83,0,0,1,.41.12Z"/><path class="cls-3" d="M112.14,20.36a4.52,4.52,0,0,1,.3-1.72,3.53,3.53,0,0,1,.79-1.22,3.12,3.12,0,0,1,1.13-.74,3.48,3.48,0,0,1,1.31-.26,3.23,3.23,0,0,1,2.47,1,3.94,3.94,0,0,1,.91,2.82c0,.12,0,.26,0,.4s0,.28,0,.39h-4.73a1.4,1.4,0,0,0,.6,1,2.45,2.45,0,0,0,1.43.38,6.1,6.1,0,0,0,1.13-.11,3.76,3.76,0,0,0,.9-.26l.28,1.7a4,4,0,0,1-.45.17c-.18.05-.39.1-.62.14s-.47.08-.74.11a6.79,6.79,0,0,1-.78,0,4.78,4.78,0,0,1-1.73-.29,3.52,3.52,0,0,1-1.22-.81,3.13,3.13,0,0,1-.71-1.21A4.92,4.92,0,0,1,112.14,20.36Zm4.9-.8A2.27,2.27,0,0,0,117,19a1.22,1.22,0,0,0-.24-.45,1.33,1.33,0,0,0-.41-.32,1.35,1.35,0,0,0-.61-.12,1.57,1.57,0,0,0-.6.11,1.23,1.23,0,0,0-.42.32,1.43,1.43,0,0,0-.26.45,3.41,3.41,0,0,0-.13.53Z"/><path class="cls-3" d="M120.31,20.36a4.51,4.51,0,0,1,.31-1.72,3.53,3.53,0,0,1,.79-1.22,3.09,3.09,0,0,1,1.12-.74,3.52,3.52,0,0,1,1.31-.26,3.25,3.25,0,0,1,2.48,1,3.94,3.94,0,0,1,.91,2.82c0,.12,0,.26,0,.4s0,.28,0,.39h-4.73a1.34,1.34,0,0,0,.6,1,2.43,2.43,0,0,0,1.43.38,5.91,5.91,0,0,0,1.12-.11,4,4,0,0,0,.91-.26l.28,1.7c-.12.05-.26.11-.45.17l-.62.14-.74.11a6.79,6.79,0,0,1-.78,0,4.75,4.75,0,0,1-1.73-.29,3.43,3.43,0,0,1-1.22-.81,3.13,3.13,0,0,1-.71-1.21A4.64,4.64,0,0,1,120.31,20.36Zm4.9-.8a1.83,1.83,0,0,0-.09-.52,1.37,1.37,0,0,0-.23-.45,1.46,1.46,0,0,0-.41-.32,1.38,1.38,0,0,0-.61-.12,1.57,1.57,0,0,0-.6.11,1.23,1.23,0,0,0-.42.32,1.43,1.43,0,0,0-.26.45,2.56,2.56,0,0,0-.13.53Z"/><path class="cls-3" d="M135,22.32a3.22,3.22,0,0,0,.76-.08,1.34,1.34,0,0,0,.48-.21.67.67,0,0,0,.25-.31,1.1,1.1,0,0,0,.07-.41.92.92,0,0,0-.44-.79,6.46,6.46,0,0,0-1.54-.68,9.66,9.66,0,0,1-1-.39,3.41,3.41,0,0,1-.85-.54,2.73,2.73,0,0,1-.62-.8,2.6,2.6,0,0,1-.23-1.14,2.79,2.79,0,0,1,.25-1.21,2.56,2.56,0,0,1,.71-.92,3.39,3.39,0,0,1,1.12-.58,5.27,5.27,0,0,1,1.49-.2,6,6,0,0,1,1.69.21,5.93,5.93,0,0,1,1.18.46l-.63,1.72a6.39,6.39,0,0,0-.91-.37,3.81,3.81,0,0,0-1.19-.16,2.14,2.14,0,0,0-1.13.22.71.71,0,0,0-.34.66.79.79,0,0,0,.12.45,1.45,1.45,0,0,0,.36.33,2.38,2.38,0,0,0,.53.26c.2.08.42.17.67.25.5.19.94.37,1.31.55a3.31,3.31,0,0,1,.93.64,2.42,2.42,0,0,1,.56.85,3.51,3.51,0,0,1,.18,1.19,2.54,2.54,0,0,1-.95,2.11,4.6,4.6,0,0,1-2.87.75,8.27,8.27,0,0,1-1.17-.08,6.29,6.29,0,0,1-.91-.19,5,5,0,0,1-.69-.23l-.48-.24.61-1.74a5.64,5.64,0,0,0,1.08.43A5.73,5.73,0,0,0,135,22.32Z"/><path class="cls-3" d="M140.35,24V13.46l2.08-.34v3.53a5.11,5.11,0,0,1,.54-.14,3.55,3.55,0,0,1,.64-.06,3.8,3.8,0,0,1,1.49.25,2.19,2.19,0,0,1,1,.69,2.68,2.68,0,0,1,.51,1.06,5.86,5.86,0,0,1,.14,1.38V24h-2.08v-3.9a2.92,2.92,0,0,0-.26-1.43,1,1,0,0,0-1-.42,2.78,2.78,0,0,0-.52.05l-.45.1V24Z"/><path class="cls-3" d="M150.88,14.49a1.13,1.13,0,0,1-.38.9,1.24,1.24,0,0,1-.87.33,1.28,1.28,0,0,1-.88-.33,1.15,1.15,0,0,1-.37-.9,1.17,1.17,0,0,1,.37-.9,1.28,1.28,0,0,1,.88-.33,1.24,1.24,0,0,1,.87.33A1.14,1.14,0,0,1,150.88,14.49Zm-.2,9.49h-2.09V16.62h2.09Z"/><path class="cls-3" d="M159.49,20.3a5.45,5.45,0,0,1-.21,1.56,3.59,3.59,0,0,1-.62,1.2,2.67,2.67,0,0,1-1,.78,3.18,3.18,0,0,1-1.38.28,3.62,3.62,0,0,1-.82-.08,4.34,4.34,0,0,1-.72-.24v2.77h-2.09v-9.7c.19-.05.4-.11.64-.16s.5-.1.77-.13.53-.07.81-.09a7.21,7.21,0,0,1,.79,0,4.51,4.51,0,0,1,1.62.27,3.49,3.49,0,0,1,1.21.77,3.58,3.58,0,0,1,.75,1.22A4.65,4.65,0,0,1,159.49,20.3Zm-2.13.06a2.52,2.52,0,0,0-.44-1.55,1.48,1.48,0,0,0-1.28-.58l-.52,0a2.9,2.9,0,0,0-.39.05v3.77a2.06,2.06,0,0,0,.51.21,2.72,2.72,0,0,0,.63.08C156.86,22.36,157.36,21.69,157.36,20.36Z"/><path class="cls-3" d="M167.94,20.3a5.45,5.45,0,0,1-.21,1.56,3.58,3.58,0,0,1-.61,1.2,2.75,2.75,0,0,1-1,.78,3.23,3.23,0,0,1-1.39.28,3.48,3.48,0,0,1-.81-.08,4.46,4.46,0,0,1-.73-.24v2.77H161.1v-9.7c.18-.05.4-.11.64-.16s.5-.1.76-.13l.81-.09a7.39,7.39,0,0,1,.8,0,4.59,4.59,0,0,1,1.62.27,3.35,3.35,0,0,1,1.2.77,3.3,3.3,0,0,1,.75,1.22A4.65,4.65,0,0,1,167.94,20.3Zm-2.13.06a2.52,2.52,0,0,0-.43-1.55,1.5,1.5,0,0,0-1.29-.58l-.52,0a2.9,2.9,0,0,0-.39.05v3.77a2.06,2.06,0,0,0,.51.21,2.74,2.74,0,0,0,.64.08C165.32,22.36,165.81,21.69,165.81,20.36Z"/><path class="cls-3" d="M171.83,14.49a1.12,1.12,0,0,1-.37.9,1.33,1.33,0,0,1-1.75,0,1.12,1.12,0,0,1-.37-.9,1.13,1.13,0,0,1,.37-.9,1.33,1.33,0,0,1,1.75,0A1.13,1.13,0,0,1,171.83,14.49ZM171.64,24h-2.09V16.62h2.09Z"/><path class="cls-3" d="M173.6,16.87a12.13,12.13,0,0,1,1.37-.29,12.45,12.45,0,0,1,1.76-.13,4.11,4.11,0,0,1,1.56.25,2.27,2.27,0,0,1,1,.69,2.7,2.7,0,0,1,.52,1.06,5.83,5.83,0,0,1,.15,1.38V24h-2.08v-3.9a2.79,2.79,0,0,0-.27-1.43,1.09,1.09,0,0,0-1-.42l-.48,0-.45.05V24H173.6Z"/><path class="cls-3" d="M188.2,23.06a3.55,3.55,0,0,1-.92,2.68,4,4,0,0,1-2.83.88,7.7,7.7,0,0,1-1.35-.12,8.63,8.63,0,0,1-1.24-.32l.36-1.75a6.83,6.83,0,0,0,1,.31,6.46,6.46,0,0,0,1.23.11,1.68,1.68,0,0,0,1.26-.39,1.4,1.4,0,0,0,.37-1v-.26a3.29,3.29,0,0,1-.69.23,3.84,3.84,0,0,1-.78.07,3,3,0,0,1-2.33-.9,3.6,3.6,0,0,1-.82-2.53,4,4,0,0,1,.26-1.47,2.94,2.94,0,0,1,.73-1.14,3.25,3.25,0,0,1,1.18-.74,4.65,4.65,0,0,1,1.59-.26,6.74,6.74,0,0,1,.77,0c.27,0,.53.05.79.09s.51.08.75.13.45.11.64.16Zm-4.58-3c0,1.17.47,1.75,1.42,1.75a2,2,0,0,0,.6-.08,2.29,2.29,0,0,0,.47-.2V18.2l-.36-.05-.49,0a1.42,1.42,0,0,0-1.23.55A2.24,2.24,0,0,0,183.62,20.06Z"/><path class="cls-3" d="M101.81,27.89a3.62,3.62,0,0,1,.71.06,2.68,2.68,0,0,1,.41.11l-.17.8a1.94,1.94,0,0,0-.34-.11,2,2,0,0,0-.54-.06,1.06,1.06,0,0,0-.91.36,1.6,1.6,0,0,0-.26.95v.45h2v.78h-2v4.42h-.93V30a2.26,2.26,0,0,1,.49-1.54A2,2,0,0,1,101.81,27.89Z"/><path class="cls-3" d="M108.23,33.05a3.25,3.25,0,0,1-.18,1.12,2.44,2.44,0,0,1-.5.86,2.29,2.29,0,0,1-.78.56,2.41,2.41,0,0,1-1,.19,2.45,2.45,0,0,1-1-.19A2.25,2.25,0,0,1,104,35a2.46,2.46,0,0,1-.51-.86,3.25,3.25,0,0,1-.18-1.12,3.31,3.31,0,0,1,.18-1.11,2.5,2.5,0,0,1,.51-.87,2.22,2.22,0,0,1,.77-.55,2.45,2.45,0,0,1,1-.2,2.42,2.42,0,0,1,1,.2,2.26,2.26,0,0,1,.78.55,2.48,2.48,0,0,1,.5.87A3.31,3.31,0,0,1,108.23,33.05Zm-1,0a2.25,2.25,0,0,0-.39-1.39,1.37,1.37,0,0,0-2.15,0,2.63,2.63,0,0,0,0,2.79,1.39,1.39,0,0,0,2.15,0A2.26,2.26,0,0,0,107.26,33.05Z"/><path class="cls-3" d="M111.46,30.34l.28,0,.3,0,.28.05.18,0-.16.81-.36-.09a3,3,0,0,0-.66-.06,2.22,2.22,0,0,0-.51.06l-.34.07v4.37h-.93v-5a6.71,6.71,0,0,1,.82-.22A5.32,5.32,0,0,1,111.46,30.34Z"/><path class="cls-3" d="M117.39,30.32a2.63,2.63,0,0,1,1,.15,1.53,1.53,0,0,1,.62.41,1.41,1.41,0,0,1,.33.63,2.87,2.87,0,0,1,.1.8v3.25l-.33.06-.49.06-.58.06c-.21,0-.42,0-.63,0a3.47,3.47,0,0,1-.81-.09,1.86,1.86,0,0,1-.64-.28,1.28,1.28,0,0,1-.42-.52,1.79,1.79,0,0,1-.15-.77,1.47,1.47,0,0,1,.18-.74,1.5,1.5,0,0,1,.47-.5,2.44,2.44,0,0,1,.7-.28,3.86,3.86,0,0,1,.84-.09l.29,0,.29,0,.23,0,.14,0v-.26a1.73,1.73,0,0,0,0-.45,1,1,0,0,0-.18-.4.82.82,0,0,0-.35-.28,1.41,1.41,0,0,0-.59-.11,4.67,4.67,0,0,0-.8.07,3.51,3.51,0,0,0-.52.13l-.11-.77a3.18,3.18,0,0,1,.6-.15A5.22,5.22,0,0,1,117.39,30.32Zm.08,4.66h.59a2.11,2.11,0,0,0,.42-.06V33.36a1.11,1.11,0,0,0-.32-.08,4,4,0,0,0-.55,0l-.44,0a1.44,1.44,0,0,0-.43.13.93.93,0,0,0-.33.26.71.71,0,0,0-.13.43.76.76,0,0,0,.32.7A1.7,1.7,0,0,0,117.47,35Z"/><path class="cls-3" d="M122.49,35.75a1.74,1.74,0,0,1-1.22-.37,1.45,1.45,0,0,1-.36-1.09V28.05l.93-.16v6.25a1.84,1.84,0,0,0,0,.38.55.55,0,0,0,.13.24.57.57,0,0,0,.24.14,2.73,2.73,0,0,0,.37.07Z"/><path class="cls-3" d="M125.22,35.75a1.74,1.74,0,0,1-1.22-.37,1.45,1.45,0,0,1-.36-1.09V28.05l.93-.16v6.25a1.84,1.84,0,0,0,0,.38.55.55,0,0,0,.13.24.57.57,0,0,0,.24.14,2.73,2.73,0,0,0,.37.07Z"/><path class="cls-3" d="M133.29,33.05a3.25,3.25,0,0,1-.18,1.12,2.44,2.44,0,0,1-.5.86,2.29,2.29,0,0,1-.78.56,2.41,2.41,0,0,1-1,.19,2.45,2.45,0,0,1-1-.19,2.16,2.16,0,0,1-.77-.56,2.46,2.46,0,0,1-.51-.86,3.25,3.25,0,0,1-.18-1.12,3.31,3.31,0,0,1,.18-1.11,2.5,2.5,0,0,1,.51-.87,2.13,2.13,0,0,1,.77-.55,2.45,2.45,0,0,1,1-.2,2.42,2.42,0,0,1,1,.2,2.26,2.26,0,0,1,.78.55,2.48,2.48,0,0,1,.5.87A3.31,3.31,0,0,1,133.29,33.05Zm-1,0a2.25,2.25,0,0,0-.39-1.39,1.37,1.37,0,0,0-2.15,0,2.63,2.63,0,0,0,0,2.79,1.39,1.39,0,0,0,2.15,0A2.26,2.26,0,0,0,132.32,33.05Z"/><path class="cls-3" d="M136.52,30.34l.28,0,.3,0,.28.05.18,0-.16.81-.36-.09a3,3,0,0,0-.66-.06,2.22,2.22,0,0,0-.51.06l-.34.07v4.37h-.93v-5a6.71,6.71,0,0,1,.82-.22A5.32,5.32,0,0,1,136.52,30.34Z"/><path class="cls-3" d="M141.82,28.05l.93-.16V35.5a8.33,8.33,0,0,1-.82.18,6.47,6.47,0,0,1-1.15.09,2.85,2.85,0,0,1-1.08-.19,2.17,2.17,0,0,1-.82-.54,2.34,2.34,0,0,1-.52-.85,3.17,3.17,0,0,1-.19-1.14,3.52,3.52,0,0,1,.16-1.1,2.43,2.43,0,0,1,.45-.86,2.17,2.17,0,0,1,.74-.56,2.4,2.4,0,0,1,1-.2,2.45,2.45,0,0,1,.8.12,2.54,2.54,0,0,1,.51.23Zm0,3.5a2,2,0,0,0-1.19-.4,1.45,1.45,0,0,0-.68.15,1.31,1.31,0,0,0-.47.4,1.82,1.82,0,0,0-.26.6,3.67,3.67,0,0,0-.08.75,2,2,0,0,0,.45,1.41,1.54,1.54,0,0,0,1.2.49,5.6,5.6,0,0,0,.64,0,2,2,0,0,0,.39-.08Z"/><path class="cls-3" d="M144.06,33.06a3.35,3.35,0,0,1,.2-1.2,2.72,2.72,0,0,1,.53-.86,2.42,2.42,0,0,1,.76-.51,2.46,2.46,0,0,1,.88-.17A2,2,0,0,1,148,31a3,3,0,0,1,.56,2v.16a.91.91,0,0,1,0,.17H145a1.92,1.92,0,0,0,.47,1.23,1.73,1.73,0,0,0,1.28.42,3.28,3.28,0,0,0,.83-.08,2.57,2.57,0,0,0,.5-.17l.13.78a2.37,2.37,0,0,1-.59.19,4.07,4.07,0,0,1-1,.1,3,3,0,0,1-1.17-.2,2.32,2.32,0,0,1-.82-.57,2.27,2.27,0,0,1-.47-.85A3.72,3.72,0,0,1,144.06,33.06Zm3.57-.51a1.51,1.51,0,0,0-.31-1,1.1,1.1,0,0,0-.9-.41,1.25,1.25,0,0,0-.56.13,1.46,1.46,0,0,0-.42.32,1.61,1.61,0,0,0-.26.46,2.56,2.56,0,0,0-.13.53Z"/><path class="cls-3" d="M151.86,30.34l.28,0,.3,0,.28.05.18,0-.16.81-.36-.09a3,3,0,0,0-.66-.06,2.22,2.22,0,0,0-.51.06l-.34.07v4.37h-.93v-5a6.71,6.71,0,0,1,.82-.22A5.32,5.32,0,0,1,151.86,30.34Z"/><path class="cls-3" d="M155,35a1.87,1.87,0,0,0,.85-.15.51.51,0,0,0,.27-.48.65.65,0,0,0-.27-.54,4.44,4.44,0,0,0-.89-.45l-.57-.24a1.78,1.78,0,0,1-.48-.3,1.23,1.23,0,0,1-.44-1,1.32,1.32,0,0,1,.51-1.09,2.19,2.19,0,0,1,1.39-.41,3.15,3.15,0,0,1,.44,0,4,4,0,0,1,.41.06l.34.07.22.07-.17.8a2.73,2.73,0,0,0-.47-.16,2.86,2.86,0,0,0-.77-.09,1.48,1.48,0,0,0-.68.16.51.51,0,0,0-.29.48.56.56,0,0,0,.07.3.64.64,0,0,0,.2.24,1.69,1.69,0,0,0,.33.19c.14.06.3.13.48.19l.66.28a2,2,0,0,1,.5.31,1.25,1.25,0,0,1,.31.44,1.46,1.46,0,0,1,.11.62,1.24,1.24,0,0,1-.53,1.09,2.66,2.66,0,0,1-1.53.37,3.89,3.89,0,0,1-1.08-.11l-.53-.18.17-.8.51.18A3,3,0,0,0,155,35Z"/><path class="cls-3" d="M165.16,33.05a3.25,3.25,0,0,1-.18,1.12,2.44,2.44,0,0,1-.5.86,2.29,2.29,0,0,1-.78.56,2.41,2.41,0,0,1-1,.19,2.45,2.45,0,0,1-1-.19A2.16,2.16,0,0,1,161,35a2.46,2.46,0,0,1-.51-.86,3.25,3.25,0,0,1-.18-1.12,3.31,3.31,0,0,1,.18-1.11,2.5,2.5,0,0,1,.51-.87,2.13,2.13,0,0,1,.77-.55,2.45,2.45,0,0,1,1-.2,2.42,2.42,0,0,1,1,.2,2.26,2.26,0,0,1,.78.55,2.48,2.48,0,0,1,.5.87A3.31,3.31,0,0,1,165.16,33.05Zm-1,0a2.25,2.25,0,0,0-.39-1.39,1.37,1.37,0,0,0-2.15,0,2.63,2.63,0,0,0,0,2.79,1.39,1.39,0,0,0,2.15,0A2.26,2.26,0,0,0,164.19,33.05Z"/><path class="cls-3" d="M170.39,30.45a25.49,25.49,0,0,1-.91,2.8q-.53,1.35-1,2.4h-.84c-.32-.7-.66-1.5-1-2.4a25.5,25.5,0,0,1-.92-2.8h1c.08.33.18.68.29,1.05s.23.74.35,1.1.25.71.37,1,.25.65.36.91c.12-.26.24-.57.36-.91s.25-.69.38-1,.24-.73.35-1.1.2-.72.28-1.05Z"/><path class="cls-3" d="M170.92,33.06a3.35,3.35,0,0,1,.2-1.2,2.72,2.72,0,0,1,.53-.86,2.42,2.42,0,0,1,.76-.51,2.46,2.46,0,0,1,.88-.17,2,2,0,0,1,1.61.66,3,3,0,0,1,.56,2v.16a.91.91,0,0,1,0,.17h-3.56a1.92,1.92,0,0,0,.47,1.23,1.73,1.73,0,0,0,1.28.42,3.28,3.28,0,0,0,.83-.08,2.57,2.57,0,0,0,.5-.17l.13.78a2.37,2.37,0,0,1-.59.19,4.13,4.13,0,0,1-1,.1,3,3,0,0,1-1.17-.2,2.32,2.32,0,0,1-.82-.57,2.27,2.27,0,0,1-.47-.85A3.42,3.42,0,0,1,170.92,33.06Zm3.57-.51a1.56,1.56,0,0,0-.31-1,1.1,1.1,0,0,0-.9-.41,1.25,1.25,0,0,0-.56.13,1.34,1.34,0,0,0-.42.32A1.61,1.61,0,0,0,172,32a2.05,2.05,0,0,0-.13.53Z"/><path class="cls-3" d="M178.72,30.34l.28,0,.3,0,.28.05.18,0-.16.81-.36-.09a3,3,0,0,0-.66-.06,2.22,2.22,0,0,0-.51.06l-.34.07v4.37h-.93v-5a6.71,6.71,0,0,1,.82-.22A5.32,5.32,0,0,1,178.72,30.34Z"/><path class="cls-3" d="M189.5,33.25c.13-.29.3-.63.52-1s.47-.79.75-1.21.57-.82.89-1.22a11.43,11.43,0,0,1,1-1.08h.89v4.4h.82v.76h-.82v1.77h-.9V33.88h-3.1Zm3.1-3.43q-.3.33-.6.72c-.21.26-.4.54-.6.82s-.37.58-.54.88-.32.6-.46.88h2.2Z"/><path class="cls-3" d="M195.24,32.18a4.9,4.9,0,0,1,.62-2.68,2,2,0,0,1,3.41,0,4.9,4.9,0,0,1,.61,2.68,4.88,4.88,0,0,1-.61,2.68,2,2,0,0,1-3.41,0A4.87,4.87,0,0,1,195.24,32.18Zm3.66,0a9.25,9.25,0,0,0-.06-1.08,4.14,4.14,0,0,0-.22-.89,1.58,1.58,0,0,0-.42-.6.93.93,0,0,0-.64-.23,1,1,0,0,0-.64.23,1.56,1.56,0,0,0-.41.6,3.22,3.22,0,0,0-.22.89,8.37,8.37,0,0,0,0,2.16,3.14,3.14,0,0,0,.22.89,1.53,1.53,0,0,0,.41.61,1,1,0,0,0,.64.22.92.92,0,0,0,.64-.22,1.54,1.54,0,0,0,.42-.61,4,4,0,0,0,.22-.89A9.25,9.25,0,0,0,198.9,32.18Z"/><path class="cls-3" d="M200.88,32.18a4.9,4.9,0,0,1,.62-2.68,2,2,0,0,1,3.41,0,4.9,4.9,0,0,1,.61,2.68,4.88,4.88,0,0,1-.61,2.68,2,2,0,0,1-3.41,0A4.87,4.87,0,0,1,200.88,32.18Zm3.66,0a9.25,9.25,0,0,0-.06-1.08,4.14,4.14,0,0,0-.22-.89,1.69,1.69,0,0,0-.42-.6.93.93,0,0,0-.64-.23,1,1,0,0,0-.64.23,1.56,1.56,0,0,0-.41.6,3.22,3.22,0,0,0-.22.89,8.37,8.37,0,0,0,0,2.16,3.14,3.14,0,0,0,.22.89,1.53,1.53,0,0,0,.41.61,1,1,0,0,0,.64.22.92.92,0,0,0,.64-.22,1.65,1.65,0,0,0,.42-.61,4,4,0,0,0,.22-.89A9.25,9.25,0,0,0,204.54,32.18Z"/><path class="cls-3" d="M207.8,34.51a.92.92,0,0,1,0,.16v.15a4.45,4.45,0,0,1-.18,1.25,5.53,5.53,0,0,1-.51,1.17L206.4,37a3.34,3.34,0,0,0,.33-1,5.82,5.82,0,0,0,.08-1v-.25c0-.08,0-.15,0-.23Z"/><path class="cls-3" d="M209,32.18a4.9,4.9,0,0,1,.62-2.68,2,2,0,0,1,3.41,0,4.9,4.9,0,0,1,.61,2.68,4.88,4.88,0,0,1-.61,2.68,2,2,0,0,1-3.41,0A4.87,4.87,0,0,1,209,32.18Zm3.66,0a9.25,9.25,0,0,0-.06-1.08,4.14,4.14,0,0,0-.22-.89,1.58,1.58,0,0,0-.42-.6.93.93,0,0,0-.64-.23,1,1,0,0,0-.64.23,1.56,1.56,0,0,0-.41.6,3.22,3.22,0,0,0-.22.89,8.37,8.37,0,0,0,0,2.16,3.14,3.14,0,0,0,.22.89,1.53,1.53,0,0,0,.41.61,1,1,0,0,0,.64.22.92.92,0,0,0,.64-.22,1.54,1.54,0,0,0,.42-.61,4,4,0,0,0,.22-.89A9.25,9.25,0,0,0,212.64,32.18Z"/><path class="cls-3" d="M214.62,32.18a4.9,4.9,0,0,1,.62-2.68,2,2,0,0,1,3.41,0,4.9,4.9,0,0,1,.61,2.68,4.88,4.88,0,0,1-.61,2.68,2,2,0,0,1-3.41,0A4.87,4.87,0,0,1,214.62,32.18Zm3.66,0a9.25,9.25,0,0,0-.06-1.08,4.14,4.14,0,0,0-.22-.89,1.69,1.69,0,0,0-.42-.6.93.93,0,0,0-.64-.23,1,1,0,0,0-.64.23,1.56,1.56,0,0,0-.41.6,3.22,3.22,0,0,0-.22.89,8.37,8.37,0,0,0,0,2.16,3.14,3.14,0,0,0,.22.89,1.53,1.53,0,0,0,.41.61,1,1,0,0,0,.64.22.92.92,0,0,0,.64-.22,1.65,1.65,0,0,0,.42-.61,4,4,0,0,0,.22-.89A9.25,9.25,0,0,0,218.28,32.18Z"/><path class="cls-3" d="M220.26,32.18a4.9,4.9,0,0,1,.62-2.68,2,2,0,0,1,3.41,0,4.9,4.9,0,0,1,.61,2.68,4.88,4.88,0,0,1-.61,2.68,2,2,0,0,1-3.41,0A4.87,4.87,0,0,1,220.26,32.18Zm3.66,0a9.25,9.25,0,0,0-.06-1.08,4.14,4.14,0,0,0-.22-.89,1.69,1.69,0,0,0-.42-.6,1,1,0,0,0-.64-.23,1,1,0,0,0-.64.23,1.56,1.56,0,0,0-.41.6,3.22,3.22,0,0,0-.22.89,8.37,8.37,0,0,0,0,2.16,3.14,3.14,0,0,0,.22.89,1.53,1.53,0,0,0,.41.61,1,1,0,0,0,.64.22.94.94,0,0,0,.64-.22,1.65,1.65,0,0,0,.42-.61,4,4,0,0,0,.22-.89A9.25,9.25,0,0,0,223.92,32.18Z"/><path class="cls-3" d="M188.35,33.8h-.47v2h-.77l-1.15-2h-1.83v2h-.72v-2H183v-.75h.46V32H183v-.76h.46v-2h.77l1.16,2h1.82v-2h.72v2h.47V32h-.47v1.07h.47Zm-3.88-2.58-.34-.59v.59Zm1.05,1.83L184.91,32h-.78v1.07Zm1.64,0V32h-1.39l.62,1.07Zm0,1.35v-.6h-.34Z"/></svg>