<svg id="Layer_1" data-name="Layer 1" xmlns="http://www.w3.org/2000/svg" viewBox="0 0 248 50"><defs><style>.cls-1{fill:#f60;}.cls-2{fill:#ff8939;}.cls-3{fill:#fff;}</style></defs><title>obejor</title><rect class="cls-1" y="-0.13" width="248" height="50"/><rect class="cls-2" y="0.27" width="78" height="50"/><path class="cls-3" d="M37.25,31,30.1,25l0-.05.53.16c1,.33,2.05.65,3.07,1a2.39,2.39,0,0,0,3.13-2.53,2.29,2.29,0,0,0-1.22-1.83l-3.15-1.77-.21-.13,10-12,8.41,7.06Zm2.3-15.09a3.28,3.28,0,0,0-3.34,3.23,3.82,3.82,0,0,0,4.26,3.79,3.26,3.26,0,0,0,2.88-3.1A3.84,3.84,0,0,0,39.55,15.86Z"/><path class="cls-3" d="M53.85,39.62l-1.65.15-3.75.35-2.38.22a.22.22,0,0,1-.2-.09A2.86,2.86,0,0,0,43.21,39c-1.83,0-3.65,0-5.48,0a6.07,6.07,0,0,1-3.36-1,15.32,15.32,0,0,1-2.17-1.76c-1-.85-1.91-1.7-2.88-2.53a1.5,1.5,0,0,1,1.81-2.38c1.38,1,2.76,1.92,4.15,2.86a4.37,4.37,0,0,0,2.55.76h5.25a.83.83,0,0,0,.27,0,.41.41,0,0,0,.31-.42.42.42,0,0,0-.34-.42,1.53,1.53,0,0,0-.3,0H39.78a1.37,1.37,0,0,1-1.39-1.26,1.32,1.32,0,0,1,1.12-1.49,1.06,1.06,0,0,1,.25,0c2.3,0,4.6,0,6.91,0a5.64,5.64,0,0,1,3,.73,5.73,5.73,0,0,1,1.87,2.13,27.07,27.07,0,0,1,1.66,3.78Z"/><path class="cls-3" d="M35.55,14.35l-1,1.23c-.75.89-1.5,1.78-2.24,2.68a.43.43,0,0,1-.35.16c-.3,0-.6,0-.91,0a.87.87,0,0,0-.86.61.85.85,0,0,0,.44,1c1.51.85,3,1.69,4.53,2.55a1.4,1.4,0,0,1,0,2.44,1.26,1.26,0,0,1-1.08.14c-1.75-.55-3.51-1.12-5.27-1.69a3.75,3.75,0,0,1-1.61-1.14c-.17-.17-.33-.35-.51-.51a1,1,0,0,0-.95-.22l-2.22.57-.24.06V22q0-3.24,0-6.5c0-.22.05-.32.29-.29A2.87,2.87,0,0,0,24.75,15c1.38-.41,2.77-.8,4.16-1.2a5.6,5.6,0,0,1,2.54-.16Z"/><path class="cls-3" d="M22.23,23.7H20.94l-.87-9.35h2.16Z"/><path class="cls-3" d="M45.42,42.73V41.45l9.36-.87v2.15Z"/><path class="cls-3" d="M101,14.48a6,6,0,0,1,3.34.78,2.68,2.68,0,0,1,1.16,2.41,2.72,2.72,0,0,1-.46,1.66,3.09,3.09,0,0,1-1.36,1c.2.25.41.53.62.84s.43.64.64,1,.41.69.61,1.06.37.73.54,1.09H103.6l-.54-1c-.18-.33-.37-.64-.56-.95s-.38-.6-.57-.88-.38-.52-.56-.75h-1.08V24.3H98.1V14.74a11.72,11.72,0,0,1,1.48-.2C100.09,14.5,100.54,14.48,101,14.48Zm.12,1.86-.42,0-.36,0V19h.61a3.68,3.68,0,0,0,1.77-.31,1.11,1.11,0,0,0,.53-1.05,1.06,1.06,0,0,0-.54-1A3.33,3.33,0,0,0,101.07,16.34Z"/><path class="cls-3" d="M106.6,20.67a4.5,4.5,0,0,1,.3-1.71,3.83,3.83,0,0,1,.79-1.23,3.35,3.35,0,0,1,1.13-.74,3.5,3.5,0,0,1,1.31-.25,3.25,3.25,0,0,1,2.48,1,4,4,0,0,1,.91,2.82c0,.12,0,.25,0,.4s0,.27,0,.38h-4.74a1.38,1.38,0,0,0,.61,1,2.34,2.34,0,0,0,1.42.38,6,6,0,0,0,1.13-.1,4.29,4.29,0,0,0,.9-.26l.28,1.69a2.91,2.91,0,0,1-.44.17l-.63.15-.73.1a6.85,6.85,0,0,1-.79,0,4.53,4.53,0,0,1-1.72-.29,3.23,3.23,0,0,1-1.94-2A4.88,4.88,0,0,1,106.6,20.67Zm4.9-.8a2.18,2.18,0,0,0-.09-.51,1.22,1.22,0,0,0-.24-.45,1.31,1.31,0,0,0-.4-.33,1.41,1.41,0,0,0-.61-.12,1.34,1.34,0,0,0-.6.12,1.21,1.21,0,0,0-.42.31,1.31,1.31,0,0,0-.26.46,3.34,3.34,0,0,0-.14.52Z"/><path class="cls-3" d="M115.06,15.1l2.08-.34v2.17h2.51v1.74h-2.51v2.59a2,2,0,0,0,.24,1,1,1,0,0,0,.93.39,4.2,4.2,0,0,0,.69-.06,3.09,3.09,0,0,0,.65-.18l.29,1.63a5.55,5.55,0,0,1-.84.26,4.54,4.54,0,0,1-1.13.11,3.59,3.59,0,0,1-1.41-.23,2.08,2.08,0,0,1-.9-.64,2.5,2.5,0,0,1-.47-1,5.84,5.84,0,0,1-.13-1.3Z"/><path class="cls-3" d="M127.63,24a10.26,10.26,0,0,1-1.37.29,11.16,11.16,0,0,1-1.77.13,4.18,4.18,0,0,1-1.56-.25,2.4,2.4,0,0,1-1-.7,2.69,2.69,0,0,1-.52-1.09,5.94,5.94,0,0,1-.16-1.38V16.93h2.09v3.85a3,3,0,0,0,.27,1.46,1,1,0,0,0,1,.45l.48,0,.44-.05V16.93h2.09Z"/><path class="cls-3" d="M134,18.78l-.66-.15a4.14,4.14,0,0,0-.81-.07l-.47,0a3.29,3.29,0,0,0-.41.08V24.3h-2.09v-7a10.81,10.81,0,0,1,1.32-.38,8.09,8.09,0,0,1,1.7-.17l.41,0a3.93,3.93,0,0,1,.48.06l.47.08a1.83,1.83,0,0,1,.41.12Z"/><path class="cls-3" d="M135.5,17.19a10.26,10.26,0,0,1,1.37-.29,11.11,11.11,0,0,1,1.76-.14,4.32,4.32,0,0,1,1.56.25,2.27,2.27,0,0,1,1,.69,2.74,2.74,0,0,1,.52,1.07,5.75,5.75,0,0,1,.15,1.37V24.3h-2.08V20.39A2.79,2.79,0,0,0,139.5,19a1.09,1.09,0,0,0-1-.42l-.48,0-.45.05V24.3H135.5Z"/><path class="cls-3" d="M154,20.62a5.43,5.43,0,0,1-.21,1.55,3.41,3.41,0,0,1-.62,1.2,2.77,2.77,0,0,1-1,.79,3.41,3.41,0,0,1-1.39.28,3.47,3.47,0,0,1-.81-.09,3.65,3.65,0,0,1-.73-.23v2.77H147.1v-9.7c.19-.06.4-.11.65-.17l.76-.13.81-.09c.28,0,.54,0,.79,0a4.6,4.6,0,0,1,1.63.28,3.31,3.31,0,0,1,1.2.77,3.18,3.18,0,0,1,.75,1.21A4.75,4.75,0,0,1,154,20.62Zm-2.13.05a2.54,2.54,0,0,0-.43-1.55,1.53,1.53,0,0,0-1.29-.58l-.52,0-.39.05v3.77a2.06,2.06,0,0,0,.51.21,2.29,2.29,0,0,0,.64.08C151.33,22.67,151.82,22,151.82,20.67Z"/><path class="cls-3" d="M162.45,20.6a5,5,0,0,1-.25,1.59,3.59,3.59,0,0,1-.73,1.23,3.25,3.25,0,0,1-1.14.79,3.78,3.78,0,0,1-1.5.28,3.67,3.67,0,0,1-1.47-.28,3.16,3.16,0,0,1-1.14-.79,3.46,3.46,0,0,1-.74-1.23,4.5,4.5,0,0,1-.27-1.59,4.44,4.44,0,0,1,.27-1.58,3.61,3.61,0,0,1,.76-1.22,3.17,3.17,0,0,1,1.15-.78,3.59,3.59,0,0,1,1.44-.28,3.7,3.7,0,0,1,1.47.28,3.22,3.22,0,0,1,1.14.78,3.56,3.56,0,0,1,.74,1.22A4.44,4.44,0,0,1,162.45,20.6Zm-2.13,0a2.61,2.61,0,0,0-.39-1.52,1.24,1.24,0,0,0-1.1-.55,1.27,1.27,0,0,0-1.1.55,2.61,2.61,0,0,0-.39,1.52,2.62,2.62,0,0,0,.39,1.53,1.26,1.26,0,0,0,1.1.57,1.24,1.24,0,0,0,1.1-.57A2.62,2.62,0,0,0,160.32,20.6Z"/><path class="cls-3" d="M167,24.44a5.28,5.28,0,0,1-1.48-.2,2.17,2.17,0,0,1-.9-.51,1.58,1.58,0,0,1-.44-.8,4.21,4.21,0,0,1-.12-1.05V13.77l2.08-.34v8a2.57,2.57,0,0,0,.05.5.81.81,0,0,0,.16.38.91.91,0,0,0,.34.25,1.81,1.81,0,0,0,.6.12Z"/><path class="cls-3" d="M170.76,14.8a1.14,1.14,0,0,1-.37.91,1.33,1.33,0,0,1-1.75,0,1.29,1.29,0,0,1,0-1.81,1.33,1.33,0,0,1,1.75,0A1.13,1.13,0,0,1,170.76,14.8Zm-.19,9.5h-2.09V16.93h2.09Z"/><path class="cls-3" d="M172.18,20.62a4.17,4.17,0,0,1,.26-1.51,3.64,3.64,0,0,1,.74-1.23,3.7,3.7,0,0,1,1.2-.84,4,4,0,0,1,1.59-.3,4.88,4.88,0,0,1,2,.4l-.43,1.67a5,5,0,0,0-.65-.2,3.67,3.67,0,0,0-.78-.08,1.65,1.65,0,0,0-1.38.57,2.41,2.41,0,0,0-.46,1.52,2.49,2.49,0,0,0,.43,1.54,1.8,1.8,0,0,0,1.49.54,4.86,4.86,0,0,0,.82-.07,3.82,3.82,0,0,0,.79-.22l.3,1.71a5,5,0,0,1-.91.26,5.73,5.73,0,0,1-1.21.11,4.5,4.5,0,0,1-1.73-.3,3.16,3.16,0,0,1-1.2-.82,3.26,3.26,0,0,1-.69-1.22A5.34,5.34,0,0,1,172.18,20.62Z"/><path class="cls-3" d="M186.19,16.93q-.63,2.13-1.32,4c-.46,1.24-1,2.45-1.5,3.62a8.56,8.56,0,0,1-.59,1.07,3.49,3.49,0,0,1-.64.72,2.05,2.05,0,0,1-.8.42,3.47,3.47,0,0,1-1,.14,4.22,4.22,0,0,1-.9-.09,3.45,3.45,0,0,1-.68-.21l.36-1.66a4.55,4.55,0,0,0,.58.15,2.93,2.93,0,0,0,.53,0,1.17,1.17,0,0,0,.86-.3,2.45,2.45,0,0,0,.51-.83c-.47-.93-.95-2-1.43-3.14s-.92-2.47-1.34-3.92H181c.09.37.2.76.33,1.19s.26.85.4,1.28.29.86.43,1.27.29.79.42,1.12c.12-.33.24-.71.38-1.12s.26-.83.38-1.27.25-.86.37-1.28.22-.82.31-1.19Z"/><path class="cls-3" d="M99.13,36a6.43,6.43,0,0,1,.19-1.18,12.19,12.19,0,0,1,.39-1.21,10.88,10.88,0,0,1,.51-1.08,6.48,6.48,0,0,1,.54-.82H98.4v-.56h3.09v.54a5.51,5.51,0,0,0-.51.73,8.38,8.38,0,0,0-.53,1,11.11,11.11,0,0,0-.43,1.23A7.47,7.47,0,0,0,99.8,36Z"/><path class="cls-3" d="M106.46,30.65l.65-.11v5.32c-.15,0-.34.09-.57.13a4.87,4.87,0,0,1-.81.06,2,2,0,0,1-.75-.13,1.67,1.67,0,0,1-.58-.38,1.51,1.51,0,0,1-.36-.6,2.18,2.18,0,0,1-.13-.79,2.66,2.66,0,0,1,.1-.77,1.71,1.71,0,0,1,.32-.6,1.58,1.58,0,0,1,.52-.4,1.67,1.67,0,0,1,.69-.14,1.6,1.6,0,0,1,.56.09,1.57,1.57,0,0,1,.36.16Zm0,2.45a1.17,1.17,0,0,0-.34-.19,1.3,1.3,0,0,0-.49-.09,1,1,0,0,0-.48.1,1,1,0,0,0-.33.28,1.33,1.33,0,0,0-.18.42,2.27,2.27,0,0,0,0,.53,1.41,1.41,0,0,0,.31,1,1.09,1.09,0,0,0,.84.35,2.81,2.81,0,0,0,.45,0,1.31,1.31,0,0,0,.27-.05Z"/><path class="cls-3" d="M109.41,32.24a1.83,1.83,0,0,1,.66.1,1,1,0,0,1,.43.29,1.11,1.11,0,0,1,.24.44,2,2,0,0,1,.07.56V35.9l-.24,0-.34.05-.41,0h-.43a2.49,2.49,0,0,1-.57-.06,1.32,1.32,0,0,1-.45-.2.94.94,0,0,1-.29-.36,1.27,1.27,0,0,1-.11-.54.92.92,0,0,1,.13-.51,1,1,0,0,1,.33-.36,1.67,1.67,0,0,1,.49-.19,2.74,2.74,0,0,1,.59-.06h.2l.2,0,.16,0a.22.22,0,0,1,.1,0v-.18a1.66,1.66,0,0,0,0-.32.8.8,0,0,0-.13-.28.56.56,0,0,0-.25-.2.94.94,0,0,0-.41-.07,3.13,3.13,0,0,0-.56,0,1.47,1.47,0,0,0-.36.1l-.08-.54a1.75,1.75,0,0,1,.42-.11A3.26,3.26,0,0,1,109.41,32.24Zm0,3.26h.41l.3,0V34.37a.54.54,0,0,0-.23-.06,2,2,0,0,0-.38,0l-.31,0a1,1,0,0,0-.3.09.58.58,0,0,0-.23.18.5.5,0,0,0-.09.31.52.52,0,0,0,.23.48A1.13,1.13,0,0,0,109.46,35.5Z"/><path class="cls-3" d="M111.35,36.65l.2.06a1.18,1.18,0,0,0,.25,0,.93.93,0,0,0,.6-.18,1.56,1.56,0,0,0,.39-.55c-.29-.56-.57-1.16-.82-1.78a15.3,15.3,0,0,1-.64-1.91h.7c0,.21.12.43.19.68s.15.49.24.75.18.51.29.77.21.5.32.74c.18-.49.33-1,.46-1.46s.26-1,.37-1.48h.67c-.16.68-.35,1.34-.56,2a18.18,18.18,0,0,1-.66,1.77,3.36,3.36,0,0,1-.29.54,1.77,1.77,0,0,1-.33.38,1.33,1.33,0,0,1-.41.21,1.68,1.68,0,0,1-.52.07h-.16l-.16,0-.15,0-.09,0Z"/><path class="cls-3" d="M116.11,35.5a1.29,1.29,0,0,0,.59-.11.35.35,0,0,0,.19-.33.44.44,0,0,0-.19-.38,2.68,2.68,0,0,0-.62-.31l-.4-.18a1.6,1.6,0,0,1-.34-.2,1.06,1.06,0,0,1-.22-.29.86.86,0,0,1-.08-.41.94.94,0,0,1,.35-.77,1.54,1.54,0,0,1,1-.28h.3l.29,0,.24.05.15,0-.12.56a1.56,1.56,0,0,0-.32-.12,2.12,2.12,0,0,0-.54-.06,1,1,0,0,0-.48.11.35.35,0,0,0-.2.34.46.46,0,0,0,0,.21.55.55,0,0,0,.14.17,1.73,1.73,0,0,0,.24.13l.33.14a3.53,3.53,0,0,1,.47.19,1.17,1.17,0,0,1,.34.22.73.73,0,0,1,.22.3,1.15,1.15,0,0,1,.08.44.86.86,0,0,1-.38.76,1.79,1.79,0,0,1-1.06.26,3,3,0,0,1-.76-.08l-.37-.12.12-.56.36.13A2.25,2.25,0,0,0,116.11,35.5Z"/><path class="cls-3" d="M121.34,32.25h.2l.21,0,.19,0,.13,0-.11.56-.26-.06a1.92,1.92,0,0,0-.45,0,1.5,1.5,0,0,0-.37,0l-.23,0V36H120V32.48a5.36,5.36,0,0,1,.57-.16A4.49,4.49,0,0,1,121.34,32.25Z"/><path class="cls-3" d="M122.5,34.15a2.18,2.18,0,0,1,.14-.84,1.65,1.65,0,0,1,.37-.6,1.44,1.44,0,0,1,.53-.35,1.67,1.67,0,0,1,.62-.12,1.37,1.37,0,0,1,1.12.46,2.1,2.1,0,0,1,.4,1.39v.11s0,.09,0,.12h-2.49a1.23,1.23,0,0,0,.33.86,1.18,1.18,0,0,0,.89.3,2.4,2.4,0,0,0,.58-.06,2,2,0,0,0,.35-.12l.09.55A1.64,1.64,0,0,1,125,36a2.84,2.84,0,0,1-.68.07,2.23,2.23,0,0,1-.82-.14,1.58,1.58,0,0,1-.57-.4,1.52,1.52,0,0,1-.33-.6A2.29,2.29,0,0,1,122.5,34.15Zm2.5-.35a1.13,1.13,0,0,0-.22-.73.77.77,0,0,0-.63-.28.87.87,0,0,0-.4.09.88.88,0,0,0-.47.55,1.18,1.18,0,0,0-.09.37Z"/><path class="cls-3" d="M127.22,32.33h1.38v.54h-1.38v1.68a2.48,2.48,0,0,0,0,.45.71.71,0,0,0,.13.29.6.6,0,0,0,.21.14.85.85,0,0,0,.29,0,1.28,1.28,0,0,0,.48-.07l.25-.09.12.54-.34.12a1.91,1.91,0,0,1-.56.07,1.75,1.75,0,0,1-.61-.09.93.93,0,0,1-.39-.28,1.13,1.13,0,0,1-.21-.47,3,3,0,0,1-.06-.64V31.31l.65-.11Z"/><path class="cls-3" d="M132.33,35.86l-.6.12a5.21,5.21,0,0,1-.85.06,1.79,1.79,0,0,1-.7-.12,1.17,1.17,0,0,1-.47-.34,1.53,1.53,0,0,1-.25-.53,2.9,2.9,0,0,1-.07-.68v-2H130v1.9a1.65,1.65,0,0,0,.21,1,.79.79,0,0,0,.7.29h.43l.18,0,.11,0V32.33h.66Z"/><path class="cls-3" d="M134.79,32.25H135l.22,0,.19,0,.13,0-.11.56-.26-.06a2,2,0,0,0-.46,0,1.47,1.47,0,0,0-.36,0l-.23,0V36h-.65V32.48a5.36,5.36,0,0,1,.57-.16A4.4,4.4,0,0,1,134.79,32.25Z"/><path class="cls-3" d="M136.15,32.43l.59-.12a5.43,5.43,0,0,1,.86-.06,1.87,1.87,0,0,1,.72.12,1.25,1.25,0,0,1,.46.35,1.36,1.36,0,0,1,.24.53,3.45,3.45,0,0,1,.07.67v2h-.65V34.06a3.1,3.1,0,0,0-.05-.57,1,1,0,0,0-.15-.39.67.67,0,0,0-.28-.21,1.35,1.35,0,0,0-.43-.06h-.22l-.21,0-.19,0-.11,0V36h-.65Z"/><path class="cls-3" d="M145,34.15a2.7,2.7,0,0,1-.11.77,1.73,1.73,0,0,1-.32.6,1.39,1.39,0,0,1-.51.39,1.75,1.75,0,0,1-.7.14,1.94,1.94,0,0,1-.56-.08,2.17,2.17,0,0,1-.36-.16v1.45h-.65V32.44l.58-.12a3.84,3.84,0,0,1,.8-.07,2.06,2.06,0,0,1,.76.13,1.63,1.63,0,0,1,.94,1A2.22,2.22,0,0,1,145,34.15Zm-.68,0a1.41,1.41,0,0,0-.31-1,1.15,1.15,0,0,0-.85-.34l-.45,0-.27,0v2.3a1.57,1.57,0,0,0,.35.19,1.3,1.3,0,0,0,.49.09,1.21,1.21,0,0,0,.48-.1,1,1,0,0,0,.32-.28,1,1,0,0,0,.18-.42A2.2,2.2,0,0,0,144.31,34.15Z"/><path class="cls-3" d="M149.12,34.15a2.13,2.13,0,0,1-.13.78,1.61,1.61,0,0,1-.35.6,1.5,1.5,0,0,1-.54.39,1.77,1.77,0,0,1-1.38,0,1.5,1.5,0,0,1-.54-.39,1.61,1.61,0,0,1-.35-.6,2.4,2.4,0,0,1,0-1.56,1.74,1.74,0,0,1,.35-.61,1.5,1.5,0,0,1,.54-.39,1.9,1.9,0,0,1,1.38,0,1.5,1.5,0,0,1,.54.39,1.74,1.74,0,0,1,.35.61A2.13,2.13,0,0,1,149.12,34.15Zm-.68,0a1.54,1.54,0,0,0-.28-1,1,1,0,0,0-1.5,0,1.54,1.54,0,0,0-.28,1,1.51,1.51,0,0,0,.28,1,1,1,0,0,0,1.5,0A1.51,1.51,0,0,0,148.44,34.15Z"/><path class="cls-3" d="M151.13,36a1.29,1.29,0,0,1-.86-.26A1.05,1.05,0,0,1,150,35V30.65l.65-.11v4.37a1,1,0,0,0,0,.27.35.35,0,0,0,.09.16.32.32,0,0,0,.17.1l.26.05Z"/><path class="cls-3" d="M152.27,31.67a.41.41,0,0,1-.3-.12.4.4,0,0,1-.12-.31.41.41,0,0,1,.12-.31.4.4,0,0,1,.3-.11.4.4,0,0,1,.42.42.4.4,0,0,1-.12.31A.42.42,0,0,1,152.27,31.67Zm.33,4.3H152V32.33h.65Z"/><path class="cls-3" d="M155.3,36.05a2,2,0,0,1-.77-.14,1.41,1.41,0,0,1-.56-.39,1.49,1.49,0,0,1-.34-.6,2.35,2.35,0,0,1-.12-.77,2.19,2.19,0,0,1,.13-.77,1.77,1.77,0,0,1,.34-.6,1.69,1.69,0,0,1,.55-.4,1.9,1.9,0,0,1,.73-.14,2.77,2.77,0,0,1,.49,0,2.52,2.52,0,0,1,.47.13l-.15.55a2.27,2.27,0,0,0-.34-.11,2.71,2.71,0,0,0-.41,0,1.05,1.05,0,0,0-.84.34,1.55,1.55,0,0,0-.29,1,1.81,1.81,0,0,0,.07.54.93.93,0,0,0,.21.42.91.91,0,0,0,.37.27,1.27,1.27,0,0,0,.54.1,2.19,2.19,0,0,0,.47,0,1.4,1.4,0,0,0,.33-.11l.09.55a.84.84,0,0,1-.16.07l-.24.05-.28,0A1.46,1.46,0,0,1,155.3,36.05Z"/><path class="cls-3" d="M156.62,36.65l.2.06a1,1,0,0,0,.24,0,.94.94,0,0,0,.61-.18,1.56,1.56,0,0,0,.39-.55c-.3-.56-.57-1.16-.83-1.78a17.06,17.06,0,0,1-.63-1.91h.7c0,.21.11.43.19.68s.15.49.24.75.18.51.29.77.21.5.32.74c.17-.49.33-1,.46-1.46s.25-1,.37-1.48h.67c-.17.68-.35,1.34-.56,2a18.18,18.18,0,0,1-.66,1.77,4.4,4.4,0,0,1-.29.54A1.57,1.57,0,0,1,158,37a1.14,1.14,0,0,1-.41.21,1.61,1.61,0,0,1-.51.07h-.16l-.16,0-.15,0-.1,0Z"/><path class="cls-3" d="M41.33,18.91l-.17.23,1,.76-.29.38-1.43-.19-.69.9,1,.76-.27.36-1-.77-.18.23-.37-.28.17-.23-.52-.41-.18.23L38,20.6l.17-.23-1-.76.3-.38,1.42.19.69-.9-1-.76.28-.36,1,.76.17-.22.37.28-.17.23.53.4.17-.22Zm-2.73.93-.43-.05.3.22Zm1.29.18-.76-.11-.29.39.53.4Zm.62-.81L40,18.8l-.53.69.76.1Zm.67.51-.29-.22-.13.16Z"/></svg>