<svg id="Layer_1" data-name="Layer 1" xmlns="http://www.w3.org/2000/svg" viewBox="0 0 248 50"><defs><style>.cls-1{fill:#f60;}.cls-2{fill:#ff8939;}.cls-3{fill:#fff;}</style></defs><title>obejor</title><rect class="cls-1" width="248" height="50"/><rect class="cls-2" y="0.25" width="78" height="50"/><path class="cls-3" d="M54.93,34.69A1.78,1.78,0,0,1,53,35.83c-3.34,0-6.69,0-10,0a1,1,0,0,1-1.09-.61,8.85,8.85,0,0,0-3.1-3.36c.3-1,.55-1.91.84-2.81a.78.78,0,0,1,.39-.46c.61-.24,1.13-.94,1.94-.33.55.41,1.34.31,1.88.95a1.84,1.84,0,0,0,3-.62,3,3,0,0,0,.31-.94,9.36,9.36,0,0,1-1.42.85,1.5,1.5,0,0,1-1.17.06,1.09,1.09,0,0,1-.32-1c.15-.3.78-.67,1-.57a2.86,2.86,0,0,0,2-.11,12.09,12.09,0,0,0,2.21-.7,2.31,2.31,0,0,0,1.21-3.38.94.94,0,0,1-.11-.37,18.79,18.79,0,0,1,.06-4.18c.49-2.12-.53-3.53-1.83-4.77a6.73,6.73,0,0,0-10.49,1.74c-.23.43-.41.89-.61,1.33-1.13-.77-1.19-1-.67-2.22a7.8,7.8,0,0,1,8.42-4.6A7.54,7.54,0,0,1,52,16.92,1,1,0,0,0,52.9,18a2.31,2.31,0,0,1,0,4.5,1,1,0,0,0-.92,1,3.63,3.63,0,0,1-3,3.74c.1.09.16.17.23.19a7.59,7.59,0,0,1,5.22,5.2c.14.41.32.8.48,1.2Z"/><path class="cls-3" d="M19.93,38.89c.23-.59.46-1.18.7-1.78a7.42,7.42,0,0,1,5.57-4.78,1.78,1.78,0,0,1,.92.16c.82.35,1.64.73,2.45,1.12a2.3,2.3,0,0,1,.65.47,2,2,0,0,0,2.2.47c.89-.34,1.79-.63,2.69-.93a5.69,5.69,0,0,0,1-.3c.9-.53,1.57-.14,2.28.41a9.28,9.28,0,0,1,3.11,5.4c.26,1-.51,1.75-1.64,1.77-1.34,0-2.69,0-4,0H22a2,2,0,0,1-2.1-1.1Z"/><path class="cls-3" d="M25.61,24.77a7,7,0,0,1,.71-3.95,4.86,4.86,0,0,1,4.35-3,4.62,4.62,0,0,1,4.41,2.91,9,9,0,0,1-.51,9A2.77,2.77,0,0,1,32,30.93a2.44,2.44,0,0,0-1.71.56,1,1,0,0,1-.74.14,5,5,0,0,1-2.86-2.37A6.82,6.82,0,0,1,25.61,24.77Z"/><path class="cls-3" d="M49.58,19.57c-.08,2.6-.73,4.77-2.69,6.37a.84.84,0,0,1-1,.17,1.62,1.62,0,0,0-2,.34c-.45.5-.87.26-1.23,0a1,1,0,0,1-.27-.8A3.47,3.47,0,0,0,40.18,22a.75.75,0,0,1-.54-.71c-.08-.69-.31-1.36-.43-2-.4-2.15.58-3.83,2-5.27a4,4,0,0,1,4.62-1,6.16,6.16,0,0,1,3.49,4.64A15.85,15.85,0,0,1,49.58,19.57Z"/><path class="cls-3" d="M30.89,14.55a7.62,7.62,0,0,1,7.58,7.26,1.13,1.13,0,0,0,1,1.23,2.3,2.3,0,0,1,0,4.45,1.23,1.23,0,0,0-1.06,1.42,2.9,2.9,0,0,1-1.76,2.86,24,24,0,0,1-2.63.91c-.67.22-1.39.23-1.91.87-.14.18-.85.15-1.08,0a1.1,1.1,0,0,1-.24-1.06,1.2,1.2,0,0,1,1-.5,2.23,2.23,0,0,0,1.55-.05,24.67,24.67,0,0,0,2.45-.71,2.32,2.32,0,0,0,1.37-3.43,1.39,1.39,0,0,1-.08-.46,13.73,13.73,0,0,1,0-3.79A4.77,4.77,0,0,0,36,19.14a6.38,6.38,0,0,0-4.35-2.45,6.83,6.83,0,0,0-7.45,5.21,1,1,0,0,0,0,.53c.67,1.61.19,3.28.27,4.91,0,.3-.38.74-.7.88s-.62-.18-.93-.32-.34-.29-.54-.35a2.29,2.29,0,0,1-1.87-2.26A2.22,2.22,0,0,1,22.18,23,1,1,0,0,0,23,22c-.2-3.18,2.31-6.27,5.95-7.18A15.56,15.56,0,0,1,30.89,14.55Z"/><path class="cls-3" d="M101.53,24.63a4.72,4.72,0,0,1-3.61-1.32,5.27,5.27,0,0,1-1.24-3.74,5.8,5.8,0,0,1,.38-2.15,4.53,4.53,0,0,1,1-1.59,4.2,4.2,0,0,1,1.57-1,5.7,5.7,0,0,1,2-.34,6.43,6.43,0,0,1,1.12.09,6.74,6.74,0,0,1,.88.21,3.93,3.93,0,0,1,.63.25l.37.19L104,17A5.11,5.11,0,0,0,103,16.6a5,5,0,0,0-1.35-.17,3,3,0,0,0-1,.17,2.16,2.16,0,0,0-.86.54,2.69,2.69,0,0,0-.59,1A4,4,0,0,0,99,19.53a5,5,0,0,0,.15,1.25,2.66,2.66,0,0,0,.48,1,2.15,2.15,0,0,0,.86.67,3.08,3.08,0,0,0,1.28.24,7.25,7.25,0,0,0,.86-.05c.25,0,.47-.09.67-.14a4,4,0,0,0,.52-.17l.4-.18.61,1.75a5.54,5.54,0,0,1-1.31.5A7.48,7.48,0,0,1,101.53,24.63Z"/><path class="cls-3" d="M112.14,24.18a10.46,10.46,0,0,1-1.37.28,11.14,11.14,0,0,1-1.77.14,4.17,4.17,0,0,1-1.56-.26,2.31,2.31,0,0,1-1-.7,2.69,2.69,0,0,1-.52-1.09,5.94,5.94,0,0,1-.16-1.38V17.06h2.09v3.85a3,3,0,0,0,.27,1.46,1,1,0,0,0,1,.45l.48,0,.44-.05V17.06h2.09Z"/><path class="cls-3" d="M116.21,22.93a2.21,2.21,0,0,0,.82-.11.45.45,0,0,0,.23-.44.55.55,0,0,0-.3-.44,7,7,0,0,0-.94-.42,9.52,9.52,0,0,1-.89-.38,2.64,2.64,0,0,1-.68-.47A1.8,1.8,0,0,1,114,20a2.28,2.28,0,0,1-.16-.91,2,2,0,0,1,.77-1.64,3.38,3.38,0,0,1,2.12-.6A6.7,6.7,0,0,1,118,17a5.38,5.38,0,0,1,1,.26l-.36,1.62a7.47,7.47,0,0,0-.79-.22,4.1,4.1,0,0,0-1-.1c-.65,0-1,.18-1,.54a.56.56,0,0,0,0,.23.58.58,0,0,0,.17.19,3.88,3.88,0,0,0,.34.2l.56.23a8.34,8.34,0,0,1,1.13.5,2.74,2.74,0,0,1,.71.53,1.7,1.7,0,0,1,.36.64,2.78,2.78,0,0,1,.11.81,1.9,1.9,0,0,1-.82,1.65,4.12,4.12,0,0,1-2.32.56,6.73,6.73,0,0,1-1.63-.17,7.94,7.94,0,0,1-.9-.28l.35-1.7a6.55,6.55,0,0,0,1.09.33A5.22,5.22,0,0,0,116.21,22.93Z"/><path class="cls-3" d="M120.82,15.23l2.09-.34v2.17h2.5V18.8h-2.5v2.59a2,2,0,0,0,.23,1.05,1,1,0,0,0,.93.39,4.2,4.2,0,0,0,.69-.06,2.93,2.93,0,0,0,.65-.18l.3,1.63a6.37,6.37,0,0,1-.84.26,4.63,4.63,0,0,1-1.14.12,3.78,3.78,0,0,1-1.41-.23,2.25,2.25,0,0,1-.9-.65,2.44,2.44,0,0,1-.47-1,5.84,5.84,0,0,1-.13-1.3Z"/><path class="cls-3" d="M133.71,20.73a4.74,4.74,0,0,1-.25,1.59,3.44,3.44,0,0,1-.73,1.23,3.07,3.07,0,0,1-1.14.79,3.74,3.74,0,0,1-1.49.29,3.67,3.67,0,0,1-1.47-.29,3.2,3.2,0,0,1-1.15-.79,3.77,3.77,0,0,1-.74-1.23,4.5,4.5,0,0,1-.26-1.59,4.44,4.44,0,0,1,.27-1.58,3.58,3.58,0,0,1,.75-1.22,3.79,3.79,0,0,1,4.06-.78,3.44,3.44,0,0,1,1.15.78,3.73,3.73,0,0,1,.74,1.22A4.44,4.44,0,0,1,133.71,20.73Zm-2.12,0a2.61,2.61,0,0,0-.39-1.52,1.38,1.38,0,0,0-2.2,0,2.54,2.54,0,0,0-.4,1.52,2.6,2.6,0,0,0,.4,1.54,1.36,1.36,0,0,0,2.2,0A2.68,2.68,0,0,0,131.59,20.73Z"/><path class="cls-3" d="M139.37,20.52a3,3,0,0,0-.26-1.43,1,1,0,0,0-.89-.42l-.4,0-.41,0v5.69h-2.09V17.32l.63-.15.75-.14.82-.1.83,0a3.36,3.36,0,0,1,1.29.2,3.17,3.17,0,0,1,.82.48,3.92,3.92,0,0,1,2.1-.68,3.75,3.75,0,0,1,1.45.24,2.17,2.17,0,0,1,.9.69,2.67,2.67,0,0,1,.47,1.07,7.2,7.2,0,0,1,.12,1.37v4.16h-2.08V20.52a3,3,0,0,0-.26-1.43,1,1,0,0,0-.89-.42,1.78,1.78,0,0,0-.47.09,1.54,1.54,0,0,0-.5.21,2.93,2.93,0,0,1,.13.68c0,.24,0,.49,0,.76v4h-2.09Z"/><path class="cls-3" d="M147,20.8a4.5,4.5,0,0,1,.3-1.71,3.83,3.83,0,0,1,.79-1.23,3.45,3.45,0,0,1,2.44-1,3.25,3.25,0,0,1,2.48,1,4,4,0,0,1,.91,2.82c0,.12,0,.25,0,.4s0,.27,0,.38h-4.74a1.42,1.42,0,0,0,.61,1,2.41,2.41,0,0,0,1.42.37,6,6,0,0,0,1.13-.1,4.29,4.29,0,0,0,.9-.26l.28,1.69a2.13,2.13,0,0,1-.44.17,4.87,4.87,0,0,1-.63.15l-.73.1a6.84,6.84,0,0,1-.79.05,4.52,4.52,0,0,1-1.72-.3,3.17,3.17,0,0,1-1.94-2A4.88,4.88,0,0,1,147,20.8Zm4.9-.8a2.18,2.18,0,0,0-.09-.51,1.22,1.22,0,0,0-.24-.45,1.16,1.16,0,0,0-.4-.32,1.28,1.28,0,0,0-.61-.13,1.34,1.34,0,0,0-.6.12,1.12,1.12,0,0,0-.42.32,1.26,1.26,0,0,0-.26.45,3.34,3.34,0,0,0-.14.52Z"/><path class="cls-3" d="M160,18.91l-.66-.14a3.48,3.48,0,0,0-.81-.08l-.47,0a3.53,3.53,0,0,0-.42.08v5.63h-2.08v-7a10.94,10.94,0,0,1,1.32-.37,7.45,7.45,0,0,1,1.7-.18l.41,0c.16,0,.32,0,.47.06l.48.08a2,2,0,0,1,.41.12Z"/><path class="cls-3" d="M167,22.93a2.19,2.19,0,0,0,.81-.11.44.44,0,0,0,.24-.44.54.54,0,0,0-.31-.44,6.48,6.48,0,0,0-.94-.42c-.32-.12-.62-.25-.89-.38a2.58,2.58,0,0,1-.67-.47,1.83,1.83,0,0,1-.44-.65,2.48,2.48,0,0,1-.15-.91,2,2,0,0,1,.77-1.64,3.35,3.35,0,0,1,2.11-.6,6.73,6.73,0,0,1,1.29.12,5.38,5.38,0,0,1,1,.26l-.36,1.62a7.68,7.68,0,0,0-.8-.22,4,4,0,0,0-1-.1c-.66,0-1,.18-1,.54a.56.56,0,0,0,0,.23.49.49,0,0,0,.17.19,2.79,2.79,0,0,0,.34.2c.14.07.33.14.55.23a8,8,0,0,1,1.14.5,2.67,2.67,0,0,1,.7.53,1.6,1.6,0,0,1,.37.64,2.8,2.8,0,0,1,.1.81,1.88,1.88,0,0,1-.82,1.65,4.08,4.08,0,0,1-2.31.56,6.82,6.82,0,0,1-1.64-.17c-.43-.12-.73-.21-.9-.28l.35-1.7a7.18,7.18,0,0,0,1.09.33A5.38,5.38,0,0,0,167,22.93Z"/><path class="cls-3" d="M177.91,24.18a10.46,10.46,0,0,1-1.37.28,11.11,11.11,0,0,1-1.76.14,4.19,4.19,0,0,1-1.57-.26,2.31,2.31,0,0,1-1-.7,2.69,2.69,0,0,1-.52-1.09,6,6,0,0,1-.15-1.38V17.06h2.08v3.85a3,3,0,0,0,.27,1.46,1,1,0,0,0,1,.45l.48,0,.45-.05V17.06h2.08Z"/><path class="cls-3" d="M186.72,20.75a5.38,5.38,0,0,1-.21,1.55,3.41,3.41,0,0,1-.62,1.2,2.72,2.72,0,0,1-1,.79,3.33,3.33,0,0,1-1.38.28,4.07,4.07,0,0,1-1.54-.32V27h-2.09v-9.7a6.19,6.19,0,0,1,.65-.16c.24-.06.49-.1.76-.14l.81-.09.79,0a4.6,4.6,0,0,1,1.63.27,3.39,3.39,0,0,1,1.2.77,3.18,3.18,0,0,1,.75,1.21A4.75,4.75,0,0,1,186.72,20.75Zm-2.13.05a2.56,2.56,0,0,0-.43-1.54,1.51,1.51,0,0,0-1.29-.59,4.17,4.17,0,0,0-.52,0l-.39,0v3.77a2.06,2.06,0,0,0,.51.21,2.29,2.29,0,0,0,.64.08C184.09,22.8,184.59,22.14,184.59,20.8Z"/><path class="cls-3" d="M195.17,20.75A5.38,5.38,0,0,1,195,22.3a3.4,3.4,0,0,1-.61,1.2,2.8,2.8,0,0,1-1,.79,3.35,3.35,0,0,1-1.39.28,3.47,3.47,0,0,1-.81-.09,3.86,3.86,0,0,1-.73-.23V27h-2.08v-9.7a6,6,0,0,1,.64-.16c.24-.06.5-.1.76-.14l.82-.09.79,0a4.55,4.55,0,0,1,1.62.27,3.35,3.35,0,0,1,1.21.77,3.45,3.45,0,0,1,.75,1.21A4.75,4.75,0,0,1,195.17,20.75Zm-2.12.05a2.49,2.49,0,0,0-.44-1.54,1.51,1.51,0,0,0-1.29-.59,4,4,0,0,0-.51,0l-.4,0v3.77a2.06,2.06,0,0,0,.51.21,2.34,2.34,0,0,0,.64.08C192.55,22.8,193.05,22.14,193.05,20.8Z"/><path class="cls-3" d="M203.67,20.73a4.74,4.74,0,0,1-.25,1.59,3.44,3.44,0,0,1-.73,1.23,3.25,3.25,0,0,1-1.14.79,3.95,3.95,0,0,1-3,0,3.25,3.25,0,0,1-1.14-.79,3.61,3.61,0,0,1-.74-1.23,4.5,4.5,0,0,1-.27-1.59,4.23,4.23,0,0,1,.28-1.58,3.58,3.58,0,0,1,.75-1.22,3.55,3.55,0,0,1,1.15-.78,3.92,3.92,0,0,1,2.91,0,3.32,3.32,0,0,1,1.88,2A4.44,4.44,0,0,1,203.67,20.73Zm-2.13,0a2.69,2.69,0,0,0-.38-1.52,1.28,1.28,0,0,0-1.1-.55,1.3,1.3,0,0,0-1.11.55,2.61,2.61,0,0,0-.39,1.52,2.68,2.68,0,0,0,.39,1.54,1.28,1.28,0,0,0,1.11.56,1.26,1.26,0,0,0,1.1-.56A2.76,2.76,0,0,0,201.54,20.73Z"/><path class="cls-3" d="M209.72,18.91l-.66-.14a3.48,3.48,0,0,0-.81-.08l-.47,0a3.29,3.29,0,0,0-.41.08v5.63h-2.09v-7a10.94,10.94,0,0,1,1.32-.37,7.45,7.45,0,0,1,1.7-.18l.41,0,.48.06.47.08a1.83,1.83,0,0,1,.41.12Z"/><path class="cls-3" d="M211.12,15.23l2.09-.34v2.17h2.5V18.8h-2.5v2.59a2,2,0,0,0,.23,1.05,1,1,0,0,0,.93.39,4.2,4.2,0,0,0,.69-.06,3.09,3.09,0,0,0,.65-.18l.29,1.63a5.79,5.79,0,0,1-.83.26,4.63,4.63,0,0,1-1.14.12,3.78,3.78,0,0,1-1.41-.23,2.25,2.25,0,0,1-.9-.65,2.44,2.44,0,0,1-.47-1,5.84,5.84,0,0,1-.13-1.3Z"/><path class="cls-3" d="M100.25,32.49a1.15,1.15,0,0,1-.1.48,2.83,2.83,0,0,1-.27.47,3.86,3.86,0,0,1-.38.44l-.42.43-.27.28a3.17,3.17,0,0,0-.3.34,2.92,2.92,0,0,0-.23.34.5.5,0,0,0-.1.28h2.23v.55H97.47v-.16a1.51,1.51,0,0,1,.11-.61,2.31,2.31,0,0,1,.28-.54,4.54,4.54,0,0,1,.39-.48l.43-.43.33-.33a2.73,2.73,0,0,0,.28-.33,1.68,1.68,0,0,0,.2-.34.94.94,0,0,0,.07-.37.8.8,0,0,0-.07-.36.61.61,0,0,0-.17-.24.72.72,0,0,0-.27-.15,1.08,1.08,0,0,0-.32,0,1.5,1.5,0,0,0-.37.05,2.08,2.08,0,0,0-.3.13,1,1,0,0,0-.22.16l-.14.12-.32-.46a1.13,1.13,0,0,1,.19-.18,2,2,0,0,1,.3-.19,1.76,1.76,0,0,1,.39-.15,1.73,1.73,0,0,1,.47-.06,1.59,1.59,0,0,1,1.14.35A1.27,1.27,0,0,1,100.25,32.49Z"/><path class="cls-3" d="M101.21,34.42a6.24,6.24,0,0,1,.37-.72c.15-.27.32-.55.52-.84s.4-.58.62-.86a8.43,8.43,0,0,1,.67-.75H104v3.08h.58v.53H104V36.1h-.63V34.86h-2.17Zm2.17-2.4a5.52,5.52,0,0,0-.42.5c-.14.18-.28.38-.42.58s-.26.4-.38.61-.22.42-.32.62h1.54Z"/><path class="cls-3" d="M105.38,37.39h-.67l2.38-6.77h.65Z"/><path class="cls-3" d="M108.71,36.1a6.62,6.62,0,0,1,.2-1.18,9,9,0,0,1,.39-1.21,9.79,9.79,0,0,1,.5-1.08,6.11,6.11,0,0,1,.55-.82H108v-.56h3.09v.54a4.67,4.67,0,0,0-.52.73,9.16,9.16,0,0,0-.52,1,9.38,9.38,0,0,0-.43,1.23,6.77,6.77,0,0,0-.22,1.31Z"/><path class="cls-3" d="M116.9,34.29a2.63,2.63,0,0,1-.11.76,1.73,1.73,0,0,1-.32.6A1.39,1.39,0,0,1,116,36a1.59,1.59,0,0,1-.7.14,1.94,1.94,0,0,1-.56-.08,2.17,2.17,0,0,1-.36-.16v1.45h-.65V32.57l.58-.12a3.84,3.84,0,0,1,.8-.07,2.06,2.06,0,0,1,.76.14,1.56,1.56,0,0,1,.57.37,1.84,1.84,0,0,1,.37.6A2.24,2.24,0,0,1,116.9,34.29Zm-.68,0a1.39,1.39,0,0,0-.31-1,1.09,1.09,0,0,0-.84-.35l-.46,0-.27.05v2.3a1.57,1.57,0,0,0,.35.19,1.3,1.3,0,0,0,.49.09,1.06,1.06,0,0,0,.48-.1.87.87,0,0,0,.32-.28,1,1,0,0,0,.18-.42A2.18,2.18,0,0,0,116.22,34.29Z"/><path class="cls-3" d="M119.16,32.38h.19l.22,0,.19,0,.13,0-.11.56-.26-.06a2,2,0,0,0-.46,0,1.47,1.47,0,0,0-.36,0l-.23,0V36.1h-.65V32.61a3.83,3.83,0,0,1,.57-.15A3.64,3.64,0,0,1,119.16,32.38Z"/><path class="cls-3" d="M120.31,34.29a2.19,2.19,0,0,1,.15-.85,1.65,1.65,0,0,1,.37-.6,1.58,1.58,0,0,1,.53-.35,1.62,1.62,0,0,1,.61-.12,1.39,1.39,0,0,1,1.13.46,2.1,2.1,0,0,1,.39,1.39v.24H121a1.32,1.32,0,0,0,.33.85,1.19,1.19,0,0,0,.9.3,2.4,2.4,0,0,0,.58-.06,2,2,0,0,0,.35-.12l.09.55a1.75,1.75,0,0,1-.42.13,2.7,2.7,0,0,1-.67.07,2.23,2.23,0,0,1-.82-.14,1.58,1.58,0,0,1-.91-1A2.56,2.56,0,0,1,120.31,34.29Zm2.5-.36a1,1,0,0,0-.22-.72.75.75,0,0,0-.62-.29.87.87,0,0,0-.4.09,1,1,0,0,0-.47.55,1.18,1.18,0,0,0-.09.37Z"/><path class="cls-3" d="M124.43,32.56l.59-.11a4.36,4.36,0,0,1,.85-.07,1.45,1.45,0,0,1,.59.1,1,1,0,0,1,.4.27l.15-.1.26-.12.35-.1a1.68,1.68,0,0,1,.4,0,1.71,1.71,0,0,1,.69.12,1.11,1.11,0,0,1,.42.35,1.67,1.67,0,0,1,.2.53,4.68,4.68,0,0,1,0,.67V36.1h-.65V34.2a4.5,4.5,0,0,0,0-.56,1,1,0,0,0-.12-.38.53.53,0,0,0-.24-.23A.88.88,0,0,0,128,33a1.4,1.4,0,0,0-.54.08,1,1,0,0,0-.29.16,2.36,2.36,0,0,1,.08.4,3.29,3.29,0,0,1,0,.45V36.1h-.65V34.2a3.06,3.06,0,0,0,0-.56,1,1,0,0,0-.12-.38.49.49,0,0,0-.24-.23.83.83,0,0,0-.38-.07h-.21l-.21,0-.19,0-.11,0V36.1h-.65Z"/><path class="cls-3" d="M130.78,31.8a.44.44,0,0,1-.3-.11.43.43,0,0,1-.12-.31.42.42,0,0,1,.12-.32.46.46,0,0,1,.6,0,.42.42,0,0,1,.12.32.43.43,0,0,1-.12.31A.44.44,0,0,1,130.78,31.8Zm.33,4.3h-.65V32.46h.65Z"/><path class="cls-3" d="M135.13,36l-.59.12a5.34,5.34,0,0,1-.86.07,1.82,1.82,0,0,1-.7-.13,1.07,1.07,0,0,1-.46-.34,1.54,1.54,0,0,1-.26-.53,2.84,2.84,0,0,1-.07-.68v-2h.65v1.9a1.63,1.63,0,0,0,.21,1,.79.79,0,0,0,.7.29H134l.21,0,.18,0,.12,0V32.46h.65Z"/><path class="cls-3" d="M136.25,32.56l.59-.11a4.29,4.29,0,0,1,.85-.07,1.49,1.49,0,0,1,.59.1,1,1,0,0,1,.4.27l.15-.1.26-.12a2.75,2.75,0,0,1,.34-.1,1.77,1.77,0,0,1,.41,0,1.63,1.63,0,0,1,.68.12,1,1,0,0,1,.42.35,1.3,1.3,0,0,1,.2.53,3.55,3.55,0,0,1,.06.67V36.1h-.66V34.2a4.5,4.5,0,0,0,0-.56,1,1,0,0,0-.12-.38.47.47,0,0,0-.23-.23.88.88,0,0,0-.39-.07,1.49,1.49,0,0,0-.55.08,1.19,1.19,0,0,0-.29.16,2.35,2.35,0,0,1,.09.4,3.29,3.29,0,0,1,0,.45V36.1h-.65V34.2a4.32,4.32,0,0,0,0-.56,1,1,0,0,0-.12-.38A.53.53,0,0,0,138,33a.86.86,0,0,0-.38-.07h-.21l-.21,0L137,33a.23.23,0,0,0-.11,0V36.1h-.65Z"/><path class="cls-3" d="M145.47,36.18a1.86,1.86,0,0,1-.77-.14,1.49,1.49,0,0,1-.56-.39,1.62,1.62,0,0,1-.34-.6,2.29,2.29,0,0,1-.11-.76,2.35,2.35,0,0,1,.12-.77,1.74,1.74,0,0,1,.35-.61,1.59,1.59,0,0,1,.55-.4,1.81,1.81,0,0,1,.72-.14,2.7,2.7,0,0,1,.49,0,2.52,2.52,0,0,1,.47.13l-.15.56a1.5,1.5,0,0,0-.34-.12,2.59,2.59,0,0,0-.41,0,1,1,0,0,0-.83.35,1.46,1.46,0,0,0-.29,1,2.2,2.2,0,0,0,.06.53,1.33,1.33,0,0,0,.21.43,1,1,0,0,0,.37.26,1.29,1.29,0,0,0,.55.1,2.34,2.34,0,0,0,.47,0,2.06,2.06,0,0,0,.32-.1l.1.54a.54.54,0,0,1-.17.07l-.23,0-.29.05Z"/><path class="cls-3" d="M150,36a6,6,0,0,1-.59.12,5.21,5.21,0,0,1-.85.07,1.87,1.87,0,0,1-.71-.13,1.13,1.13,0,0,1-.46-.34,1.53,1.53,0,0,1-.25-.53,2.82,2.82,0,0,1-.08-.68v-2h.65v1.9a1.71,1.71,0,0,0,.21,1,.8.8,0,0,0,.71.29h.22l.21,0,.18,0,.11,0V32.46H150Z"/><path class="cls-3" d="M152,35.63a1.28,1.28,0,0,0,.59-.1.36.36,0,0,0,.19-.34.45.45,0,0,0-.18-.38,3,3,0,0,0-.63-.31l-.4-.18a1.08,1.08,0,0,1-.33-.2.92.92,0,0,1-.23-.29,1,1,0,0,1-.08-.41.93.93,0,0,1,.36-.77,1.49,1.49,0,0,1,1-.28h.31l.28,0,.24,0,.16.05-.12.56a1.47,1.47,0,0,0-.33-.12,2.12,2.12,0,0,0-.54-.06,1.06,1.06,0,0,0-.48.11.38.38,0,0,0-.2.34.46.46,0,0,0,0,.21.44.44,0,0,0,.14.17,1,1,0,0,0,.23.13,3,3,0,0,0,.34.14,4,4,0,0,1,.46.19,1.74,1.74,0,0,1,.35.22,1.11,1.11,0,0,1,.22.3,1.16,1.16,0,0,1,.07.44.85.85,0,0,1-.37.76,1.82,1.82,0,0,1-1.07.26,2.63,2.63,0,0,1-.76-.08l-.37-.12.12-.56.36.13A2.25,2.25,0,0,0,152,35.63Z"/><path class="cls-3" d="M154.89,32.46h1.38V33h-1.38v1.68a1.87,1.87,0,0,0,.05.45.66.66,0,0,0,.12.28.6.6,0,0,0,.21.14.91.91,0,0,0,.3,0,1.53,1.53,0,0,0,.47-.06l.25-.1.12.54-.34.12a1.89,1.89,0,0,1-.56.08,1.72,1.72,0,0,1-.61-.1.93.93,0,0,1-.39-.28,1.13,1.13,0,0,1-.21-.47,3,3,0,0,1-.06-.64V31.44l.65-.11Z"/><path class="cls-3" d="M160.21,34.28a2.37,2.37,0,0,1-.12.78,1.91,1.91,0,0,1-.35.61,1.75,1.75,0,0,1-.55.38,1.75,1.75,0,0,1-1.37,0,1.6,1.6,0,0,1-.54-.38,1.93,1.93,0,0,1-.36-.61,2.59,2.59,0,0,1,0-1.56,1.93,1.93,0,0,1,.36-.61,1.63,1.63,0,0,1,.54-.39,1.87,1.87,0,0,1,1.37,0,1.78,1.78,0,0,1,.55.39,1.91,1.91,0,0,1,.35.61A2.37,2.37,0,0,1,160.21,34.28Zm-.67,0a1.61,1.61,0,0,0-.28-1,1,1,0,0,0-1.51,0,1.91,1.91,0,0,0,0,2,1,1,0,0,0,1.51,0A1.61,1.61,0,0,0,159.54,34.28Z"/><path class="cls-3" d="M161.13,32.56l.59-.11a4.36,4.36,0,0,1,.85-.07,1.45,1.45,0,0,1,.59.1,1,1,0,0,1,.4.27l.15-.1.26-.12.35-.1a1.68,1.68,0,0,1,.4,0,1.71,1.71,0,0,1,.69.12,1.11,1.11,0,0,1,.42.35,1.67,1.67,0,0,1,.2.53,4.68,4.68,0,0,1,.05.67V36.1h-.65V34.2a4.5,4.5,0,0,0,0-.56,1,1,0,0,0-.12-.38A.53.53,0,0,0,165,33a.88.88,0,0,0-.39-.07,1.4,1.4,0,0,0-.54.08,1,1,0,0,0-.29.16,2.36,2.36,0,0,1,.08.4,3.29,3.29,0,0,1,0,.45V36.1h-.65V34.2a4.5,4.5,0,0,0,0-.56,1.21,1.21,0,0,0-.13-.38.49.49,0,0,0-.24-.23.83.83,0,0,0-.38-.07h-.21l-.21,0-.19,0-.11,0V36.1h-.65Z"/><path class="cls-3" d="M167,34.29a2.2,2.2,0,0,1,.14-.85,1.65,1.65,0,0,1,.37-.6,1.58,1.58,0,0,1,.53-.35,1.62,1.62,0,0,1,.61-.12,1.39,1.39,0,0,1,1.13.46,2.1,2.1,0,0,1,.39,1.39v.24h-2.5a1.32,1.32,0,0,0,.33.85,1.21,1.21,0,0,0,.9.3,2.4,2.4,0,0,0,.58-.06,2,2,0,0,0,.35-.12l.09.55a1.75,1.75,0,0,1-.42.13,2.7,2.7,0,0,1-.67.07A2.23,2.23,0,0,1,168,36a1.58,1.58,0,0,1-.91-1A2.57,2.57,0,0,1,167,34.29Zm2.5-.36a1,1,0,0,0-.23-.72.75.75,0,0,0-.62-.29.87.87,0,0,0-.4.09,1,1,0,0,0-.47.55,1.18,1.18,0,0,0-.09.37Z"/><path class="cls-3" d="M172.42,32.38h.19l.21,0,.19,0,.13,0-.11.56-.25-.06a2,2,0,0,0-.46,0,1.47,1.47,0,0,0-.36,0l-.24,0V36.1h-.65V32.61a4.37,4.37,0,0,1,.58-.15A3.5,3.5,0,0,1,172.42,32.38Z"/><path class="cls-3" d="M176.24,35.63a1.31,1.31,0,0,0,.59-.1.36.36,0,0,0,.19-.34.44.44,0,0,0-.19-.38,2.68,2.68,0,0,0-.62-.31l-.4-.18a1.27,1.27,0,0,1-.34-.2,1.06,1.06,0,0,1-.22-.29.86.86,0,0,1-.08-.41,1,1,0,0,1,.35-.77,1.52,1.52,0,0,1,1-.28h.3l.29,0,.24,0,.15.05-.12.56A1.56,1.56,0,0,0,177,33a2.12,2.12,0,0,0-.54-.06A1,1,0,0,0,176,33a.36.36,0,0,0-.2.34.46.46,0,0,0,0,.21.55.55,0,0,0,.14.17,1.08,1.08,0,0,0,.24.13,2.73,2.73,0,0,0,.33.14,3.53,3.53,0,0,1,.47.19,1.42,1.42,0,0,1,.34.22.81.81,0,0,1,.22.3,1.15,1.15,0,0,1,.08.44.86.86,0,0,1-.38.76,1.79,1.79,0,0,1-1.06.26,2.59,2.59,0,0,1-.76-.08l-.37-.12.12-.56.36.13A2.25,2.25,0,0,0,176.24,35.63Z"/><path class="cls-3" d="M181.41,36l-.59.12a5.31,5.31,0,0,1-.85.07,1.84,1.84,0,0,1-.71-.13,1.13,1.13,0,0,1-.46-.34,1.37,1.37,0,0,1-.25-.53,2.82,2.82,0,0,1-.08-.68v-2h.65v1.9a1.63,1.63,0,0,0,.21,1,.8.8,0,0,0,.71.29h.21l.21,0,.18,0,.12,0V32.46h.65Z"/><path class="cls-3" d="M185.74,34.29a2.63,2.63,0,0,1-.11.76,1.91,1.91,0,0,1-.32.6,1.35,1.35,0,0,1-.52.39,1.52,1.52,0,0,1-.69.14,1.89,1.89,0,0,1-.56-.08,2.17,2.17,0,0,1-.36-.16v1.45h-.65V32.57l.58-.12a3.84,3.84,0,0,1,.8-.07,2.06,2.06,0,0,1,.76.14,1.56,1.56,0,0,1,.57.37,1.84,1.84,0,0,1,.37.6A2.48,2.48,0,0,1,185.74,34.29Zm-.68,0a1.39,1.39,0,0,0-.32-1,1.09,1.09,0,0,0-.84-.35l-.46,0-.26.05v2.3a1.47,1.47,0,0,0,.34.19,1.33,1.33,0,0,0,.49.09,1,1,0,0,0,.48-.1.9.9,0,0,0,.33-.28,1.33,1.33,0,0,0,.18-.42A2.18,2.18,0,0,0,185.06,34.29Z"/><path class="cls-3" d="M189.86,34.29a2.63,2.63,0,0,1-.11.76,1.73,1.73,0,0,1-.32.6,1.39,1.39,0,0,1-.51.39,1.59,1.59,0,0,1-.7.14,1.94,1.94,0,0,1-.56-.08,2.17,2.17,0,0,1-.36-.16v1.45h-.65V32.57l.58-.12a3.84,3.84,0,0,1,.8-.07,2.06,2.06,0,0,1,.76.14,1.56,1.56,0,0,1,.57.37,1.84,1.84,0,0,1,.37.6A2.24,2.24,0,0,1,189.86,34.29Zm-.68,0a1.39,1.39,0,0,0-.31-1A1.11,1.11,0,0,0,188,33l-.45,0-.27.05v2.3a1.57,1.57,0,0,0,.35.19,1.3,1.3,0,0,0,.49.09,1.06,1.06,0,0,0,.48-.1.87.87,0,0,0,.32-.28,1,1,0,0,0,.18-.42A2.18,2.18,0,0,0,189.18,34.29Z"/><path class="cls-3" d="M194,34.28a2.13,2.13,0,0,1-.13.78,1.74,1.74,0,0,1-.35.61,1.6,1.6,0,0,1-.54.38,1.77,1.77,0,0,1-1.38,0,1.6,1.6,0,0,1-.54-.38,1.74,1.74,0,0,1-.35-.61,2.41,2.41,0,0,1,0-1.56,1.74,1.74,0,0,1,.35-.61,1.63,1.63,0,0,1,.54-.39,1.9,1.9,0,0,1,1.38,0,1.63,1.63,0,0,1,.54.39,1.74,1.74,0,0,1,.35.61A2.13,2.13,0,0,1,194,34.28Zm-.68,0a1.54,1.54,0,0,0-.28-1,1,1,0,0,0-1.5,0,1.85,1.85,0,0,0,0,2,1,1,0,0,0,1.5,0A1.54,1.54,0,0,0,193.31,34.28Z"/><path class="cls-3" d="M196.25,32.38h.19l.22,0,.19,0,.13,0-.11.56-.26-.06a2,2,0,0,0-.46,0,1.47,1.47,0,0,0-.36,0l-.23,0V36.1h-.65V32.61a3.83,3.83,0,0,1,.57-.15A3.57,3.57,0,0,1,196.25,32.38Z"/><path class="cls-3" d="M198.22,32.46h1.38V33h-1.38v1.68a1.92,1.92,0,0,0,0,.45.81.81,0,0,0,.12.28.6.6,0,0,0,.21.14,1,1,0,0,0,.3,0,1.53,1.53,0,0,0,.47-.06l.25-.1.13.54-.35.12a1.89,1.89,0,0,1-.56.08,1.72,1.72,0,0,1-.61-.1.93.93,0,0,1-.39-.28,1.12,1.12,0,0,1-.2-.47,3,3,0,0,1-.06-.64V31.44l.65-.11Z"/></svg>