<svg id="Layer_1" data-name="Layer 1" xmlns="http://www.w3.org/2000/svg" viewBox="0 0 248 50"><defs><style>.cls-1{fill:#f60;}.cls-2{fill:#ff8939;}.cls-3{fill:#fff;}</style></defs><title>obejor</title><rect class="cls-1" y="-0.13" width="248" height="50"/><rect class="cls-2" y="0.07" width="78" height="50"/><path class="cls-3" d="M26.7,16.26c.11-.64.22-1.22.32-1.8,0-.17.13-.15.24-.15H48.74c-.06.34-.11.66-.16,1q-1.09,6.12-2.2,12.26c-.08.45-.17.91-.23,1.37,0,.22-.11.29-.34.29H24.65l-.23,0,.2-1.28H21.21a.67.67,0,0,1-.67-.47.61.61,0,0,1,.25-.7,1,1,0,0,1,.46-.12h9.68a.65.65,0,0,0,.22-1.27,1.94,1.94,0,0,0-.34,0H25.15l.33-1.95H19.22a.65.65,0,1,1,0-1.3c.66,0,1.31,0,2,0H33.62a.67.67,0,0,0,.65-.67.65.65,0,0,0-.66-.62c-1.22,0-2.44,0-3.66,0h-4l.33-1.94H16.73a1.19,1.19,0,0,1-.33,0,.64.64,0,0,1-.47-.69.66.66,0,0,1,.66-.58H30.88a.68.68,0,0,0,.75-.65.66.66,0,0,0-.74-.64H26.7Z"/><path class="cls-3" d="M35.67,33.2a3.34,3.34,0,0,0-.52-2.62l.3,0H46.83c.38,0,.39,0,.45-.36.58-3.29,1.15-6.59,1.72-9.88l.48-2.71a.86.86,0,0,1,1-.79h5.93c.43,0,.56.09.69.5.61,1.89,1.22,3.78,1.81,5.67a1.7,1.7,0,0,1,0,.71c-.38,2.17-.77,4.33-1.16,6.5,0,.11,0,.22,0,.32.52.24.57.35.48.91-.06.35-.12.71-.19,1.06a.81.81,0,0,1-.84.71H55.94a8.52,8.52,0,0,0,0-1.13,3.22,3.22,0,0,0-3.63-2.79A4.91,4.91,0,0,0,48.08,33c0,.21-.16.2-.31.2H35.67Zm21.9-9.88c0-.08,0-.14,0-.21Q56.74,20.7,56,18.28c0-.15-.14-.17-.27-.17q-2.4,0-4.8,0c-.16,0-.23.05-.26.22-.16.94-.33,1.88-.49,2.82-.13.72-.25,1.44-.37,2.17Z"/><path class="cls-3" d="M31.32,35.84a2.16,2.16,0,0,1-2.21-2.53,3.29,3.29,0,0,1,2.68-2.71,2.19,2.19,0,0,1,2.52,2.85A3.25,3.25,0,0,1,31.32,35.84Zm-.95-2.49a1,1,0,0,0,.91,1.09A1.6,1.6,0,0,0,33,33a1,1,0,0,0-.78-1.05A1.58,1.58,0,0,0,30.37,33.35Z"/><path class="cls-3" d="M54.64,32.81a3.18,3.18,0,0,1-3.41,3,2.18,2.18,0,0,1-1.78-2.92,3.17,3.17,0,0,1,2.75-2.32A2.13,2.13,0,0,1,54.64,32.81Zm-1.35.13a1,1,0,0,0-.88-1,1.59,1.59,0,0,0-1.77,1.23,1.08,1.08,0,0,0,1,1.34A1.62,1.62,0,0,0,53.29,32.94Z"/><path class="cls-3" d="M29.16,30.66a4.79,4.79,0,0,0-1.38,2.54H24.5a.57.57,0,0,1-.64-.74c.06-.4.13-.8.2-1.2a.76.76,0,0,1,.73-.65c1.44,0,2.89,0,4.33,0Z"/><path class="cls-3" d="M107.6,19.44a5.72,5.72,0,0,1-.39,2.2,4.08,4.08,0,0,1-1.11,1.55,4.85,4.85,0,0,1-1.76.93,8.31,8.31,0,0,1-2.32.3c-.4,0-.85,0-1.38-.05a11.38,11.38,0,0,1-1.54-.2V14.72a13.13,13.13,0,0,1,1.58-.19c.55,0,1,0,1.41,0a8.79,8.79,0,0,1,2.26.28,4.63,4.63,0,0,1,1.74.89,3.82,3.82,0,0,1,1.12,1.54A5.81,5.81,0,0,1,107.6,19.44Zm-6.31,3.08.36,0h.48a3.23,3.23,0,0,0,2.43-.83,3.19,3.19,0,0,0,.79-2.28,3.17,3.17,0,0,0-.76-2.31,3.2,3.2,0,0,0-2.39-.79h-.46l-.45,0Z"/><path class="cls-3" d="M108.93,20.67a4.5,4.5,0,0,1,.3-1.71,3.83,3.83,0,0,1,.79-1.23,3.35,3.35,0,0,1,1.13-.74,3.5,3.5,0,0,1,1.31-.25,3.25,3.25,0,0,1,2.48,1,4,4,0,0,1,.91,2.82c0,.12,0,.25,0,.4s0,.27,0,.38h-4.74a1.38,1.38,0,0,0,.61,1,2.34,2.34,0,0,0,1.42.38,6,6,0,0,0,1.13-.1,4.29,4.29,0,0,0,.9-.26l.28,1.69a2.91,2.91,0,0,1-.44.17l-.63.15-.73.1a6.85,6.85,0,0,1-.79,0,4.53,4.53,0,0,1-1.72-.29,3.23,3.23,0,0,1-1.94-2A4.88,4.88,0,0,1,108.93,20.67Zm4.9-.8a2.18,2.18,0,0,0-.09-.51,1.22,1.22,0,0,0-.24-.45,1.31,1.31,0,0,0-.4-.33,1.41,1.41,0,0,0-.61-.12,1.34,1.34,0,0,0-.6.12,1.21,1.21,0,0,0-.42.31,1.31,1.31,0,0,0-.26.46,3.34,3.34,0,0,0-.14.52Z"/><path class="cls-3" d="M120.4,24.44a5.28,5.28,0,0,1-1.48-.2,2.13,2.13,0,0,1-.89-.51,1.67,1.67,0,0,1-.45-.8,4.21,4.21,0,0,1-.12-1.05V13.77l2.08-.34v8a2.57,2.57,0,0,0,0,.5.81.81,0,0,0,.16.38.91.91,0,0,0,.34.25,1.81,1.81,0,0,0,.6.12Z"/><path class="cls-3" d="M124.16,14.8a1.14,1.14,0,0,1-.37.91,1.26,1.26,0,0,1-.87.33,1.28,1.28,0,0,1-.88-.33,1.29,1.29,0,0,1,0-1.81,1.28,1.28,0,0,1,.88-.33,1.26,1.26,0,0,1,.87.33A1.13,1.13,0,0,1,124.16,14.8ZM124,24.3h-2.09V16.93H124Z"/><path class="cls-3" d="M127.72,24.3c-.48-.94-1-2-1.46-3.28s-1-2.61-1.4-4.09h2.22c.09.37.2.76.33,1.19s.26.85.39,1.28.27.86.41,1.27.27.79.4,1.12c.12-.33.25-.71.39-1.12s.28-.83.42-1.27l.39-1.28c.13-.43.24-.82.33-1.19h2.16c-.44,1.48-.91,2.84-1.4,4.09s-1,2.34-1.45,3.28Z"/><path class="cls-3" d="M132.86,20.67a4.5,4.5,0,0,1,.3-1.71,3.67,3.67,0,0,1,.79-1.23,3.26,3.26,0,0,1,1.13-.74,3.47,3.47,0,0,1,1.31-.25,3.23,3.23,0,0,1,2.47,1,3.94,3.94,0,0,1,.91,2.82c0,.12,0,.25,0,.4s0,.27,0,.38H135a1.4,1.4,0,0,0,.6,1,2.38,2.38,0,0,0,1.43.38,6.09,6.09,0,0,0,1.13-.1,4.29,4.29,0,0,0,.9-.26l.28,1.69a2.7,2.7,0,0,1-.45.17l-.62.15-.74.1a6.79,6.79,0,0,1-.78,0A4.58,4.58,0,0,1,135,24.2a3.39,3.39,0,0,1-1.22-.81,3.13,3.13,0,0,1-.71-1.21A4.88,4.88,0,0,1,132.86,20.67Zm4.9-.8a2.18,2.18,0,0,0-.09-.51,1.22,1.22,0,0,0-.24-.45,1.2,1.2,0,0,0-1-.45,1.4,1.4,0,0,0-.6.12,1.21,1.21,0,0,0-.42.31,1.48,1.48,0,0,0-.26.46,3.3,3.3,0,0,0-.13.52Z"/><path class="cls-3" d="M145.82,18.78l-.66-.15a4.14,4.14,0,0,0-.81-.07l-.47,0a3.29,3.29,0,0,0-.41.08V24.3h-2.09v-7a11.57,11.57,0,0,1,1.33-.38,8,8,0,0,1,1.7-.17l.4,0a3.93,3.93,0,0,1,.48.06l.48.08a1.9,1.9,0,0,1,.4.12Z"/><path class="cls-3" d="M154.28,16.93q-.63,2.13-1.32,4c-.46,1.24-1,2.45-1.5,3.62a10.08,10.08,0,0,1-.59,1.07,3.26,3.26,0,0,1-.65.72,2,2,0,0,1-.79.42,3.51,3.51,0,0,1-1,.14,4.16,4.16,0,0,1-.9-.09,3.25,3.25,0,0,1-.68-.21l.36-1.66a4.44,4.44,0,0,0,.57.15,3.12,3.12,0,0,0,.54,0,1.17,1.17,0,0,0,.86-.3,2.45,2.45,0,0,0,.51-.83c-.48-.93-.95-2-1.43-3.14a38.78,38.78,0,0,1-1.34-3.92h2.21c.09.37.2.76.33,1.19s.26.85.4,1.28.28.86.43,1.27.28.79.41,1.12c.12-.33.25-.71.38-1.12s.26-.83.39-1.27.25-.86.36-1.28.23-.82.32-1.19Z"/><path class="cls-3" d="M102,33.94c.07.09.17.21.28.37s.24.32.36.5.24.38.36.58a4.6,4.6,0,0,1,.3.58h-.74c-.09-.18-.2-.36-.31-.54s-.22-.36-.33-.52-.22-.32-.33-.47l-.3-.38h-1V36h-.68V31.19a3.74,3.74,0,0,1,.64-.1l.64,0a2.7,2.7,0,0,1,1.56.38A1.32,1.32,0,0,1,103,32.6a1.37,1.37,0,0,1-.26.83A1.48,1.48,0,0,1,102,33.94Zm-1-2.28-.66,0v1.83h.48a6.05,6.05,0,0,0,.63,0,1.53,1.53,0,0,0,.47-.14.66.66,0,0,0,.3-.27,1,1,0,0,0,.1-.48.88.88,0,0,0-.1-.45.81.81,0,0,0-.29-.29,1,1,0,0,0-.42-.14A2.76,2.76,0,0,0,100.93,31.66Z"/><path class="cls-3" d="M103.74,34.15a2.38,2.38,0,0,1,.14-.84,1.81,1.81,0,0,1,.38-.6,1.44,1.44,0,0,1,.53-.35,1.62,1.62,0,0,1,.61-.12,1.39,1.39,0,0,1,1.13.46,2.1,2.1,0,0,1,.39,1.39v.23h-2.5a1.33,1.33,0,0,0,.33.86,1.19,1.19,0,0,0,.9.3,2.4,2.4,0,0,0,.58-.06,2,2,0,0,0,.35-.12l.09.55a1.75,1.75,0,0,1-.42.13,2.7,2.7,0,0,1-.67.07,2.23,2.23,0,0,1-.82-.14,1.43,1.43,0,0,1-.57-.4,1.54,1.54,0,0,1-.34-.6A2.58,2.58,0,0,1,103.74,34.15Zm2.5-.35a1.08,1.08,0,0,0-.22-.73.75.75,0,0,0-.62-.28.87.87,0,0,0-.4.09,1.06,1.06,0,0,0-.29.22,1.35,1.35,0,0,0-.19.33,1.53,1.53,0,0,0-.08.37Z"/><path class="cls-3" d="M109,36a1.26,1.26,0,0,1-.85-.26,1,1,0,0,1-.25-.76V30.65l.65-.11v4.37a1,1,0,0,0,0,.27.24.24,0,0,0,.09.16.29.29,0,0,0,.16.1l.26.05Z"/><path class="cls-3" d="M110.09,31.67a.4.4,0,0,1-.29-.12.37.37,0,0,1-.13-.31.39.39,0,0,1,.13-.31.39.39,0,0,1,.29-.11.4.4,0,0,1,.3.11.41.41,0,0,1,.12.31.4.4,0,0,1-.12.31A.41.41,0,0,1,110.09,31.67Zm.33,4.3h-.65V32.33h.65Z"/><path class="cls-3" d="M112.72,32.24a1.83,1.83,0,0,1,.66.1,1,1,0,0,1,.43.29,1.11,1.11,0,0,1,.24.44,2,2,0,0,1,.07.56V35.9l-.24,0-.34.05-.41,0h-.43a2.49,2.49,0,0,1-.57-.06,1.32,1.32,0,0,1-.45-.2.94.94,0,0,1-.29-.36,1.27,1.27,0,0,1-.11-.54.92.92,0,0,1,.13-.51,1,1,0,0,1,.33-.36,1.67,1.67,0,0,1,.49-.19,2.81,2.81,0,0,1,.59-.06h.2l.2,0,.16,0a.22.22,0,0,1,.1,0v-.18a1.66,1.66,0,0,0,0-.32.8.8,0,0,0-.13-.28.56.56,0,0,0-.25-.2.94.94,0,0,0-.41-.07,3.13,3.13,0,0,0-.56,0,1.47,1.47,0,0,0-.36.1l-.08-.54a1.75,1.75,0,0,1,.42-.11A3.26,3.26,0,0,1,112.72,32.24Zm0,3.26h.41l.3,0V34.37a.54.54,0,0,0-.23-.06,2,2,0,0,0-.38,0l-.31,0a1,1,0,0,0-.3.09.58.58,0,0,0-.23.18.5.5,0,0,0-.09.31.52.52,0,0,0,.23.48A1.13,1.13,0,0,0,112.77,35.5Z"/><path class="cls-3" d="M115.85,32.49a1.57,1.57,0,0,1,.36-.16,1.55,1.55,0,0,1,.55-.09,1.68,1.68,0,0,1,.7.14,1.58,1.58,0,0,1,.52.4,1.55,1.55,0,0,1,.31.6,2.35,2.35,0,0,1,.11.77,2.18,2.18,0,0,1-.13.79,1.63,1.63,0,0,1-.36.6,1.67,1.67,0,0,1-.58.38,2,2,0,0,1-.75.13,4.79,4.79,0,0,1-.81-.06c-.23,0-.42-.09-.57-.13V30.65l.65-.11Zm0,2.91a1.19,1.19,0,0,0,.27.05,2.81,2.81,0,0,0,.45,0,1.09,1.09,0,0,0,.84-.35,1.41,1.41,0,0,0,.31-1,3,3,0,0,0,0-.53,1.33,1.33,0,0,0-.18-.42,1,1,0,0,0-.33-.28,1,1,0,0,0-.48-.1,1.3,1.3,0,0,0-.49.09,1.17,1.17,0,0,0-.34.19Z"/><path class="cls-3" d="M120.41,36a1.24,1.24,0,0,1-.85-.26,1,1,0,0,1-.26-.76V30.65l.66-.11v4.37a1.06,1.06,0,0,0,0,.27.35.35,0,0,0,.09.16.37.37,0,0,0,.17.1l.26.05Z"/><path class="cls-3" d="M121,34.15a2.18,2.18,0,0,1,.14-.84,1.65,1.65,0,0,1,.37-.6,1.44,1.44,0,0,1,.53-.35,1.67,1.67,0,0,1,.62-.12,1.37,1.37,0,0,1,1.12.46,2.1,2.1,0,0,1,.4,1.39v.11s0,.09,0,.12h-2.49a1.23,1.23,0,0,0,.33.86,1.17,1.17,0,0,0,.89.3,2.4,2.4,0,0,0,.58-.06,2,2,0,0,0,.35-.12l.09.55a1.8,1.8,0,0,1-.41.13,2.84,2.84,0,0,1-.68.07,2.23,2.23,0,0,1-.82-.14,1.58,1.58,0,0,1-.57-.4,1.52,1.52,0,0,1-.33-.6A2.29,2.29,0,0,1,121,34.15Zm2.5-.35a1.13,1.13,0,0,0-.22-.73.78.78,0,0,0-.63-.28.87.87,0,0,0-.4.09.88.88,0,0,0-.47.55,1.18,1.18,0,0,0-.09.37Z"/><path class="cls-3" d="M127.94,32.24a1.83,1.83,0,0,1,.66.1,1,1,0,0,1,.43.29,1.11,1.11,0,0,1,.24.44,2.38,2.38,0,0,1,.07.56V35.9l-.24,0-.34.05-.41,0h-.43a2.49,2.49,0,0,1-.57-.06,1.32,1.32,0,0,1-.45-.2.86.86,0,0,1-.29-.36,1.27,1.27,0,0,1-.11-.54,1,1,0,0,1,.12-.51A1.07,1.07,0,0,1,127,34a1.67,1.67,0,0,1,.49-.19,2.72,2.72,0,0,1,.58-.06h.21l.2,0,.16,0a.22.22,0,0,1,.1,0v-.18a1.12,1.12,0,0,0,0-.32.65.65,0,0,0-.12-.28.62.62,0,0,0-.25-.2,1,1,0,0,0-.41-.07,3.13,3.13,0,0,0-.56,0,1.47,1.47,0,0,0-.36.1l-.08-.54a1.52,1.52,0,0,1,.42-.11A3.26,3.26,0,0,1,127.94,32.24Zm0,3.26h.41l.3,0V34.37a.54.54,0,0,0-.23-.06,2,2,0,0,0-.38,0l-.31,0a1,1,0,0,0-.3.09.58.58,0,0,0-.23.18.5.5,0,0,0-.09.31.51.51,0,0,0,.22.48A1.2,1.2,0,0,0,128,35.5Z"/><path class="cls-3" d="M130.41,32.43l.6-.12a5.39,5.39,0,0,1,.85-.06,1.87,1.87,0,0,1,.72.12,1.17,1.17,0,0,1,.46.35,1.13,1.13,0,0,1,.24.53,2.81,2.81,0,0,1,.07.67v2h-.65V34.06a3.18,3.18,0,0,0,0-.57,1,1,0,0,0-.15-.39.74.74,0,0,0-.28-.21,1.42,1.42,0,0,0-.44-.06h-.21l-.22,0-.18,0-.12,0V36h-.65Z"/><path class="cls-3" d="M136.78,30.65l.66-.11v5.32c-.15,0-.35.09-.58.13a4.74,4.74,0,0,1-.8.06,2,2,0,0,1-.76-.13,1.63,1.63,0,0,1-.57-.38,1.65,1.65,0,0,1-.37-.6,2.18,2.18,0,0,1-.13-.79,2.65,2.65,0,0,1,.11-.77,1.57,1.57,0,0,1,.32-.6,1.54,1.54,0,0,1,.51-.4,1.71,1.71,0,0,1,.7-.14,1.55,1.55,0,0,1,.55.09,1.39,1.39,0,0,1,.36.16Zm0,2.45a1.05,1.05,0,0,0-.34-.19,1.3,1.3,0,0,0-.49-.09,1,1,0,0,0-.48.1.87.87,0,0,0-.32.28,1.15,1.15,0,0,0-.19.42,3,3,0,0,0-.05.53,1.41,1.41,0,0,0,.31,1,1.09,1.09,0,0,0,.84.35,2.81,2.81,0,0,0,.45,0,1.19,1.19,0,0,0,.27-.05Z"/><path class="cls-3" d="M141,35.5a1.29,1.29,0,0,0,.59-.11.35.35,0,0,0,.19-.33.44.44,0,0,0-.19-.38,2.68,2.68,0,0,0-.62-.31l-.4-.18a1.6,1.6,0,0,1-.34-.2,1.06,1.06,0,0,1-.22-.29,1,1,0,0,1-.08-.41.94.94,0,0,1,.35-.77,1.54,1.54,0,0,1,1-.28h.3l.29,0,.24.05.15,0-.11.56a1.47,1.47,0,0,0-.33-.12,2.12,2.12,0,0,0-.54-.06,1.06,1.06,0,0,0-.48.11.37.37,0,0,0-.2.34.46.46,0,0,0,0,.21.55.55,0,0,0,.14.17,1.73,1.73,0,0,0,.24.13l.33.14a3.53,3.53,0,0,1,.47.19,1.17,1.17,0,0,1,.34.22.73.73,0,0,1,.22.3,1.15,1.15,0,0,1,.08.44.87.87,0,0,1-.37.76,1.82,1.82,0,0,1-1.07.26,3,3,0,0,1-.76-.08l-.37-.12.12-.56.36.13A2.25,2.25,0,0,0,141,35.5Z"/><path class="cls-3" d="M146.27,36c-.13-.34-.27-.72-.42-1.15s-.28-.88-.4-1.35c-.12.47-.25.91-.4,1.35s-.28.81-.41,1.15h-.57q-.31-.72-.63-1.65c-.2-.61-.4-1.28-.58-2h.7c.05.22.1.46.17.71s.13.52.2.77.15.51.23.74.16.45.23.63l.23-.7c.08-.24.15-.49.22-.74s.14-.5.2-.74.12-.46.16-.67h.54c0,.21.1.43.16.67s.12.49.19.74.15.5.22.74.16.48.24.7c.07-.18.14-.39.22-.63s.15-.48.23-.74l.21-.77c.06-.25.12-.49.16-.71h.68c-.19.71-.38,1.38-.58,2a17.38,17.38,0,0,1-.64,1.65Z"/><path class="cls-3" d="M149.05,31.67a.4.4,0,0,1-.29-.12.41.41,0,0,1-.13-.31.42.42,0,0,1,.13-.31.39.39,0,0,1,.29-.11.4.4,0,0,1,.3.11.41.41,0,0,1,.12.31.4.4,0,0,1-.12.31A.41.41,0,0,1,149.05,31.67Zm.33,4.3h-.65V32.33h.65Z"/><path class="cls-3" d="M151.92,30.54a2.41,2.41,0,0,1,.5,0l.29.07-.12.56-.24-.08a2,2,0,0,0-.38,0,.74.74,0,0,0-.63.24,1.07,1.07,0,0,0-.19.67v.32h1.4v.54h-1.4V36h-.65V32a1.54,1.54,0,0,1,.35-1.08A1.34,1.34,0,0,1,151.92,30.54Z"/><path class="cls-3" d="M153.81,32.33h1.38v.54h-1.38v1.68a1.75,1.75,0,0,0,.05.45.71.71,0,0,0,.12.29.6.6,0,0,0,.21.14.91.91,0,0,0,.3,0,1.26,1.26,0,0,0,.47-.07l.25-.09.12.54L155,36a1.91,1.91,0,0,1-.56.07,1.75,1.75,0,0,1-.61-.09.93.93,0,0,1-.39-.28,1.13,1.13,0,0,1-.21-.47,3,3,0,0,1-.06-.64V31.31l.65-.11Z"/><path class="cls-3" d="M157.64,32.43l.59-.12a5.39,5.39,0,0,1,.85-.06,1.92,1.92,0,0,1,.73.12,1.14,1.14,0,0,1,.45.35,1.24,1.24,0,0,1,.25.53,3.45,3.45,0,0,1,.07.67v2h-.66V34.06a3.18,3.18,0,0,0,0-.57,1,1,0,0,0-.15-.39.67.67,0,0,0-.28-.21,1.35,1.35,0,0,0-.43-.06h-.22l-.22,0-.18,0-.11,0V36h-.65Z"/><path class="cls-3" d="M162.83,32.24a1.83,1.83,0,0,1,.66.1,1,1,0,0,1,.43.29,1,1,0,0,1,.24.44,2,2,0,0,1,.07.56V35.9l-.23,0-.34.05-.41,0h-.44a2.49,2.49,0,0,1-.57-.06,1.32,1.32,0,0,1-.45-.2.94.94,0,0,1-.29-.36,1.27,1.27,0,0,1-.11-.54,1,1,0,0,1,.13-.51,1,1,0,0,1,.33-.36,1.67,1.67,0,0,1,.49-.19,2.81,2.81,0,0,1,.59-.06h.2l.2,0,.17,0,.09,0v-.18a1.66,1.66,0,0,0,0-.32.8.8,0,0,0-.13-.28.56.56,0,0,0-.25-.2.94.94,0,0,0-.41-.07,3.13,3.13,0,0,0-.56,0,1.47,1.47,0,0,0-.36.1l-.08-.54a1.75,1.75,0,0,1,.42-.11A3.26,3.26,0,0,1,162.83,32.24Zm.06,3.26h.4l.3,0V34.37a.49.49,0,0,0-.22-.06,2.21,2.21,0,0,0-.39,0l-.31,0a1,1,0,0,0-.3.09.58.58,0,0,0-.23.18.5.5,0,0,0-.09.31.52.52,0,0,0,.23.48A1.17,1.17,0,0,0,162.89,35.5Z"/><path class="cls-3" d="M165.92,32.33h1.38v.54h-1.38v1.68a1.82,1.82,0,0,0,0,.45.87.87,0,0,0,.12.29.6.6,0,0,0,.21.14,1,1,0,0,0,.3,0,1.23,1.23,0,0,0,.47-.07l.25-.09.13.54-.35.12a1.91,1.91,0,0,1-.56.07,1.78,1.78,0,0,1-.61-.09.93.93,0,0,1-.39-.28,1.12,1.12,0,0,1-.2-.47,3,3,0,0,1-.06-.64V31.31l.65-.11Z"/><path class="cls-3" d="M168.44,31.67a.4.4,0,0,1-.29-.12.37.37,0,0,1-.13-.31.39.39,0,0,1,.13-.31.39.39,0,0,1,.29-.11.4.4,0,0,1,.3.11.41.41,0,0,1,.12.31.4.4,0,0,1-.12.31A.41.41,0,0,1,168.44,31.67Zm.33,4.3h-.65V32.33h.65Z"/><path class="cls-3" d="M173.11,34.15a2.36,2.36,0,0,1-.13.78,1.62,1.62,0,0,1-.9,1,1.69,1.69,0,0,1-.68.14,1.74,1.74,0,0,1-.69-.14,1.5,1.5,0,0,1-.54-.39,1.61,1.61,0,0,1-.35-.6,2.41,2.41,0,0,1,0-1.56,1.74,1.74,0,0,1,.35-.61,1.5,1.5,0,0,1,.54-.39,1.73,1.73,0,0,1,.69-.13,1.68,1.68,0,0,1,.68.13,1.63,1.63,0,0,1,.55.39,1.74,1.74,0,0,1,.35.61A2.36,2.36,0,0,1,173.11,34.15Zm-.68,0a1.61,1.61,0,0,0-.28-1,.9.9,0,0,0-.75-.36.88.88,0,0,0-.75.36,1.54,1.54,0,0,0-.28,1,1.51,1.51,0,0,0,.28,1,.88.88,0,0,0,.75.36.9.9,0,0,0,.75-.36A1.57,1.57,0,0,0,172.43,34.15Z"/><path class="cls-3" d="M174,32.43l.6-.12a5.39,5.39,0,0,1,.85-.06,1.87,1.87,0,0,1,.72.12,1.17,1.17,0,0,1,.46.35,1.13,1.13,0,0,1,.24.53,2.81,2.81,0,0,1,.07.67v2h-.65V34.06a3.18,3.18,0,0,0,0-.57,1,1,0,0,0-.15-.39.74.74,0,0,0-.28-.21,1.42,1.42,0,0,0-.44-.06h-.22l-.21,0-.18,0-.12,0V36H174Z"/><path class="cls-3" d="M180.92,36c-.13-.34-.27-.72-.42-1.15s-.28-.88-.4-1.35c-.12.47-.26.91-.4,1.35s-.28.81-.41,1.15h-.57a15.12,15.12,0,0,1-.63-1.65c-.21-.61-.4-1.28-.58-2h.7c0,.22.1.46.17.71s.13.52.2.77.15.51.23.74.15.45.23.63l.23-.7c.08-.24.15-.49.22-.74s.14-.5.2-.74.12-.46.16-.67h.54c0,.21.1.43.16.67s.12.49.19.74.15.5.22.74.16.48.24.7c.07-.18.14-.39.22-.63s.15-.48.23-.74l.21-.77c.06-.25.12-.49.16-.71h.68c-.19.71-.38,1.38-.58,2a17.38,17.38,0,0,1-.64,1.65Z"/><path class="cls-3" d="M183.7,31.67a.4.4,0,0,1-.29-.12.41.41,0,0,1-.13-.31.42.42,0,0,1,.13-.31.39.39,0,0,1,.29-.11.4.4,0,0,1,.3.11.41.41,0,0,1,.12.31.4.4,0,0,1-.12.31A.41.41,0,0,1,183.7,31.67ZM184,36h-.65V32.33H184Z"/><path class="cls-3" d="M187.5,30.65l.66-.11v5.32a5.91,5.91,0,0,1-.58.13,4.74,4.74,0,0,1-.8.06,2.06,2.06,0,0,1-.76-.13,1.73,1.73,0,0,1-.57-.38,1.65,1.65,0,0,1-.37-.6,2.18,2.18,0,0,1-.13-.79,2.65,2.65,0,0,1,.11-.77,1.57,1.57,0,0,1,.32-.6,1.54,1.54,0,0,1,.51-.4,1.71,1.71,0,0,1,.7-.14,1.55,1.55,0,0,1,.55.09,1.24,1.24,0,0,1,.36.16Zm0,2.45a1.05,1.05,0,0,0-.34-.19,1.3,1.3,0,0,0-.49-.09,1.06,1.06,0,0,0-.48.1.87.87,0,0,0-.32.28,1.15,1.15,0,0,0-.19.42,3,3,0,0,0-.05.53,1.41,1.41,0,0,0,.31,1,1.09,1.09,0,0,0,.84.35,2.81,2.81,0,0,0,.45,0,1.19,1.19,0,0,0,.27-.05Z"/><path class="cls-3" d="M189.07,34.15a2.38,2.38,0,0,1,.14-.84,2,2,0,0,1,.37-.6,1.57,1.57,0,0,1,.54-.35,1.62,1.62,0,0,1,.61-.12,1.39,1.39,0,0,1,1.13.46,2.1,2.1,0,0,1,.39,1.39v.11a.41.41,0,0,1,0,.12h-2.49a1.33,1.33,0,0,0,.33.86,1.19,1.19,0,0,0,.9.3,2.26,2.26,0,0,0,.57-.06,1.86,1.86,0,0,0,.36-.12l.09.55a1.75,1.75,0,0,1-.42.13,2.76,2.76,0,0,1-.67.07,2.33,2.33,0,0,1-.83-.14,1.58,1.58,0,0,1-.57-.4,1.52,1.52,0,0,1-.33-.6A2.58,2.58,0,0,1,189.07,34.15Zm2.5-.35a1.08,1.08,0,0,0-.22-.73.75.75,0,0,0-.63-.28.83.83,0,0,0-.39.09.93.93,0,0,0-.29.22,1.35,1.35,0,0,0-.19.33,1.53,1.53,0,0,0-.08.37Z"/><path class="cls-3" d="M197.16,30.65l.65-.11v5.32a5.91,5.91,0,0,1-.58.13,4.74,4.74,0,0,1-.8.06,2.06,2.06,0,0,1-.76-.13,1.73,1.73,0,0,1-.57-.38,1.65,1.65,0,0,1-.37-.6,2.42,2.42,0,0,1-.13-.79,2.65,2.65,0,0,1,.11-.77,1.57,1.57,0,0,1,.32-.6,1.54,1.54,0,0,1,.51-.4,1.75,1.75,0,0,1,.7-.14,1.6,1.6,0,0,1,.56.09,1.57,1.57,0,0,1,.36.16Zm0,2.45a1.43,1.43,0,0,0-.84-.28,1.06,1.06,0,0,0-.48.1.87.87,0,0,0-.32.28,1.14,1.14,0,0,0-.18.42,2.26,2.26,0,0,0-.06.53,1.41,1.41,0,0,0,.32,1,1.09,1.09,0,0,0,.84.35,2.76,2.76,0,0,0,.44,0,1.43,1.43,0,0,0,.28-.05Z"/><path class="cls-3" d="M198.73,34.15a2.18,2.18,0,0,1,.14-.84,1.65,1.65,0,0,1,.37-.6,1.44,1.44,0,0,1,.53-.35,1.62,1.62,0,0,1,.61-.12,1.39,1.39,0,0,1,1.13.46,2.1,2.1,0,0,1,.39,1.39v.23h-2.5a1.33,1.33,0,0,0,.33.86,1.19,1.19,0,0,0,.9.3,2.4,2.4,0,0,0,.58-.06,2,2,0,0,0,.35-.12l.09.55a1.75,1.75,0,0,1-.42.13,2.7,2.7,0,0,1-.67.07,2.23,2.23,0,0,1-.82-.14,1.58,1.58,0,0,1-.57-.4,1.68,1.68,0,0,1-.34-.6A2.59,2.59,0,0,1,198.73,34.15Zm2.49-.35a1,1,0,0,0-.22-.73.75.75,0,0,0-.62-.28.87.87,0,0,0-.4.09.88.88,0,0,0-.47.55,1.18,1.18,0,0,0-.09.37Z"/><path class="cls-3" d="M203.93,36a1.26,1.26,0,0,1-.85-.26,1,1,0,0,1-.25-.76V30.65l.65-.11v4.37a1,1,0,0,0,0,.27.28.28,0,0,0,.09.16.32.32,0,0,0,.17.1l.25.05Z"/><path class="cls-3" d="M205.07,31.67a.4.4,0,0,1-.29-.12.41.41,0,0,1-.13-.31.42.42,0,0,1,.13-.31.39.39,0,0,1,.29-.11.4.4,0,0,1,.3.11.41.41,0,0,1,.12.31.4.4,0,0,1-.12.31A.41.41,0,0,1,205.07,31.67Zm.33,4.3h-.65V32.33h.65Z"/><path class="cls-3" d="M209.37,32.33a19.57,19.57,0,0,1-.65,2c-.24.62-.48,1.18-.71,1.68h-.58c-.23-.5-.47-1.06-.71-1.68a17.28,17.28,0,0,1-.64-2h.69c.06.23.13.47.2.73s.16.52.25.77.17.5.26.74.17.45.25.64c.08-.19.17-.4.26-.64s.17-.49.26-.74.17-.51.24-.77.15-.5.2-.73Z"/><path class="cls-3" d="M209.74,34.15a2.18,2.18,0,0,1,.14-.84,1.65,1.65,0,0,1,.37-.6,1.44,1.44,0,0,1,.53-.35,1.62,1.62,0,0,1,.61-.12,1.39,1.39,0,0,1,1.13.46,2.1,2.1,0,0,1,.39,1.39v.23h-2.49a1.28,1.28,0,0,0,.32.86,1.21,1.21,0,0,0,.9.3,2.4,2.4,0,0,0,.58-.06,2,2,0,0,0,.35-.12l.09.55a1.8,1.8,0,0,1-.41.13,2.84,2.84,0,0,1-.68.07,2.23,2.23,0,0,1-.82-.14,1.58,1.58,0,0,1-.57-.4,1.68,1.68,0,0,1-.34-.6A2.59,2.59,0,0,1,209.74,34.15Zm2.5-.35a1.08,1.08,0,0,0-.23-.73.75.75,0,0,0-.62-.28.87.87,0,0,0-.4.09.88.88,0,0,0-.47.55,1.18,1.18,0,0,0-.09.37Z"/><path class="cls-3" d="M215.2,32.25h.19l.21,0,.19,0,.13,0-.11.56-.25-.06a2,2,0,0,0-.46,0,1.47,1.47,0,0,0-.36,0l-.24,0V36h-.65V32.48c.16,0,.35-.11.58-.16A4.31,4.31,0,0,1,215.2,32.25Z"/><path class="cls-3" d="M216.27,36.65l.2.06a1.18,1.18,0,0,0,.25,0,.93.93,0,0,0,.6-.18,1.56,1.56,0,0,0,.39-.55c-.29-.56-.57-1.16-.82-1.78a15.3,15.3,0,0,1-.64-1.91h.7c.05.21.12.43.19.68s.15.49.24.75.18.51.29.77.21.5.32.74c.18-.49.33-1,.46-1.46s.26-1,.37-1.48h.67c-.16.68-.35,1.34-.56,2a18.18,18.18,0,0,1-.66,1.77,3.36,3.36,0,0,1-.29.54,1.77,1.77,0,0,1-.33.38,1.23,1.23,0,0,1-.41.21,1.72,1.72,0,0,1-.52.07h-.16l-.16,0-.15,0-.09,0Z"/></svg>