<svg id="Layer_1" data-name="Layer 1" xmlns="http://www.w3.org/2000/svg" viewBox="0 0 248 50"><defs><style>.cls-1{fill:#f60;}.cls-2{fill:#ff8939;}.cls-3{fill:#fff;}</style></defs><title>obejor</title><rect class="cls-1" y="0.08" width="248" height="50"/><rect class="cls-2" y="0.37" width="78" height="50"/><path class="cls-3" d="M35.67,33.49a3.29,3.29,0,0,0-.51-2.62l.3,0H46.81c.39,0,.39,0,.45-.37q.87-4.92,1.72-9.86l.48-2.71a.85.85,0,0,1,.94-.78c2,0,4,0,5.93,0,.43,0,.55.09.69.5.6,1.89,1.21,3.77,1.8,5.66a1.55,1.55,0,0,1,0,.71c-.38,2.16-.77,4.32-1.15,6.48l-.06.32c.52.25.58.35.49.91-.06.35-.12.71-.19,1.06a.83.83,0,0,1-.85.71h-1.2a8.46,8.46,0,0,0,0-1.13,3.2,3.2,0,0,0-3.61-2.78,4.87,4.87,0,0,0-4.22,3.71c0,.21-.16.2-.32.2H35.67Zm21.87-9.86a1.05,1.05,0,0,0-.06-.21c-.51-1.61-1-3.21-1.54-4.82,0-.16-.14-.17-.27-.17H50.88c-.17,0-.24,0-.27.22-.15.94-.32,1.87-.48,2.81-.13.72-.25,1.43-.37,2.17Z"/><path class="cls-3" d="M31.33,36.12a2.16,2.16,0,0,1-2.21-2.52,3.31,3.31,0,0,1,2.68-2.71,2.18,2.18,0,0,1,2.51,2.84A3.22,3.22,0,0,1,31.33,36.12Zm-.95-2.48a1,1,0,0,0,.91,1.08,1.59,1.59,0,0,0,1.76-1.47,1,1,0,0,0-.78-1A1.58,1.58,0,0,0,30.38,33.64Z"/><path class="cls-3" d="M54.61,33.1a3.19,3.19,0,0,1-3.4,3,2.18,2.18,0,0,1-1.78-2.92,3.19,3.19,0,0,1,2.75-2.32A2.13,2.13,0,0,1,54.61,33.1Zm-1.35.13a1,1,0,0,0-.88-1,1.58,1.58,0,0,0-1.76,1.23,1.06,1.06,0,0,0,1,1.33A1.59,1.59,0,0,0,53.26,33.23Z"/><path class="cls-3" d="M29.17,31a4.84,4.84,0,0,0-1.37,2.54H24.52c-.48,0-.7-.26-.63-.74s.12-.8.2-1.19a.74.74,0,0,1,.72-.65c1.44,0,2.88,0,4.32,0C29.14,30.91,29.15,30.92,29.17,31Z"/><path class="cls-3" d="M48.5,14.63H27.28c-.11,0-.22,0-.24.15-.1.58-.21,1.16-.32,1.8H30.9a.66.66,0,0,1,.74.64.67.67,0,0,1-.74.65H16.63a.65.65,0,0,0-.66.57.64.64,0,0,0,.46.69,1.23,1.23,0,0,0,.33,0H26l.32,0c-.11.65-.22,1.27-.33,1.93h6.4l.54-2.53h2.4l-.21,1H33.7l-.33,1.55h.25a.7.7,0,0,1,.25.05h.68l-.21,1h-.21a.74.74,0,0,1-.5.26H33.1l-.49,2.32h-1l.5-2.32H19.25a.67.67,0,0,0-.65.66.66.66,0,0,0,.65.63H25.5c-.11.67-.22,1.29-.33,1.95h5.65a1.27,1.27,0,0,1,.34,0,.63.63,0,0,1,.47.7.65.65,0,0,1-.69.56H21.28a1,1,0,0,0-.46.12.61.61,0,0,0-.25.7.67.67,0,0,0,.67.47h3.4c-.07.44-.13.85-.2,1.27l.23,0H45.79c.23,0,.31-.08.34-.3.07-.45.16-.91.24-1.37l2.19-12.23c0-.33.1-.65.16-1Zm-11,10.09H36.35l-.14-2.64h-.06l-.56,2.64h-1l1.3-6.14h1.34c.67,0,1,.29,1,.88a2,2,0,0,1-.06.45l-.19.9a1.31,1.31,0,0,1-.89,1.08Zm3.25-2.58H39.52l-.34,1.6h1.38l-.21,1H38l1.3-6.14h2.41l-.21,1H40.07l-.34,1.6h1.19Zm3.79-2.58H43.11l-.33,1.6H44l-.21,1H42.57l-.34,1.6h1.38l-.21,1H41l1.3-6.14h2.4Z"/><path class="cls-3" d="M36.92,19.56h-.23l-.34,1.6h.12a1,1,0,0,0,.22,0,.4.4,0,0,0,.26-.33l.19-.9a.69.69,0,0,0,0-.13C37.16,19.63,37.08,19.56,36.92,19.56Z"/><path class="cls-3" d="M99.1,24.09V14.38h6.5v1.84h-4.31v2h3.83v1.83h-3.83v4Z"/><path class="cls-3" d="M111.16,18.57l-.66-.15a4.14,4.14,0,0,0-.81-.07l-.47,0a3.29,3.29,0,0,0-.41.08v5.63h-2.09v-7a13.15,13.15,0,0,1,1.32-.37,8.09,8.09,0,0,1,1.7-.17l.41,0,.48.06.47.08a1.83,1.83,0,0,1,.41.12Z"/><path class="cls-3" d="M112.14,20.46a4.5,4.5,0,0,1,.3-1.71,3.67,3.67,0,0,1,.79-1.23,3.26,3.26,0,0,1,1.13-.74,3.47,3.47,0,0,1,1.31-.25,3.23,3.23,0,0,1,2.47,1,3.94,3.94,0,0,1,.91,2.82c0,.12,0,.25,0,.4s0,.27,0,.38h-4.73a1.4,1.4,0,0,0,.6,1,2.45,2.45,0,0,0,1.43.38,6.09,6.09,0,0,0,1.13-.1,4.29,4.29,0,0,0,.9-.26l.28,1.69a2.7,2.7,0,0,1-.45.17l-.62.15-.74.1a6.79,6.79,0,0,1-.78,0A4.58,4.58,0,0,1,114.3,24a3.52,3.52,0,0,1-1.22-.81,3.13,3.13,0,0,1-.71-1.21A4.88,4.88,0,0,1,112.14,20.46Zm4.9-.8a2.18,2.18,0,0,0-.09-.51,1.22,1.22,0,0,0-.24-.45,1.19,1.19,0,0,0-.41-.32,1.23,1.23,0,0,0-.61-.13,1.4,1.4,0,0,0-.6.12,1.21,1.21,0,0,0-.42.31,1.48,1.48,0,0,0-.26.46,3.3,3.3,0,0,0-.13.52Z"/><path class="cls-3" d="M120.31,20.46a4.5,4.5,0,0,1,.31-1.71,3.67,3.67,0,0,1,.79-1.23,3.22,3.22,0,0,1,1.12-.74,3.5,3.5,0,0,1,1.31-.25,3.25,3.25,0,0,1,2.48,1,3.94,3.94,0,0,1,.91,2.82c0,.12,0,.25,0,.4s0,.27,0,.38h-4.73a1.34,1.34,0,0,0,.6,1,2.43,2.43,0,0,0,1.43.38,5.91,5.91,0,0,0,1.12-.1,4.6,4.6,0,0,0,.91-.26l.28,1.69a3.09,3.09,0,0,1-.45.17l-.62.15-.74.1a6.79,6.79,0,0,1-.78,0,4.54,4.54,0,0,1-1.73-.29,3.43,3.43,0,0,1-1.22-.81,3.13,3.13,0,0,1-.71-1.21A4.6,4.6,0,0,1,120.31,20.46Zm4.9-.8a1.76,1.76,0,0,0-.09-.51,1.37,1.37,0,0,0-.23-.45,1.3,1.3,0,0,0-.41-.32,1.25,1.25,0,0,0-.61-.13,1.4,1.4,0,0,0-.6.12,1.21,1.21,0,0,0-.42.31,1.48,1.48,0,0,0-.26.46,2.47,2.47,0,0,0-.13.52Z"/><path class="cls-3" d="M135,22.42a2.77,2.77,0,0,0,.76-.08,1.34,1.34,0,0,0,.48-.21.62.62,0,0,0,.25-.31,1.07,1.07,0,0,0,.07-.41.93.93,0,0,0-.44-.79,6.9,6.9,0,0,0-1.54-.68c-.32-.11-.64-.24-1-.38a3.76,3.76,0,0,1-.85-.55,2.38,2.38,0,0,1-.85-1.94,2.82,2.82,0,0,1,.25-1.21,2.65,2.65,0,0,1,.71-.92,3.39,3.39,0,0,1,1.12-.58,5.27,5.27,0,0,1,1.49-.2,6,6,0,0,1,1.69.21,6.61,6.61,0,0,1,1.18.46l-.63,1.72a7.82,7.82,0,0,0-.91-.37,4.13,4.13,0,0,0-1.19-.16,2.24,2.24,0,0,0-1.13.22.72.72,0,0,0-.34.66.79.79,0,0,0,.12.45,1.45,1.45,0,0,0,.36.33,2.91,2.91,0,0,0,.53.27l.67.24a13.2,13.2,0,0,1,1.31.56,3.3,3.3,0,0,1,.93.63,2.46,2.46,0,0,1,.56.86,3.43,3.43,0,0,1,.18,1.19,2.53,2.53,0,0,1-.95,2.1,4.6,4.6,0,0,1-2.87.75,8.36,8.36,0,0,1-1.17-.07c-.34-.06-.65-.12-.91-.19a6.73,6.73,0,0,1-.69-.24,5.33,5.33,0,0,1-.48-.24l.61-1.74a5.05,5.05,0,0,0,1.08.43A5.36,5.36,0,0,0,135,22.42Z"/><path class="cls-3" d="M140.35,24.09V13.56l2.08-.34v3.53a4.71,4.71,0,0,1,1.18-.2,4,4,0,0,1,1.49.25,2.19,2.19,0,0,1,1,.69,2.73,2.73,0,0,1,.51,1.07,5.77,5.77,0,0,1,.14,1.37v4.16h-2.08V20.18a2.92,2.92,0,0,0-.26-1.43,1,1,0,0,0-1-.42,2.78,2.78,0,0,0-.52.05,3.71,3.71,0,0,0-.45.11v5.6Z"/><path class="cls-3" d="M150.88,14.59a1.15,1.15,0,0,1-.38.91,1.24,1.24,0,0,1-.87.33,1.28,1.28,0,0,1-.88-.33,1.29,1.29,0,0,1,0-1.81,1.28,1.28,0,0,1,.88-.33,1.24,1.24,0,0,1,.87.33A1.14,1.14,0,0,1,150.88,14.59Zm-.2,9.5h-2.09V16.72h2.09Z"/><path class="cls-3" d="M159.49,20.4a5.45,5.45,0,0,1-.21,1.56,3.41,3.41,0,0,1-.62,1.2,2.8,2.8,0,0,1-1,.79,3.33,3.33,0,0,1-1.38.28,3.62,3.62,0,0,1-.82-.09,3,3,0,0,1-.72-.24v2.78h-2.09V17l.64-.17.77-.13q.39-.06.81-.09c.27,0,.54,0,.79,0a4.5,4.5,0,0,1,1.62.28,3.35,3.35,0,0,1,1.21.77,3.45,3.45,0,0,1,.75,1.21A4.73,4.73,0,0,1,159.49,20.4Zm-2.13.06a2.54,2.54,0,0,0-.44-1.55,1.51,1.51,0,0,0-1.28-.58l-.52,0-.39,0v3.77a2.06,2.06,0,0,0,.51.21,2.27,2.27,0,0,0,.63.08C156.86,22.46,157.36,21.8,157.36,20.46Z"/><path class="cls-3" d="M167.94,20.4a5.45,5.45,0,0,1-.21,1.56,3.4,3.4,0,0,1-.61,1.2,2.89,2.89,0,0,1-1,.79,3.38,3.38,0,0,1-1.39.28,3.47,3.47,0,0,1-.81-.09,3.12,3.12,0,0,1-.73-.24v2.78H161.1V17c.18-.06.4-.11.64-.17l.76-.13q.41-.06.81-.09c.28,0,.54,0,.8,0a4.58,4.58,0,0,1,1.62.28,3.22,3.22,0,0,1,1.2.77,3.18,3.18,0,0,1,.75,1.21A4.73,4.73,0,0,1,167.94,20.4Zm-2.13.06a2.54,2.54,0,0,0-.43-1.55,1.53,1.53,0,0,0-1.29-.58l-.52,0-.39,0v3.77a2.06,2.06,0,0,0,.51.21,2.29,2.29,0,0,0,.64.08C165.32,22.46,165.81,21.8,165.81,20.46Z"/><path class="cls-3" d="M171.83,14.59a1.14,1.14,0,0,1-.37.91,1.33,1.33,0,0,1-1.75,0,1.29,1.29,0,0,1,0-1.81,1.33,1.33,0,0,1,1.75,0A1.13,1.13,0,0,1,171.83,14.59Zm-.19,9.5h-2.09V16.72h2.09Z"/><path class="cls-3" d="M173.6,17a10.26,10.26,0,0,1,1.37-.29,11.11,11.11,0,0,1,1.76-.14,4.32,4.32,0,0,1,1.56.25,2.27,2.27,0,0,1,1,.69,2.74,2.74,0,0,1,.52,1.07,5.75,5.75,0,0,1,.15,1.37v4.16h-2.08V20.18a2.79,2.79,0,0,0-.27-1.43,1.09,1.09,0,0,0-1-.42l-.48,0-.45,0v5.69H173.6Z"/><path class="cls-3" d="M188.2,23.16a3.54,3.54,0,0,1-.92,2.68,3.93,3.93,0,0,1-2.83.88,7.7,7.7,0,0,1-1.35-.12,8.64,8.64,0,0,1-1.24-.31l.36-1.75a5.82,5.82,0,0,0,1,.3,5.7,5.7,0,0,0,1.23.12,1.68,1.68,0,0,0,1.26-.4,1.38,1.38,0,0,0,.37-1v-.26a3.29,3.29,0,0,1-.69.23,3.81,3.81,0,0,1-.78.08,3,3,0,0,1-2.33-.91,3.59,3.59,0,0,1-.82-2.52,4.1,4.1,0,0,1,.26-1.48,3.1,3.1,0,0,1,.73-1.14,3.39,3.39,0,0,1,1.18-.74,4.65,4.65,0,0,1,1.59-.26c.25,0,.51,0,.77,0s.53.05.79.09l.75.13.64.17Zm-4.58-3c0,1.16.47,1.75,1.42,1.75a2,2,0,0,0,.6-.09,2.3,2.3,0,0,0,.47-.19V18.3l-.36,0a3.48,3.48,0,0,0-.49,0,1.44,1.44,0,0,0-1.23.55A2.29,2.29,0,0,0,183.62,20.17Z"/><path class="cls-3" d="M99.59,35.76V30.91h2.92v.58h-2.24V33h2v.57h-2v2.24Z"/><path class="cls-3" d="M104.45,32h.19l.22,0,.19,0,.13,0-.11.57-.26-.06a2,2,0,0,0-.46,0,1.47,1.47,0,0,0-.36,0l-.23.05v3.06h-.65V32.27a3.71,3.71,0,0,1,.57-.16A3.67,3.67,0,0,1,104.45,32Z"/><path class="cls-3" d="M105.61,33.94a2.18,2.18,0,0,1,.14-.84,1.65,1.65,0,0,1,.37-.6,1.47,1.47,0,0,1,.53-.36,1.88,1.88,0,0,1,.62-.11,1.41,1.41,0,0,1,1.12.45,2.14,2.14,0,0,1,.39,1.4v.23h-2.49a1.28,1.28,0,0,0,.32.86,1.21,1.21,0,0,0,.9.3,2.4,2.4,0,0,0,.58-.06,2,2,0,0,0,.35-.12l.09.55a2.51,2.51,0,0,1-.41.13,2.84,2.84,0,0,1-.68.07,2.23,2.23,0,0,1-.82-.14,1.58,1.58,0,0,1-.57-.4,1.68,1.68,0,0,1-.34-.6A2.59,2.59,0,0,1,105.61,33.94Zm2.49-.35a1,1,0,0,0-.22-.73.75.75,0,0,0-.62-.28.87.87,0,0,0-.4.09.89.89,0,0,0-.29.22,1.06,1.06,0,0,0-.18.33,1.18,1.18,0,0,0-.09.37Z"/><path class="cls-3" d="M109.52,33.94a2.38,2.38,0,0,1,.14-.84,1.79,1.79,0,0,1,.37-.6,1.47,1.47,0,0,1,.53-.36,1.88,1.88,0,0,1,.62-.11,1.43,1.43,0,0,1,1.13.45,2.14,2.14,0,0,1,.39,1.4V34s0,.08,0,.12H110.2a1.33,1.33,0,0,0,.33.86,1.18,1.18,0,0,0,.89.3,2.4,2.4,0,0,0,.58-.06,1.72,1.72,0,0,0,.35-.12l.1.55a2.39,2.39,0,0,1-.42.13,2.84,2.84,0,0,1-.68.07,2.27,2.27,0,0,1-.82-.14,1.58,1.58,0,0,1-.57-.4,1.52,1.52,0,0,1-.33-.6A2.58,2.58,0,0,1,109.52,33.94Zm2.5-.35a1.13,1.13,0,0,0-.22-.73.75.75,0,0,0-.63-.28.8.8,0,0,0-.39.09.72.72,0,0,0-.29.22,1.09,1.09,0,0,0-.19.33,2.22,2.22,0,0,0-.09.37Z"/><path class="cls-3" d="M116.1,35.29a1.29,1.29,0,0,0,.59-.11.35.35,0,0,0,.19-.33.44.44,0,0,0-.19-.38,3.07,3.07,0,0,0-.62-.32l-.4-.17a1.32,1.32,0,0,1-.33-.2.92.92,0,0,1-.23-.29,1,1,0,0,1-.08-.41.94.94,0,0,1,.35-.77,1.54,1.54,0,0,1,1-.28h.31l.28.05.24,0,.15,0-.11.56a1.47,1.47,0,0,0-.33-.12,2.12,2.12,0,0,0-.54-.06,1.06,1.06,0,0,0-.48.11.37.37,0,0,0-.2.34.46.46,0,0,0,0,.21.43.43,0,0,0,.14.16,1.38,1.38,0,0,0,.24.14,2.45,2.45,0,0,0,.34.13l.46.2a1.17,1.17,0,0,1,.34.22.73.73,0,0,1,.22.3,1,1,0,0,1,.08.44.85.85,0,0,1-.37.76,1.82,1.82,0,0,1-1.07.26,3,3,0,0,1-.76-.08l-.37-.12.12-.56.36.13A2.25,2.25,0,0,0,116.1,35.29Z"/><path class="cls-3" d="M118.37,35.76V30.44l.65-.11v1.86a2.85,2.85,0,0,1,.39-.11,2,2,0,0,1,.41,0,1.87,1.87,0,0,1,.72.12,1,1,0,0,1,.46.35,1.13,1.13,0,0,1,.24.53,2.81,2.81,0,0,1,.07.67v2h-.65V33.85a3.18,3.18,0,0,0,0-.57,1,1,0,0,0-.15-.39.65.65,0,0,0-.28-.21,1.37,1.37,0,0,0-.44-.06h-.21l-.22,0-.18,0-.12,0v3Z"/><path class="cls-3" d="M122.69,31.46a.4.4,0,0,1-.29-.12.37.37,0,0,1-.13-.31.39.39,0,0,1,.13-.31.39.39,0,0,1,.29-.11.4.4,0,0,1,.3.11.41.41,0,0,1,.12.31.4.4,0,0,1-.12.31A.41.41,0,0,1,122.69,31.46Zm.33,4.3h-.65V32.12H123Z"/><path class="cls-3" d="M127.35,33.94a2.7,2.7,0,0,1-.11.77,1.73,1.73,0,0,1-.32.6,1.39,1.39,0,0,1-.51.39,1.75,1.75,0,0,1-.7.14,1.89,1.89,0,0,1-.56-.08,2.17,2.17,0,0,1-.36-.16v1.45h-.65V32.23l.58-.12a3.84,3.84,0,0,1,.8-.07,2.06,2.06,0,0,1,.76.13,1.73,1.73,0,0,1,.57.38,1.65,1.65,0,0,1,.37.6A2.42,2.42,0,0,1,127.35,33.94Zm-.68,0a1.41,1.41,0,0,0-.32-1,1.11,1.11,0,0,0-.84-.34l-.45,0-.27,0V35a1.57,1.57,0,0,0,.35.19,1.3,1.3,0,0,0,.49.09,1.21,1.21,0,0,0,.48-.1,1,1,0,0,0,.32-.28,1,1,0,0,0,.18-.42A2.26,2.26,0,0,0,126.67,33.94Z"/><path class="cls-3" d="M131.47,33.94a2.7,2.7,0,0,1-.11.77,1.73,1.73,0,0,1-.32.6,1.39,1.39,0,0,1-.51.39,1.71,1.71,0,0,1-.7.14,1.82,1.82,0,0,1-.55-.08,2.17,2.17,0,0,1-.36-.16v1.45h-.66V32.23l.58-.12a3.84,3.84,0,0,1,.8-.07,2,2,0,0,1,.76.13,1.63,1.63,0,0,1,.57.38,1.65,1.65,0,0,1,.37.6A2.18,2.18,0,0,1,131.47,33.94Zm-.68,0a1.41,1.41,0,0,0-.31-1,1.11,1.11,0,0,0-.84-.34l-.46,0-.26,0V35a1.47,1.47,0,0,0,.34.19,1.3,1.3,0,0,0,.49.09,1.14,1.14,0,0,0,.48-.1,1,1,0,0,0,.32-.28,1.15,1.15,0,0,0,.19-.42A3,3,0,0,0,130.79,33.94Z"/><path class="cls-3" d="M132.71,31.46a.41.41,0,0,1-.3-.12.4.4,0,0,1-.12-.31.41.41,0,0,1,.12-.31.46.46,0,0,1,.6,0,.41.41,0,0,1,.12.31.4.4,0,0,1-.12.31A.41.41,0,0,1,132.71,31.46Zm.33,4.3h-.65V32.12H133Z"/><path class="cls-3" d="M134.16,32.22l.59-.12a5.52,5.52,0,0,1,.86-.06,1.87,1.87,0,0,1,.72.12,1.15,1.15,0,0,1,.46.35A1.36,1.36,0,0,1,137,33a2.81,2.81,0,0,1,.07.67v2h-.65V33.85a3.1,3.1,0,0,0,0-.57,1,1,0,0,0-.15-.39.6.6,0,0,0-.28-.21,1.35,1.35,0,0,0-.43-.06h-.22l-.21,0-.19,0-.11,0v3.08h-.65Z"/><path class="cls-3" d="M140.46,35.39a1.82,1.82,0,0,1-.33.15,1.6,1.6,0,0,1-.56.09,1.8,1.8,0,0,1-.62-.11,1.4,1.4,0,0,1-.51-.33,1.51,1.51,0,0,1-.34-.55,2.23,2.23,0,0,1-.13-.78,2.11,2.11,0,0,1,.12-.73,1.8,1.8,0,0,1,.35-.58,1.57,1.57,0,0,1,.56-.37,1.88,1.88,0,0,1,.74-.14,3.68,3.68,0,0,1,.79.07l.57.12v3.25a1.55,1.55,0,0,1-.43,1.22,2,2,0,0,1-1.32.37,4.26,4.26,0,0,1-.64,0,2.88,2.88,0,0,1-.53-.14l.11-.56a4.09,4.09,0,0,0,.48.13,2.91,2.91,0,0,0,.6.06,1.19,1.19,0,0,0,.83-.23.94.94,0,0,0,.26-.73Zm0-2.7a1.2,1.2,0,0,0-.26,0,2.83,2.83,0,0,0-.45,0,1,1,0,0,0-.8.34,1.38,1.38,0,0,0-.29.91,1.71,1.71,0,0,0,.08.54,1.21,1.21,0,0,0,.22.37.78.78,0,0,0,.31.21,1,1,0,0,0,.37.07,1.51,1.51,0,0,0,.48-.07,1.34,1.34,0,0,0,.34-.17Z"/><path class="cls-3" d="M145.26,30.33a2.31,2.31,0,0,1,.49,0,1.34,1.34,0,0,1,.29.07l-.11.56-.24-.08a2,2,0,0,0-.38,0,.76.76,0,0,0-.64.25,1.13,1.13,0,0,0-.18.67v.32h1.4v.54h-1.4v3.1h-.65v-4a1.54,1.54,0,0,1,.34-1.08A1.37,1.37,0,0,1,145.26,30.33Z"/><path class="cls-3" d="M149.75,33.94a2.37,2.37,0,0,1-.12.78,1.76,1.76,0,0,1-.35.6,1.63,1.63,0,0,1-.55.39,1.75,1.75,0,0,1-1.37,0,1.5,1.5,0,0,1-.54-.39,1.78,1.78,0,0,1-.36-.6,2.59,2.59,0,0,1,0-1.56,1.93,1.93,0,0,1,.36-.61,1.5,1.5,0,0,1,.54-.39,1.87,1.87,0,0,1,1.37,0,1.63,1.63,0,0,1,.55.39,1.91,1.91,0,0,1,.35.61A2.37,2.37,0,0,1,149.75,33.94Zm-.67,0a1.61,1.61,0,0,0-.28-1,1,1,0,0,0-1.51,0,1.61,1.61,0,0,0-.27,1,1.57,1.57,0,0,0,.27,1,1,1,0,0,0,1.51,0A1.57,1.57,0,0,0,149.08,33.94Z"/><path class="cls-3" d="M152,32h.19l.21,0,.19,0,.13,0-.11.57-.25-.06a2,2,0,0,0-.46,0,1.47,1.47,0,0,0-.36,0l-.24.05v3.06h-.65V32.27a4.25,4.25,0,0,1,.58-.16A3.55,3.55,0,0,1,152,32Z"/><path class="cls-3" d="M157.27,35.39a1.39,1.39,0,0,1-.32.15,1.62,1.62,0,0,1-.57.09,1.84,1.84,0,0,1-.62-.11,1.29,1.29,0,0,1-.5-.33,1.53,1.53,0,0,1-.35-.55,2.24,2.24,0,0,1-.12-.78,2.11,2.11,0,0,1,.12-.73,1.77,1.77,0,0,1,.34-.58,1.57,1.57,0,0,1,.56-.37,2,2,0,0,1,.74-.14,3.68,3.68,0,0,1,.79.07l.58.12v3.25a1.55,1.55,0,0,1-.44,1.22,2,2,0,0,1-1.31.37,4.4,4.4,0,0,1-.65,0,3.11,3.11,0,0,1-.53-.14l.12-.56a3.24,3.24,0,0,0,.48.13,2.81,2.81,0,0,0,.59.06,1.21,1.21,0,0,0,.84-.23.94.94,0,0,0,.25-.73Zm0-2.7a1.2,1.2,0,0,0-.26,0,2.76,2.76,0,0,0-.44,0,1,1,0,0,0-.81.34,1.38,1.38,0,0,0-.28.91,1.46,1.46,0,0,0,.08.54,1,1,0,0,0,.21.37.75.75,0,0,0,.32.21.94.94,0,0,0,.37.07,1.41,1.41,0,0,0,.47-.07,1.19,1.19,0,0,0,.34-.17Z"/><path class="cls-3" d="M162.25,33.94a2.13,2.13,0,0,1-.13.78,1.61,1.61,0,0,1-.35.6,1.5,1.5,0,0,1-.54.39,1.77,1.77,0,0,1-1.38,0,1.5,1.5,0,0,1-.54-.39,1.61,1.61,0,0,1-.35-.6,2.41,2.41,0,0,1,0-1.56,1.74,1.74,0,0,1,.35-.61,1.5,1.5,0,0,1,.54-.39,1.9,1.9,0,0,1,1.38,0,1.5,1.5,0,0,1,.54.39,1.74,1.74,0,0,1,.35.61A2.13,2.13,0,0,1,162.25,33.94Zm-.68,0a1.54,1.54,0,0,0-.28-1,1,1,0,0,0-1.5,0,1.54,1.54,0,0,0-.28,1,1.51,1.51,0,0,0,.28,1,1,1,0,0,0,1.5,0A1.51,1.51,0,0,0,161.57,33.94Z"/><path class="cls-3" d="M166.38,33.94a2.13,2.13,0,0,1-.13.78,1.61,1.61,0,0,1-.35.6,1.5,1.5,0,0,1-.54.39,1.74,1.74,0,0,1-.69.14,1.69,1.69,0,0,1-.68-.14,1.53,1.53,0,0,1-.55-.39,1.61,1.61,0,0,1-.35-.6,2.41,2.41,0,0,1,0-1.56,1.74,1.74,0,0,1,.35-.61,1.53,1.53,0,0,1,.55-.39,1.68,1.68,0,0,1,.68-.13,1.73,1.73,0,0,1,.69.13,1.5,1.5,0,0,1,.54.39,1.74,1.74,0,0,1,.35.61A2.13,2.13,0,0,1,166.38,33.94Zm-.68,0a1.54,1.54,0,0,0-.28-1,1,1,0,0,0-1.5,0,1.54,1.54,0,0,0-.28,1,1.51,1.51,0,0,0,.28,1,1,1,0,0,0,1.5,0A1.51,1.51,0,0,0,165.7,33.94Z"/><path class="cls-3" d="M169.65,30.44l.65-.11v5.32c-.15,0-.34.09-.57.13a5,5,0,0,1-.81.06,2.06,2.06,0,0,1-.76-.13,1.73,1.73,0,0,1-.57-.38,1.65,1.65,0,0,1-.37-.6,2.42,2.42,0,0,1-.13-.79,2.65,2.65,0,0,1,.11-.77,1.69,1.69,0,0,1,.32-.61,1.58,1.58,0,0,1,.52-.39,1.67,1.67,0,0,1,.69-.14,1.6,1.6,0,0,1,.56.09,1.57,1.57,0,0,1,.36.16Zm0,2.45a1.17,1.17,0,0,0-.34-.19,1.33,1.33,0,0,0-.49-.09,1,1,0,0,0-.48.1A.83.83,0,0,0,168,33a1.33,1.33,0,0,0-.18.42,2.26,2.26,0,0,0-.06.53,1.41,1.41,0,0,0,.32,1,1.09,1.09,0,0,0,.84.35,2.76,2.76,0,0,0,.44,0,1.43,1.43,0,0,0,.28-.05Z"/><path class="cls-3" d="M172.27,35.29a1.29,1.29,0,0,0,.59-.11.35.35,0,0,0,.19-.33.44.44,0,0,0-.19-.38,3.07,3.07,0,0,0-.62-.32l-.4-.17a1.6,1.6,0,0,1-.34-.2.89.89,0,0,1-.22-.29.86.86,0,0,1-.08-.41.91.91,0,0,1,.35-.77,1.52,1.52,0,0,1,1-.28h.3l.29.05.23,0,.16,0-.12.56a1.47,1.47,0,0,0-.33-.12,2,2,0,0,0-.53-.06,1,1,0,0,0-.48.11.35.35,0,0,0-.2.34.46.46,0,0,0,0,.21.43.43,0,0,0,.14.16.89.89,0,0,0,.24.14,2.85,2.85,0,0,0,.33.13,4.19,4.19,0,0,1,.46.2,1.1,1.1,0,0,1,.35.22.73.73,0,0,1,.22.3,1.15,1.15,0,0,1,.08.44.86.86,0,0,1-.38.76,1.79,1.79,0,0,1-1.06.26,2.93,2.93,0,0,1-.76-.08l-.37-.12.12-.56.36.13A2.25,2.25,0,0,0,172.27,35.29Z"/><path class="cls-3" d="M177.33,32a1.89,1.89,0,0,1,.67.1,1.19,1.19,0,0,1,.43.28,1.07,1.07,0,0,1,.23.45,2,2,0,0,1,.07.56v2.27l-.23,0-.34.05-.41,0h-.44a2.47,2.47,0,0,1-.56-.06,1.16,1.16,0,0,1-.45-.2.88.88,0,0,1-.3-.36,1.27,1.27,0,0,1-.1-.54,1.08,1.08,0,0,1,.12-.52,1,1,0,0,1,.33-.35,1.52,1.52,0,0,1,.49-.19,2.88,2.88,0,0,1,.59-.07l.2,0,.2,0,.17,0,.1,0v-.18a1.65,1.65,0,0,0,0-.32.65.65,0,0,0-.12-.28.62.62,0,0,0-.25-.2,1,1,0,0,0-.41-.07,3.25,3.25,0,0,0-.57,0,1.47,1.47,0,0,0-.36.1l-.07-.54a1.52,1.52,0,0,1,.42-.11A3.1,3.1,0,0,1,177.33,32Zm.06,3.26h.41l.3,0V34.15a.89.89,0,0,0-.23,0,2.09,2.09,0,0,0-.38,0l-.31,0a1,1,0,0,0-.3.09.52.52,0,0,0-.23.18.5.5,0,0,0-.09.31.51.51,0,0,0,.22.48A1.17,1.17,0,0,0,177.39,35.29Z"/><path class="cls-3" d="M180.46,32.28a1.57,1.57,0,0,1,.36-.16,1.6,1.6,0,0,1,.56-.09,1.75,1.75,0,0,1,.7.14,1.65,1.65,0,0,1,.51.39,1.69,1.69,0,0,1,.32.61,2.65,2.65,0,0,1,.11.77,2.42,2.42,0,0,1-.13.79,1.65,1.65,0,0,1-.37.6,1.73,1.73,0,0,1-.57.38,2.06,2.06,0,0,1-.76.13,4.74,4.74,0,0,1-.8-.06,5.91,5.91,0,0,1-.58-.13V30.44l.65-.11Zm0,2.91a1.43,1.43,0,0,0,.28.05,2.76,2.76,0,0,0,.44,0,1.09,1.09,0,0,0,.84-.35,1.41,1.41,0,0,0,.32-1,2.26,2.26,0,0,0-.06-.53,1.14,1.14,0,0,0-.18-.42.87.87,0,0,0-.32-.28,1.06,1.06,0,0,0-.48-.1,1.3,1.3,0,0,0-.49.09,1.25,1.25,0,0,0-.35.19Z"/><path class="cls-3" d="M187.15,33.94a2.13,2.13,0,0,1-.13.78,1.61,1.61,0,0,1-.35.6,1.5,1.5,0,0,1-.54.39,1.77,1.77,0,0,1-1.38,0,1.5,1.5,0,0,1-.54-.39,1.61,1.61,0,0,1-.35-.6,2.4,2.4,0,0,1,0-1.56,1.74,1.74,0,0,1,.35-.61,1.5,1.5,0,0,1,.54-.39,1.9,1.9,0,0,1,1.38,0,1.5,1.5,0,0,1,.54.39,1.74,1.74,0,0,1,.35.61A2.13,2.13,0,0,1,187.15,33.94Zm-.68,0a1.54,1.54,0,0,0-.28-1,1,1,0,0,0-1.5,0,1.54,1.54,0,0,0-.28,1,1.51,1.51,0,0,0,.28,1,1,1,0,0,0,1.5,0A1.51,1.51,0,0,0,186.47,33.94Z"/><path class="cls-3" d="M190.81,32.12a19.54,19.54,0,0,1-.64,2c-.25.62-.48,1.18-.71,1.68h-.59c-.23-.5-.47-1.06-.71-1.68a17.28,17.28,0,0,1-.64-2h.7c.05.23.12.47.2.73l.24.77c.09.25.18.5.26.74s.18.45.26.63c.08-.18.16-.39.25-.63s.18-.49.26-.74.17-.51.25-.77.14-.5.2-.73Z"/><path class="cls-3" d="M191.18,33.94a2.38,2.38,0,0,1,.14-.84,1.79,1.79,0,0,1,.37-.6,1.47,1.47,0,0,1,.53-.36,1.88,1.88,0,0,1,.62-.11,1.4,1.4,0,0,1,1.12.45,2.09,2.09,0,0,1,.4,1.4V34s0,.08,0,.12h-2.49a1.33,1.33,0,0,0,.33.86,1.18,1.18,0,0,0,.89.3,2.4,2.4,0,0,0,.58-.06,1.72,1.72,0,0,0,.35-.12l.1.55a2.39,2.39,0,0,1-.42.13,2.79,2.79,0,0,1-.68.07,2.27,2.27,0,0,1-.82-.14,1.58,1.58,0,0,1-.57-.4,1.52,1.52,0,0,1-.33-.6A2.58,2.58,0,0,1,191.18,33.94Zm2.5-.35a1.13,1.13,0,0,0-.22-.73.75.75,0,0,0-.63-.28.8.8,0,0,0-.39.09.72.72,0,0,0-.29.22,1.09,1.09,0,0,0-.19.33,2.22,2.22,0,0,0-.09.37Z"/><path class="cls-3" d="M201.48,34.08a6.24,6.24,0,0,1,.37-.72c.15-.27.32-.55.52-.84s.4-.58.62-.86a8.43,8.43,0,0,1,.67-.75h.62V34h.58v.53h-.58v1.24h-.63V34.52h-2.17Zm2.17-2.4a5.52,5.52,0,0,0-.42.5q-.21.27-.42.57c-.13.21-.26.41-.38.62s-.22.42-.32.62h1.54Z"/><path class="cls-3" d="M205.5,33.33a3.42,3.42,0,0,1,.43-1.88,1.41,1.41,0,0,1,2.39,0,3.42,3.42,0,0,1,.43,1.88,3.42,3.42,0,0,1-.43,1.88,1.42,1.42,0,0,1-2.39,0A3.42,3.42,0,0,1,205.5,33.33Zm2.56,0a6.12,6.12,0,0,0,0-.76,2.16,2.16,0,0,0-.16-.62,1,1,0,0,0-.29-.42.63.63,0,0,0-.44-.16.64.64,0,0,0-.45.16,1,1,0,0,0-.29.42,2.16,2.16,0,0,0-.16.62,6.12,6.12,0,0,0,0,.76,6,6,0,0,0,0,.75,2.23,2.23,0,0,0,.16.63,1.09,1.09,0,0,0,.29.42.64.64,0,0,0,.45.16.63.63,0,0,0,.44-.16,1.09,1.09,0,0,0,.29-.42,2.23,2.23,0,0,0,.16-.63A6,6,0,0,0,208.06,33.33Z"/><path class="cls-3" d="M209.45,33.33a3.42,3.42,0,0,1,.43-1.88,1.35,1.35,0,0,1,1.19-.66,1.36,1.36,0,0,1,1.2.66,3.51,3.51,0,0,1,.43,1.88,3.51,3.51,0,0,1-.43,1.88,1.38,1.38,0,0,1-1.2.65,1.36,1.36,0,0,1-1.19-.65A3.42,3.42,0,0,1,209.45,33.33Zm2.56,0a6.12,6.12,0,0,0,0-.76,2.55,2.55,0,0,0-.16-.62,1,1,0,0,0-.29-.42.64.64,0,0,0-.45-.16.63.63,0,0,0-.44.16,1,1,0,0,0-.3.42,2.56,2.56,0,0,0-.15.62,6.12,6.12,0,0,0,0,.76,6,6,0,0,0,0,.75,2.65,2.65,0,0,0,.15.63,1.1,1.1,0,0,0,.3.42.63.63,0,0,0,.44.16.64.64,0,0,0,.45-.16,1.09,1.09,0,0,0,.29-.42,2.63,2.63,0,0,0,.16-.63A6,6,0,0,0,212,33.33Z"/><path class="cls-3" d="M214.29,35a.41.41,0,0,1,0,.11v.11a2.91,2.91,0,0,1-.13.87,4.22,4.22,0,0,1-.35.82l-.51-.16a2.21,2.21,0,0,0,.23-.73,4.2,4.2,0,0,0,.06-.69v-.17a.92.92,0,0,1,0-.16Z"/><path class="cls-3" d="M215.12,33.33a3.42,3.42,0,0,1,.43-1.88,1.35,1.35,0,0,1,1.19-.66,1.36,1.36,0,0,1,1.2.66,3.51,3.51,0,0,1,.43,1.88,3.51,3.51,0,0,1-.43,1.88,1.38,1.38,0,0,1-1.2.65,1.36,1.36,0,0,1-1.19-.65A3.42,3.42,0,0,1,215.12,33.33Zm2.56,0a6.12,6.12,0,0,0,0-.76,2.55,2.55,0,0,0-.16-.62,1,1,0,0,0-.29-.42.64.64,0,0,0-.45-.16.63.63,0,0,0-.44.16,1,1,0,0,0-.3.42,2.56,2.56,0,0,0-.15.62,6.12,6.12,0,0,0,0,.76,6,6,0,0,0,0,.75,2.65,2.65,0,0,0,.15.63,1.1,1.1,0,0,0,.3.42.63.63,0,0,0,.44.16.64.64,0,0,0,.45-.16,1.09,1.09,0,0,0,.29-.42,2.63,2.63,0,0,0,.16-.63A6,6,0,0,0,217.68,33.33Z"/><path class="cls-3" d="M219.07,33.33a3.42,3.42,0,0,1,.43-1.88,1.4,1.4,0,0,1,2.38,0,3.42,3.42,0,0,1,.43,1.88,3.42,3.42,0,0,1-.43,1.88,1.41,1.41,0,0,1-2.38,0A3.42,3.42,0,0,1,219.07,33.33Zm2.56,0a6.06,6.06,0,0,0,0-.76,2.56,2.56,0,0,0-.15-.62,1,1,0,0,0-.29-.42.71.71,0,0,0-.9,0A1,1,0,0,0,220,32a2.56,2.56,0,0,0-.15.62,6.06,6.06,0,0,0-.05.76,5.9,5.9,0,0,0,.05.75,2.65,2.65,0,0,0,.15.63,1.09,1.09,0,0,0,.29.42.71.71,0,0,0,.9,0,1.09,1.09,0,0,0,.29-.42,2.65,2.65,0,0,0,.15-.63A5.9,5.9,0,0,0,221.63,33.33Z"/><path class="cls-3" d="M223,33.33a3.42,3.42,0,0,1,.44-1.88,1.4,1.4,0,0,1,2.38,0,3.42,3.42,0,0,1,.43,1.88,3.42,3.42,0,0,1-.43,1.88,1.41,1.41,0,0,1-2.38,0A3.42,3.42,0,0,1,223,33.33Zm2.57,0a6.06,6.06,0,0,0-.05-.76,2.56,2.56,0,0,0-.15-.62,1.12,1.12,0,0,0-.29-.42.71.71,0,0,0-.9,0,1,1,0,0,0-.29.42,2.56,2.56,0,0,0-.15.62,6.06,6.06,0,0,0-.05.76,5.9,5.9,0,0,0,.05.75,2.65,2.65,0,0,0,.15.63,1.09,1.09,0,0,0,.29.42.71.71,0,0,0,.9,0,1.21,1.21,0,0,0,.29-.42,2.65,2.65,0,0,0,.15-.63A5.9,5.9,0,0,0,225.58,33.33Z"/><path class="cls-3" d="M200.35,34.39H200v1.42h-.55l-.81-1.42h-1.29v1.42h-.51V34.39h-.33v-.54h.33V33.1h-.33v-.54h.33V31.15h.55l.81,1.41h1.29V31.15H200v1.41h.32v.54H200v.75h.32Zm-2.73-1.83-.24-.42v.42Zm.74,1.29-.43-.75h-.55v.75Zm1.16,0V33.1h-1l.43.75Zm0,.95v-.41h-.24Z"/></svg>