<svg id="Layer_1" data-name="Layer 1" xmlns="http://www.w3.org/2000/svg" viewBox="0 0 248 50"><defs><style>.cls-1{fill:#f60;}.cls-2{fill:#ff8939;}.cls-3{fill:#fff;}</style></defs><title>obejor</title><rect class="cls-1" y="-3" width="254" height="55"/><rect class="cls-2" y="0.25" width="78" height="50"/><path class="cls-3" d="M54.93,34.69A1.78,1.78,0,0,1,53,35.83c-3.34,0-6.69,0-10,0a1,1,0,0,1-1.09-.61,8.85,8.85,0,0,0-3.1-3.36c.3-1,.55-1.91.84-2.81a.78.78,0,0,1,.39-.46c.61-.24,1.13-.94,1.94-.33.55.41,1.34.31,1.88.95a1.84,1.84,0,0,0,3-.62,3,3,0,0,0,.31-.94,9.36,9.36,0,0,1-1.42.85,1.5,1.5,0,0,1-1.17.06,1.09,1.09,0,0,1-.32-1c.15-.3.78-.67,1-.57a2.86,2.86,0,0,0,2-.11,12.09,12.09,0,0,0,2.21-.7,2.31,2.31,0,0,0,1.21-3.38.94.94,0,0,1-.11-.37,18.79,18.79,0,0,1,.06-4.18c.49-2.12-.53-3.53-1.83-4.77a6.73,6.73,0,0,0-10.49,1.74c-.23.43-.41.89-.61,1.33-1.13-.77-1.19-1-.67-2.22a7.8,7.8,0,0,1,8.42-4.6A7.54,7.54,0,0,1,52,16.92,1,1,0,0,0,52.9,18a2.31,2.31,0,0,1,0,4.5,1,1,0,0,0-.92,1,3.63,3.63,0,0,1-3,3.74c.1.09.16.17.23.19a7.59,7.59,0,0,1,5.22,5.2c.14.41.32.8.48,1.2Z"/><path class="cls-3" d="M19.93,38.89c.23-.59.46-1.18.7-1.78a7.42,7.42,0,0,1,5.57-4.78,1.78,1.78,0,0,1,.92.16c.82.35,1.64.73,2.45,1.12a2.3,2.3,0,0,1,.65.47,2,2,0,0,0,2.2.47c.89-.34,1.79-.63,2.69-.93a5.69,5.69,0,0,0,1-.3c.9-.53,1.57-.14,2.28.41a9.28,9.28,0,0,1,3.11,5.4c.26,1-.51,1.75-1.64,1.77-1.34,0-2.69,0-4,0H22a2,2,0,0,1-2.1-1.1Z"/><path class="cls-3" d="M25.61,24.77a7,7,0,0,1,.71-3.95,4.86,4.86,0,0,1,4.35-3,4.62,4.62,0,0,1,4.41,2.91,9,9,0,0,1-.51,9A2.77,2.77,0,0,1,32,30.93a2.44,2.44,0,0,0-1.71.56,1,1,0,0,1-.74.14,5,5,0,0,1-2.86-2.37A6.82,6.82,0,0,1,25.61,24.77Z"/><path class="cls-3" d="M49.58,19.57c-.08,2.6-.73,4.77-2.69,6.37a.84.84,0,0,1-1,.17,1.62,1.62,0,0,0-2,.34c-.45.5-.87.26-1.23,0a1,1,0,0,1-.27-.8A3.47,3.47,0,0,0,40.18,22a.75.75,0,0,1-.54-.71c-.08-.69-.31-1.36-.43-2-.4-2.15.58-3.83,2-5.27a4,4,0,0,1,4.62-1,6.16,6.16,0,0,1,3.49,4.64A15.85,15.85,0,0,1,49.58,19.57Z"/><path class="cls-3" d="M30.89,14.55a7.62,7.62,0,0,1,7.58,7.26,1.13,1.13,0,0,0,1,1.23,2.3,2.3,0,0,1,0,4.45,1.23,1.23,0,0,0-1.06,1.42,2.9,2.9,0,0,1-1.76,2.86,24,24,0,0,1-2.63.91c-.67.22-1.39.23-1.91.87-.14.18-.85.15-1.08,0a1.1,1.1,0,0,1-.24-1.06,1.2,1.2,0,0,1,1-.5,2.23,2.23,0,0,0,1.55-.05,24.67,24.67,0,0,0,2.45-.71,2.32,2.32,0,0,0,1.37-3.43,1.39,1.39,0,0,1-.08-.46,13.73,13.73,0,0,1,0-3.79A4.77,4.77,0,0,0,36,19.14a6.38,6.38,0,0,0-4.35-2.45,6.83,6.83,0,0,0-7.45,5.21,1,1,0,0,0,0,.53c.67,1.61.19,3.28.27,4.91,0,.3-.38.74-.7.88s-.62-.18-.93-.32-.34-.29-.54-.35a2.29,2.29,0,0,1-1.87-2.26A2.22,2.22,0,0,1,22.18,23,1,1,0,0,0,23,22c-.2-3.18,2.31-6.27,5.95-7.18A15.56,15.56,0,0,1,30.89,14.55Z"/><path class="cls-3" d="M101.53,23a4.75,4.75,0,0,1-3.61-1.31A5.29,5.29,0,0,1,96.68,18a5.77,5.77,0,0,1,.38-2.15,4.67,4.67,0,0,1,1-1.6,4.31,4.31,0,0,1,1.57-1,5.47,5.47,0,0,1,2-.34,6.43,6.43,0,0,1,1.12.09,6.74,6.74,0,0,1,.88.21,3.93,3.93,0,0,1,.63.25l.37.19L104,15.4A5.11,5.11,0,0,0,103,15a5,5,0,0,0-1.35-.17,3,3,0,0,0-1,.17,2.16,2.16,0,0,0-.86.54,2.69,2.69,0,0,0-.59,1A4,4,0,0,0,99,17.92a5,5,0,0,0,.15,1.25,2.66,2.66,0,0,0,.48,1,2.13,2.13,0,0,0,.86.66,2.92,2.92,0,0,0,1.28.25,5.52,5.52,0,0,0,.86-.06,5.32,5.32,0,0,0,.67-.13,4,4,0,0,0,.52-.17l.4-.19.61,1.75a5.1,5.1,0,0,1-1.31.51A7.51,7.51,0,0,1,101.53,23Z"/><path class="cls-3" d="M112.14,22.56a10.26,10.26,0,0,1-1.37.29A11.16,11.16,0,0,1,109,23a4.18,4.18,0,0,1-1.56-.25,2.33,2.33,0,0,1-1-.71,2.59,2.59,0,0,1-.52-1.08,6,6,0,0,1-.16-1.39v-4.1h2.09V19.3a3,3,0,0,0,.27,1.46,1,1,0,0,0,1,.45l.48,0,.44,0V15.45h2.09Z"/><path class="cls-3" d="M116.21,21.32a2.21,2.21,0,0,0,.82-.11.45.45,0,0,0,.23-.44.53.53,0,0,0-.3-.44,6.84,6.84,0,0,0-.94-.43,9.59,9.59,0,0,1-.89-.37,2.92,2.92,0,0,1-.68-.47,1.8,1.8,0,0,1-.43-.65,2.31,2.31,0,0,1-.16-.91,2,2,0,0,1,.77-1.64,3.38,3.38,0,0,1,2.12-.6,6.7,6.7,0,0,1,1.28.12,5.49,5.49,0,0,1,1,.25l-.36,1.63a7.43,7.43,0,0,0-.79-.23,4.75,4.75,0,0,0-1-.09c-.65,0-1,.18-1,.54a.56.56,0,0,0,0,.23.56.56,0,0,0,.17.18,1.69,1.69,0,0,0,.34.2,5.73,5.73,0,0,0,.56.23,8.26,8.26,0,0,1,1.13.51,2.74,2.74,0,0,1,.71.53,1.66,1.66,0,0,1,.36.63,2.88,2.88,0,0,1,.11.81,1.88,1.88,0,0,1-.82,1.65,4,4,0,0,1-2.32.56,6.27,6.27,0,0,1-1.63-.17,5.18,5.18,0,0,1-.9-.28l.35-1.69a6.55,6.55,0,0,0,1.09.33A5.22,5.22,0,0,0,116.21,21.32Z"/><path class="cls-3" d="M120.82,13.62l2.09-.34v2.17h2.5v1.74h-2.5v2.59a2,2,0,0,0,.23,1,1,1,0,0,0,.93.39,4.2,4.2,0,0,0,.69-.06,3.59,3.59,0,0,0,.65-.18l.3,1.63a6.37,6.37,0,0,1-.84.26,4.68,4.68,0,0,1-1.14.11,3.59,3.59,0,0,1-1.41-.23,2.23,2.23,0,0,1-.9-.64,2.5,2.5,0,0,1-.47-1,5.84,5.84,0,0,1-.13-1.3Z"/><path class="cls-3" d="M133.71,19.12a4.74,4.74,0,0,1-.25,1.59,3.44,3.44,0,0,1-.73,1.23,3.07,3.07,0,0,1-1.14.79,3.73,3.73,0,0,1-1.49.28,3.67,3.67,0,0,1-1.47-.28,3.2,3.2,0,0,1-1.15-.79,3.77,3.77,0,0,1-.74-1.23,4.5,4.5,0,0,1-.26-1.59,4.4,4.4,0,0,1,.27-1.58,3.58,3.58,0,0,1,.75-1.22,3.35,3.35,0,0,1,1.15-.78,3.92,3.92,0,0,1,2.91,0,3.17,3.17,0,0,1,1.15.78,3.73,3.73,0,0,1,.74,1.22A4.4,4.4,0,0,1,133.71,19.12Zm-2.12,0a2.61,2.61,0,0,0-.39-1.52,1.38,1.38,0,0,0-2.2,0,2.54,2.54,0,0,0-.4,1.52,2.59,2.59,0,0,0,.4,1.53,1.35,1.35,0,0,0,2.2,0A2.67,2.67,0,0,0,131.59,19.12Z"/><path class="cls-3" d="M139.37,18.91a2.92,2.92,0,0,0-.26-1.43,1,1,0,0,0-.89-.42l-.4,0-.41.05v5.69h-2.09V15.7l.63-.14.75-.14c.27,0,.54-.08.82-.1s.56,0,.83,0a3.34,3.34,0,0,1,1.29.21,2.69,2.69,0,0,1,.82.48,3.65,3.65,0,0,1,1-.5,3.41,3.41,0,0,1,1.07-.19,3.74,3.74,0,0,1,1.45.25,2.09,2.09,0,0,1,.9.69,2.67,2.67,0,0,1,.47,1.07,7.13,7.13,0,0,1,.12,1.37v4.16h-2.08V18.91a2.92,2.92,0,0,0-.26-1.43,1,1,0,0,0-.89-.42,1.78,1.78,0,0,0-.47.09,1.54,1.54,0,0,0-.5.21,2.93,2.93,0,0,1,.13.68c0,.23,0,.49,0,.76v4h-2.09Z"/><path class="cls-3" d="M147,19.19a4.59,4.59,0,0,1,.3-1.72,3.78,3.78,0,0,1,.79-1.22,3.35,3.35,0,0,1,1.13-.74,3.5,3.5,0,0,1,1.31-.25,3.25,3.25,0,0,1,2.48,1A4,4,0,0,1,154,19c0,.12,0,.25,0,.39s0,.28,0,.39h-4.74a1.38,1.38,0,0,0,.61,1,2.41,2.41,0,0,0,1.42.38,6,6,0,0,0,1.13-.11,3.8,3.8,0,0,0,.9-.25l.28,1.69a2.91,2.91,0,0,1-.44.17c-.19.05-.4.1-.63.14s-.47.08-.73.11a6.85,6.85,0,0,1-.79,0,4.73,4.73,0,0,1-1.72-.29,3.34,3.34,0,0,1-1.22-.81,3.28,3.28,0,0,1-.72-1.21A4.92,4.92,0,0,1,147,19.19Zm4.9-.8a2.36,2.36,0,0,0-.09-.52,1.26,1.26,0,0,0-.24-.44,1.31,1.31,0,0,0-.4-.33,1.41,1.41,0,0,0-.61-.12,1.34,1.34,0,0,0-.6.12,1.21,1.21,0,0,0-.42.31,1.23,1.23,0,0,0-.26.46,3.34,3.34,0,0,0-.14.52Z"/><path class="cls-3" d="M160,17.3l-.66-.15a4.14,4.14,0,0,0-.81-.07l-.47,0a2.24,2.24,0,0,0-.42.08v5.63h-2.08v-7a13.15,13.15,0,0,1,1.32-.37,8.09,8.09,0,0,1,1.7-.17,3.18,3.18,0,0,1,.41,0,3.55,3.55,0,0,1,.47.06l.48.08a2,2,0,0,1,.41.12Z"/><path class="cls-3" d="M167,21.32a2.19,2.19,0,0,0,.81-.11.44.44,0,0,0,.24-.44.53.53,0,0,0-.31-.44,6.31,6.31,0,0,0-.94-.43c-.32-.12-.62-.24-.89-.37a2.85,2.85,0,0,1-.67-.47,1.83,1.83,0,0,1-.44-.65,2.52,2.52,0,0,1-.15-.91,1.94,1.94,0,0,1,.77-1.64,3.35,3.35,0,0,1,2.11-.6,6.73,6.73,0,0,1,1.29.12,5.49,5.49,0,0,1,1,.25l-.36,1.63a7.63,7.63,0,0,0-.8-.23,4.58,4.58,0,0,0-1-.09c-.66,0-1,.18-1,.54a.56.56,0,0,0,0,.23.47.47,0,0,0,.17.18,1.45,1.45,0,0,0,.34.2,5.43,5.43,0,0,0,.55.23,7.91,7.91,0,0,1,1.14.51,2.67,2.67,0,0,1,.7.53A1.57,1.57,0,0,1,170,20a2.9,2.9,0,0,1,.1.81,1.85,1.85,0,0,1-.82,1.65,4,4,0,0,1-2.31.56,6.35,6.35,0,0,1-1.64-.17,5.85,5.85,0,0,1-.9-.28l.35-1.69a7.18,7.18,0,0,0,1.09.33A5.38,5.38,0,0,0,167,21.32Z"/><path class="cls-3" d="M177.91,22.56a10.26,10.26,0,0,1-1.37.29,11.12,11.12,0,0,1-1.76.13,4.2,4.2,0,0,1-1.57-.25,2.33,2.33,0,0,1-1-.71,2.59,2.59,0,0,1-.52-1.08,6,6,0,0,1-.15-1.39v-4.1h2.08V19.3a3,3,0,0,0,.27,1.46,1,1,0,0,0,1,.45l.48,0,.45,0V15.45h2.08Z"/><path class="cls-3" d="M186.72,19.13a5.45,5.45,0,0,1-.21,1.56,3.5,3.5,0,0,1-.62,1.2,2.72,2.72,0,0,1-1,.79,3.33,3.33,0,0,1-1.38.28,3.47,3.47,0,0,1-.81-.09,3,3,0,0,1-.73-.24v2.78h-2.09V15.7c.19,0,.4-.11.65-.16l.76-.13c.26,0,.54-.07.81-.09s.54,0,.79,0a4.6,4.6,0,0,1,1.63.28,3.39,3.39,0,0,1,1.2.77,3.18,3.18,0,0,1,.75,1.21A4.69,4.69,0,0,1,186.72,19.13Zm-2.13.06a2.61,2.61,0,0,0-.43-1.55,1.53,1.53,0,0,0-1.29-.58l-.52,0-.39.05V20.9a2.06,2.06,0,0,0,.51.21,2.74,2.74,0,0,0,.64.08C184.09,21.19,184.59,20.52,184.59,19.19Z"/><path class="cls-3" d="M195.17,19.13a5.45,5.45,0,0,1-.21,1.56,3.49,3.49,0,0,1-.61,1.2,2.8,2.8,0,0,1-1,.79A3.35,3.35,0,0,1,192,23a3.47,3.47,0,0,1-.81-.09,3.28,3.28,0,0,1-.73-.24v2.78h-2.08V15.7c.18,0,.4-.11.64-.16l.76-.13c.27,0,.54-.07.82-.09s.54,0,.79,0a4.54,4.54,0,0,1,1.62.28,3.35,3.35,0,0,1,1.21.77,3.45,3.45,0,0,1,.75,1.21A4.7,4.7,0,0,1,195.17,19.13Zm-2.12.06a2.54,2.54,0,0,0-.44-1.55,1.53,1.53,0,0,0-1.29-.58l-.51,0-.4.05V20.9a2.06,2.06,0,0,0,.51.21,2.8,2.8,0,0,0,.64.08C192.55,21.19,193.05,20.52,193.05,19.19Z"/><path class="cls-3" d="M203.67,19.12a4.74,4.74,0,0,1-.25,1.59,3.44,3.44,0,0,1-.73,1.23,3.25,3.25,0,0,1-1.14.79,4.08,4.08,0,0,1-3,0,3.25,3.25,0,0,1-1.14-.79,3.61,3.61,0,0,1-.74-1.23,4.5,4.5,0,0,1-.27-1.59,4.19,4.19,0,0,1,.28-1.58,3.58,3.58,0,0,1,.75-1.22,3.26,3.26,0,0,1,1.15-.78,3.92,3.92,0,0,1,2.91,0,3.13,3.13,0,0,1,1.14.78,3.41,3.41,0,0,1,.74,1.22A4.4,4.4,0,0,1,203.67,19.12Zm-2.13,0a2.69,2.69,0,0,0-.38-1.52,1.25,1.25,0,0,0-1.1-.55,1.27,1.27,0,0,0-1.11.55,2.61,2.61,0,0,0-.39,1.52,2.67,2.67,0,0,0,.39,1.53,1.27,1.27,0,0,0,1.11.57,1.25,1.25,0,0,0,1.1-.57A2.75,2.75,0,0,0,201.54,19.12Z"/><path class="cls-3" d="M209.72,17.3l-.66-.15a4.14,4.14,0,0,0-.81-.07l-.47,0a2.1,2.1,0,0,0-.41.08v5.63h-2.09v-7a13.15,13.15,0,0,1,1.32-.37,8.09,8.09,0,0,1,1.7-.17,3.1,3.1,0,0,1,.41,0,3.93,3.93,0,0,1,.48.06l.47.08a1.83,1.83,0,0,1,.41.12Z"/><path class="cls-3" d="M211.12,13.62l2.09-.34v2.17h2.5v1.74h-2.5v2.59a2,2,0,0,0,.23,1,1,1,0,0,0,.93.39,4.2,4.2,0,0,0,.69-.06,3.83,3.83,0,0,0,.65-.18l.29,1.63a5.79,5.79,0,0,1-.83.26A4.68,4.68,0,0,1,214,23a3.59,3.59,0,0,1-1.41-.23,2.23,2.23,0,0,1-.9-.64,2.5,2.5,0,0,1-.47-1,5.84,5.84,0,0,1-.13-1.3Z"/><path class="cls-3" d="M101.65,29.33a1.64,1.64,0,0,1-.14.69,3.46,3.46,0,0,1-.39.66,6.32,6.32,0,0,1-.54.64l-.6.62-.39.4c-.15.15-.29.31-.43.48a3.43,3.43,0,0,0-.33.48.8.8,0,0,0-.14.4h3.19v.79h-4.2s0-.08,0-.12v-.11a2.5,2.5,0,0,1,.16-.88,3.68,3.68,0,0,1,.4-.76,6.13,6.13,0,0,1,.56-.68l.61-.62q.25-.24.48-.48a5.56,5.56,0,0,0,.4-.47,2.14,2.14,0,0,0,.28-.48,1.39,1.39,0,0,0,.1-.53,1.29,1.29,0,0,0-.09-.51.92.92,0,0,0-.26-.35.85.85,0,0,0-.37-.21,1.7,1.7,0,0,0-.46-.06,1.51,1.51,0,0,0-.53.08,2.41,2.41,0,0,0-.43.18,3,3,0,0,0-.32.22l-.2.18-.46-.66a2.37,2.37,0,0,1,.27-.25,2.89,2.89,0,0,1,.43-.27,3.11,3.11,0,0,1,.56-.22,2.41,2.41,0,0,1,.67-.09,2.32,2.32,0,0,1,1.64.5A1.86,1.86,0,0,1,101.65,29.33Z"/><path class="cls-3" d="M103,32.09a11.09,11.09,0,0,1,.52-1q.33-.58.75-1.2c.28-.42.57-.82.89-1.22a13,13,0,0,1,.95-1.08H107V32h.82v.76H107v1.77h-.9V32.72H103Zm3.1-3.43a8.92,8.92,0,0,0-.6.71c-.2.27-.4.54-.6.83s-.37.58-.54.88-.32.59-.46.88h2.2Z"/><path class="cls-3" d="M109,36.34h-1l3.39-9.68h.93Z"/><path class="cls-3" d="M113.73,34.49A9.81,9.81,0,0,1,114,32.8a14.35,14.35,0,0,1,.55-1.72,13.93,13.93,0,0,1,.73-1.55,7.05,7.05,0,0,1,.77-1.16H112.7v-.81h4.41v.77a7.81,7.81,0,0,0-.73,1,13.77,13.77,0,0,0-.75,1.49,13,13,0,0,0-.61,1.76,9.39,9.39,0,0,0-.32,1.87Z"/><path class="cls-3" d="M123.11,34.61a2.88,2.88,0,0,1-1.1-.2,2.31,2.31,0,0,1-.8-.56,2.36,2.36,0,0,1-.49-.86,3.72,3.72,0,0,1-.16-1.09,3.21,3.21,0,0,1,.18-1.1,2.63,2.63,0,0,1,.49-.87,2.39,2.39,0,0,1,.79-.57,2.46,2.46,0,0,1,1-.2,4,4,0,0,1,.7.06,2.88,2.88,0,0,1,.67.19l-.21.79a2.08,2.08,0,0,0-.48-.16,2.74,2.74,0,0,0-.59-.06,1.46,1.46,0,0,0-1.19.49,2.12,2.12,0,0,0-.42,1.43,3.12,3.12,0,0,0,.1.77,1.54,1.54,0,0,0,.3.6,1.43,1.43,0,0,0,.52.38,2.05,2.05,0,0,0,.78.14,3.36,3.36,0,0,0,.67-.07,3.49,3.49,0,0,0,.48-.15l.12.78a.91.91,0,0,1-.23.09,2.44,2.44,0,0,1-.34.08c-.12,0-.26,0-.4.06A3,3,0,0,1,123.11,34.61Z"/><path class="cls-3" d="M129.64,34.34c-.21,0-.49.11-.84.17a7.33,7.33,0,0,1-1.22.09,2.53,2.53,0,0,1-1-.18,1.73,1.73,0,0,1-.66-.49,2.32,2.32,0,0,1-.36-.76,4.08,4.08,0,0,1-.11-1V29.29h.93V32a2.38,2.38,0,0,0,.3,1.36,1.18,1.18,0,0,0,1,.41H128l.3,0,.26,0,.16,0V29.29h.93Z"/><path class="cls-3" d="M132.45,33.82a1.84,1.84,0,0,0,.85-.15.51.51,0,0,0,.27-.48.63.63,0,0,0-.27-.54,3.58,3.58,0,0,0-.89-.45c-.2-.08-.39-.16-.57-.25a2.27,2.27,0,0,1-.48-.29,1.42,1.42,0,0,1-.32-.41,1.32,1.32,0,0,1-.12-.59,1.33,1.33,0,0,1,.51-1.1,2.19,2.19,0,0,1,1.39-.4,3.17,3.17,0,0,1,.44,0l.41.06a2.44,2.44,0,0,1,.34.08l.22.07-.17.8a2,2,0,0,0-.47-.17,3.37,3.37,0,0,0-.77-.08,1.48,1.48,0,0,0-.68.15.52.52,0,0,0-.29.49.73.73,0,0,0,.07.3.7.7,0,0,0,.2.23,1.7,1.7,0,0,0,.33.2l.48.19q.38.13.66.27a2,2,0,0,1,.5.32,1.22,1.22,0,0,1,.31.43,1.48,1.48,0,0,1,.11.63,1.26,1.26,0,0,1-.53,1.09,2.74,2.74,0,0,1-1.53.37,3.83,3.83,0,0,1-1.08-.12l-.53-.17.17-.8.51.18A3,3,0,0,0,132.45,33.82Z"/><path class="cls-3" d="M136.57,29.29h2v.78h-2v2.4a2.84,2.84,0,0,0,.06.64,1,1,0,0,0,.18.4.63.63,0,0,0,.3.21,1.33,1.33,0,0,0,.42.06,2.08,2.08,0,0,0,.68-.1l.35-.13.18.77a4.1,4.1,0,0,1-.49.17,2.76,2.76,0,0,1-.8.11,2.4,2.4,0,0,1-.87-.14,1.28,1.28,0,0,1-.56-.4,1.71,1.71,0,0,1-.29-.67,4.12,4.12,0,0,1-.09-.91V27.84l.93-.16Z"/><path class="cls-3" d="M144.17,31.89A3.33,3.33,0,0,1,144,33a2.53,2.53,0,0,1-.5.86,2.26,2.26,0,0,1-.78.55,2.42,2.42,0,0,1-1,.2,2.45,2.45,0,0,1-1-.2,2.22,2.22,0,0,1-.77-.55,2.55,2.55,0,0,1-.51-.86,3.57,3.57,0,0,1,0-2.24,2.46,2.46,0,0,1,.51-.86,2.25,2.25,0,0,1,.77-.56,2.45,2.45,0,0,1,1-.19,2.41,2.41,0,0,1,1,.19,2.29,2.29,0,0,1,.78.56,2.44,2.44,0,0,1,.5.86A3.33,3.33,0,0,1,144.17,31.89Zm-1,0a2.26,2.26,0,0,0-.39-1.4,1.39,1.39,0,0,0-2.15,0,2.63,2.63,0,0,0,0,2.79,1.37,1.37,0,0,0,2.15,0A2.25,2.25,0,0,0,143.2,31.89Z"/><path class="cls-3" d="M145.48,29.44c.22-.06.5-.11.85-.17a7.2,7.2,0,0,1,1.21-.09,2.25,2.25,0,0,1,.84.13,1.37,1.37,0,0,1,.57.4l.22-.14a3.21,3.21,0,0,1,.37-.18,4.77,4.77,0,0,1,.49-.15,2.72,2.72,0,0,1,.58-.06,2.3,2.3,0,0,1,1,.17,1.41,1.41,0,0,1,.6.5,1.92,1.92,0,0,1,.29.76,5.69,5.69,0,0,1,.07,1v2.92h-.93V31.77a6,6,0,0,0,0-.79,1.55,1.55,0,0,0-.17-.55.77.77,0,0,0-.34-.33,1.31,1.31,0,0,0-.56-.1,2.11,2.11,0,0,0-.77.12,1.85,1.85,0,0,0-.42.23,2.39,2.39,0,0,1,.12.57,4.45,4.45,0,0,1,0,.65v2.92h-.93V31.77a4.56,4.56,0,0,0-.05-.79,1.55,1.55,0,0,0-.17-.55.77.77,0,0,0-.34-.33,1.29,1.29,0,0,0-.55-.1h-.3l-.3,0-.27,0-.16,0v4.39h-.93Z"/><path class="cls-3" d="M153.8,31.9a3.45,3.45,0,0,1,.2-1.21,2.57,2.57,0,0,1,.53-.85,2.12,2.12,0,0,1,.76-.51,2.26,2.26,0,0,1,.88-.17,2,2,0,0,1,1.61.65,3,3,0,0,1,.56,2V32a1.09,1.09,0,0,1,0,.18h-3.56a1.92,1.92,0,0,0,.47,1.23,1.73,1.73,0,0,0,1.28.42,3.23,3.23,0,0,0,.83-.09,3.74,3.74,0,0,0,.5-.16l.13.78a2.9,2.9,0,0,1-.59.19,4.67,4.67,0,0,1-1,.1,3,3,0,0,1-1.17-.21A2.11,2.11,0,0,1,154,33,3.71,3.71,0,0,1,153.8,31.9Zm3.57-.51a1.54,1.54,0,0,0-.31-1,1.1,1.1,0,0,0-.9-.4,1.25,1.25,0,0,0-.56.12,1.34,1.34,0,0,0-.42.33,1.38,1.38,0,0,0-.26.46,2.42,2.42,0,0,0-.13.53Z"/><path class="cls-3" d="M161.6,29.18h.28l.3,0,.28.05.18,0-.16.81a2.61,2.61,0,0,0-.36-.1,3.05,3.05,0,0,0-.66-.05A2.21,2.21,0,0,0,161,30l-.34.08v4.37h-.93v-5a6.56,6.56,0,0,1,.82-.23A5.35,5.35,0,0,1,161.6,29.18Z"/><path class="cls-3" d="M167.06,33.82a1.84,1.84,0,0,0,.85-.15.51.51,0,0,0,.27-.48.63.63,0,0,0-.27-.54,3.58,3.58,0,0,0-.89-.45c-.2-.08-.39-.16-.57-.25a2.27,2.27,0,0,1-.48-.29,1.42,1.42,0,0,1-.32-.41,1.32,1.32,0,0,1-.12-.59,1.33,1.33,0,0,1,.51-1.1,2.19,2.19,0,0,1,1.39-.4,3.17,3.17,0,0,1,.44,0l.41.06a2.44,2.44,0,0,1,.34.08l.22.07-.17.8a2,2,0,0,0-.47-.17,3.37,3.37,0,0,0-.77-.08,1.48,1.48,0,0,0-.68.15.52.52,0,0,0-.29.49.73.73,0,0,0,.07.3.7.7,0,0,0,.2.23,1.7,1.7,0,0,0,.33.2l.48.19q.38.13.66.27a2,2,0,0,1,.5.32,1.22,1.22,0,0,1,.31.43,1.48,1.48,0,0,1,.11.63,1.23,1.23,0,0,1-.53,1.09,2.74,2.74,0,0,1-1.53.37,3.83,3.83,0,0,1-1.08-.12l-.53-.17.17-.8.51.18A3,3,0,0,0,167.06,33.82Z"/><path class="cls-3" d="M174.45,34.34c-.21,0-.49.11-.84.17a7.33,7.33,0,0,1-1.22.09,2.53,2.53,0,0,1-1-.18,1.73,1.73,0,0,1-.66-.49,2.32,2.32,0,0,1-.36-.76,4.08,4.08,0,0,1-.11-1V29.29h.93V32a2.38,2.38,0,0,0,.3,1.36,1.18,1.18,0,0,0,1,.41h.31l.3,0,.26,0,.16,0V29.29h.93Z"/><path class="cls-3" d="M180.63,31.9a3.83,3.83,0,0,1-.15,1.09,2.62,2.62,0,0,1-.46.86,2.13,2.13,0,0,1-.73.56,2.41,2.41,0,0,1-1,.2,2.39,2.39,0,0,1-.79-.12,3,3,0,0,1-.52-.23v2.08h-.93V29.45c.22-.06.5-.12.83-.18a6.43,6.43,0,0,1,1.14-.09,2.85,2.85,0,0,1,1.08.19,2.1,2.1,0,0,1,.82.54,2.36,2.36,0,0,1,.53.85A3.41,3.41,0,0,1,180.63,31.9Zm-1,0a2,2,0,0,0-.45-1.4A1.54,1.54,0,0,0,178,30a5.32,5.32,0,0,0-.65,0,2.38,2.38,0,0,0-.38.07v3.28a2.38,2.38,0,0,0,.49.27,2,2,0,0,0,.7.13,1.47,1.47,0,0,0,.69-.15,1.19,1.19,0,0,0,.46-.4,1.63,1.63,0,0,0,.26-.6A3,3,0,0,0,179.66,31.9Z"/><path class="cls-3" d="M186.52,31.9a3.83,3.83,0,0,1-.15,1.09,2.62,2.62,0,0,1-.46.86,2.13,2.13,0,0,1-.73.56,2.41,2.41,0,0,1-1,.2,2.39,2.39,0,0,1-.79-.12,3,3,0,0,1-.52-.23v2.08h-.93V29.45c.22-.06.5-.12.83-.18a6.43,6.43,0,0,1,1.14-.09,2.85,2.85,0,0,1,1.08.19,2.1,2.1,0,0,1,.82.54,2.36,2.36,0,0,1,.53.85A3.41,3.41,0,0,1,186.52,31.9Zm-1,0a2,2,0,0,0-.45-1.4,1.54,1.54,0,0,0-1.2-.49,5.43,5.43,0,0,0-.65,0,2.38,2.38,0,0,0-.38.07v3.28a2.38,2.38,0,0,0,.49.27,2,2,0,0,0,.7.13,1.47,1.47,0,0,0,.69-.15,1.19,1.19,0,0,0,.46-.4,1.63,1.63,0,0,0,.26-.6A3,3,0,0,0,185.55,31.9Z"/><path class="cls-3" d="M192.42,31.89a3.33,3.33,0,0,1-.18,1.12,2.53,2.53,0,0,1-.5.86,2.26,2.26,0,0,1-.78.55,2.42,2.42,0,0,1-1,.2,2.45,2.45,0,0,1-1-.2,2.13,2.13,0,0,1-.77-.55,2.55,2.55,0,0,1-.51-.86,3.57,3.57,0,0,1,0-2.24,2.46,2.46,0,0,1,.51-.86,2.16,2.16,0,0,1,.77-.56,2.45,2.45,0,0,1,1-.19,2.41,2.41,0,0,1,1,.19,2.29,2.29,0,0,1,.78.56,2.44,2.44,0,0,1,.5.86A3.33,3.33,0,0,1,192.42,31.89Zm-1,0a2.26,2.26,0,0,0-.39-1.4A1.3,1.3,0,0,0,190,30a1.28,1.28,0,0,0-1.07.51,2.63,2.63,0,0,0,0,2.79,1.26,1.26,0,0,0,1.07.52,1.28,1.28,0,0,0,1.08-.52A2.25,2.25,0,0,0,191.45,31.89Z"/><path class="cls-3" d="M195.65,29.18h.28l.3,0,.28.05.18,0-.16.81a2.61,2.61,0,0,0-.36-.1,3.05,3.05,0,0,0-.66-.05A2.21,2.21,0,0,0,195,30l-.34.08v4.37h-.93v-5a6.56,6.56,0,0,1,.82-.23A5.35,5.35,0,0,1,195.65,29.18Z"/><path class="cls-3" d="M198.46,29.29h2v.78h-2v2.4a2.84,2.84,0,0,0,.06.64,1,1,0,0,0,.18.4.63.63,0,0,0,.3.21,1.33,1.33,0,0,0,.42.06,2.08,2.08,0,0,0,.68-.1l.35-.13.18.77a4.1,4.1,0,0,1-.49.17,2.76,2.76,0,0,1-.8.11,2.4,2.4,0,0,1-.87-.14,1.28,1.28,0,0,1-.56-.4,1.57,1.57,0,0,1-.29-.67,4.12,4.12,0,0,1-.09-.91V27.84l.93-.16Z"/></svg>